<?xml version="1.0" encoding="UTF-8"?>
<svg width="40px" height="40px" viewBox="0 0 40 40" version="1.1" xmlns="http://www.w3.org/2000/svg" xmlns:xlink="http://www.w3.org/1999/xlink">
    <g id="coin/zrx" stroke="none" stroke-width="1" fill="none" fill-rule="evenodd">
        <path d="M29.9705374,28.3391281 C28.032305,30.6264187 25.6241982,32.0926306 22.7168497,32.7084396 C19.4864625,33.3828971 16.4322782,32.884385 13.4661954,31.2422277 C16.1092395,29.2775037 18.6935493,27.342104 21.3072262,25.4067042 C21.8945693,25.9638648 22.4525453,26.5210253 23.0105213,27.0488616 C23.6272316,27.6353464 23.3922943,27.6646706 24.1852075,27.224807 C25.2717923,26.608998 26.1821742,25.7585951 26.8869859,24.7322468 C26.9163531,24.6735983 26.9750874,24.6149498 27.0044546,24.5563013 C26.9750874,24.5563013 27.0044546,24.5563013 27.092556,24.4976529 C28.032305,25.7585951 29.0014212,27.0488616 29.9705374,28.3391281 Z M13.4661954,28.6616947 C12.9669538,29.0429098 12.4677121,29.3948007 11.9684705,29.7760158 C11.7629004,29.9519612 11.6160646,29.9519612 11.3811273,29.7466915 C9.14922343,27.7526433 7.73959992,25.2894073 7.21099111,22.3569835 C6.68238229,19.3952354 7.15225679,16.5801085 8.5618803,13.9116028 C8.59124746,13.8529544 8.64998177,13.7649817 8.67934893,13.7063332 C8.67934893,13.6770089 8.70871609,13.6770089 8.7674504,13.6476847 C10.7056827,16.1988934 12.6732822,18.7501022 14.6115145,21.3013109 C14.5527802,21.3892836 14.5234131,21.4479321 14.4646788,21.5065806 C13.8773356,22.1223896 13.2899925,22.7381986 12.6732822,23.3246833 C12.4970793,23.5006288 12.4677121,23.64725 12.5851807,23.8525196 C13.201891,25.0254892 14.0535386,25.993189 15.1107562,26.7849434 C15.257592,26.8729162 15.3750606,26.9608889 15.5512635,27.0781858 C14.8170846,27.6353464 14.14164,28.1338584 13.4661954,28.6616947 Z M18.8697522,14.3221422 C18.6641821,14.4687634 18.5173463,14.4980876 18.3411434,14.2928179 C17.8125346,13.7356574 17.2545586,13.2371454 16.7259498,12.6799848 C16.579114,12.5333637 16.4322782,12.5040394 16.2267081,12.5920121 C14.9639204,13.2371454 13.9654371,14.1461968 13.1431567,15.289842 C13.0844224,15.3484905 13.0256881,15.4364632 12.9669538,15.524436 C12.4970793,14.908627 10.7056827,12.5333637 10.2651754,11.9468789 C10.1183396,11.7416092 10.0889724,11.594988 10.2945425,11.3897184 C12.5558136,8.89715811 15.3456934,7.43094619 18.6935493,7.07905533 C21.3365934,6.78581295 23.8621688,7.31364924 26.2115413,8.57459149 C26.2996428,8.63323996 26.3877443,8.6625642 26.4758457,8.72121268 C26.4758457,8.80918539 26.4758457,8.83850963 26.5052129,8.86783387 C25.5654639,9.54229135 20.4555787,13.1784969 18.8697522,14.3221422 Z M25.6535654,19.0726688 C25.4773624,18.8380749 25.4773624,18.6914537 25.6829325,18.486184 C26.2409085,17.9290235 26.7695173,17.371863 27.3274933,16.8147024 C27.4743291,16.6680812 27.5330634,16.5214601 27.4155948,16.3161904 C26.7695173,15.0845724 25.8885026,14.058224 24.7431835,13.2371454 C24.655082,13.1784969 24.5669806,13.0905242 24.449512,13.0318757 C24.5376134,12.943903 24.6257149,12.8852545 24.6844492,12.826606 C25.8004011,11.9762031 26.9163531,11.1551245 28.032305,10.3047215 C28.208508,10.1581004 28.3553438,10.0994519 28.5609139,10.3047215 C31.3507937,12.826606 32.8485187,15.9642995 32.9953545,19.7471263 C33.0540888,21.9464441 32.5548471,24.0284651 31.5563638,25.993189 C31.4682623,26.110486 31.3801609,26.2571072 31.2920594,26.4623768 C30.6753491,25.6706224 26.9750874,20.7734746 25.6535654,19.0726688 Z" id="0x" fill="#231815" class="fill fill-black" />
    </g>
</svg>