<?xml version="1.0" encoding="UTF-8"?>
<svg width="40px" height="40px" viewBox="0 0 40 40" version="1.1" xmlns="http://www.w3.org/2000/svg" xmlns:xlink="http://www.w3.org/1999/xlink">
    <path fill="#4D1515" class="fill fill-black" d="M20,33 C27.1797017,33 33,27.1797017 33,20 C33,12.8202983 27.1797017,7 20,7 C12.8202983,7 7,12.8202983 7,20 C7,27.1797017 12.8202983,33 20,33 Z M19.75,19 L22.5,19 L22,21 L19.25,21 L18.5,24 L23.6329932,24 L23,27 L13.5,27 L15,21 L12.5,21 L13,19 L15.5,19 L17,13 L26,13 L25.5,16 L20.5,16 L19.75,19 Z" fill-rule="nonzero" />
</svg>