<?xml version="1.0" encoding="UTF-8"?>
<svg width="40px" height="40px" viewBox="0 0 40 40" version="1.1" xmlns="http://www.w3.org/2000/svg" xmlns:xlink="http://www.w3.org/1999/xlink">
	<path fill="#1E8FCA" class="fill" d="M20,34 C27.73,34 34,27.73 34,20 C34,12.268 27.73,6 20,6 C12.268,6 6,12.268 6,20 C6,27.73 12.268,34 20,34 Z M15.5,19 L21,24.5 L15.5,30 L14,28.5 L18,24.5 L14,20.5 L15.5,19 Z M16.5,18 L18,16.5 L23.5,22 L22,23.5 L16.5,18 Z M24.5,21 L19,15.5 L24.5,10 L26,11.5 L22,15.5 L26,19.5 L24.5,21 Z" fill-rule="nonzero" />
</svg>