<?xml version="1.0" encoding="UTF-8"?>
<svg width="40px" height="40px" viewBox="0 0 40 40" version="1.1" xmlns="http://www.w3.org/2000/svg" xmlns:xlink="http://www.w3.org/1999/xlink">
    <g id="coin/abbc" stroke="none" stroke-width="1" fill="none" fill-rule="evenodd">
        <circle fill="#FE9B00" cx="20" cy="20" r="13"></circle>
        <path d="M30.8098912,21.069069 C30.7856976,21.0209538 30.8050525,20.9824616 30.8050525,20.9439694 C30.8873109,20.1067647 30.350212,19.3657904 29.5373056,19.1925756 C29.0050455,19.0819106 28.5308501,19.2310677 28.1243969,19.5774973 C27.6308466,19.9960997 27.16149,20.4435712 26.696972,20.8958542 C26.1308408,21.4491792 25.574387,22.0121272 25.0324494,22.5846983 C24.6501899,22.9888661 24.2050268,23.301615 23.6727667,23.4844528 C22.1727609,23.9944741 20.5324319,23.1957615 19.961462,21.8100433 C19.8937198,21.6416401 19.8985585,21.6079594 20.0340429,21.4924829 C20.3485602,21.2182262 20.6679163,20.948781 20.9824337,20.6745242 C20.9921111,20.6649012 21.0017886,20.6600897 21.011466,20.6504666 C21.0501759,20.626409 21.0792082,20.5686707 21.1275955,20.5927284 C21.1711441,20.6119744 21.1469504,20.6697127 21.1517892,20.7082049 C21.1953377,21.5261635 21.8195337,22.1083577 22.5405042,22.2093996 C23.3098621,22.3152531 24.0792199,21.8485355 24.3114789,21.1171842 C24.5872864,20.2511103 24.1276072,19.389848 23.2372812,19.1059682 C22.6953436,18.9327534 22.2017933,19.0482299 21.7711464,19.4042825 C21.4179192,19.6929738 21.0792082,19.9960997 20.7356585,20.2992255 C20.5082383,20.5013094 20.280818,20.7082049 20.0485591,20.9054773 C19.9566232,20.9872731 19.9033972,21.078692 19.8792036,21.1989801 C19.6953319,22.1276037 19.1727492,22.8204628 18.3453266,23.2775574 C17.8179052,23.5710602 17.2469353,23.6769137 16.6420942,23.6191754 C15.9840271,23.5566256 15.4082185,23.311238 14.9146681,22.8782011 C14.5711184,22.5798868 14.3146658,22.2142111 14.1404716,21.7956087 C14.1307941,21.7763627 14.1211167,21.7523051 14.1162779,21.733059 C14.0824068,21.6512631 14.1017618,21.5839018 14.169504,21.5261635 C14.2807947,21.4347446 14.3872467,21.3433257 14.4985375,21.2519068 C14.7259577,21.0546344 14.953378,20.857362 15.1856369,20.6649012 C15.2243468,20.6312205 15.2630566,20.5734823 15.3114439,20.5927284 C15.3646699,20.6119744 15.3404763,20.6793357 15.345315,20.727451 C15.3791861,21.4876714 15.89693,22.1083577 16.6324168,22.2719494 C17.4598393,22.4547872 18.3066168,21.9447659 18.5291983,21.1268072 C18.819522,20.063461 17.9727446,19.0145493 16.8695145,19.067476 C16.5259647,19.0819106 16.2162861,19.1973871 15.9549948,19.4187171 C15.6404774,19.6785393 15.3307988,19.9479845 15.0259589,20.2174297 C14.7114416,20.4916864 14.4017629,20.7707547 14.0872456,21.0450114 C14.0001485,21.1219957 13.9565999,21.2086031 13.9565999,21.3288912 C13.9565999,22.0265618 13.9565999,22.7242324 13.9565999,23.4170915 C13.9565999,23.6143639 13.9275675,23.643233 13.7291797,23.6384215 C13.3372427,23.6287985 13.0082091,23.4844528 12.7469178,23.19095 C12.6501432,23.080285 12.6307883,23.080285 12.5001426,23.1524578 C12.0211085,23.4170915 11.513042,23.5614372 10.9662657,23.5421911 C9.84368069,23.5036989 8.98722575,22.9984891 8.40657833,22.0409963 C8.13077081,21.5839018 7.99528641,21.078692 8.00012514,20.5446131 C8.00496387,19.8325079 8.24206156,19.2021986 8.69206331,18.6536852 C9.14690379,18.1003602 9.72755121,17.7394961 10.4388443,17.6240195 C11.3872351,17.4748624 12.2582062,17.6480771 12.9888542,18.3072556 C13.2259519,18.5189626 13.419501,18.7595386 13.5888565,19.0241723 C13.6178889,19.0722875 13.6469213,19.1252143 13.704986,19.1492719 C13.777567,19.0963451 13.8162768,19.0337954 13.8162768,18.9375649 C13.8114381,18.4612243 13.8162768,17.9848837 13.8162768,17.5037315 C13.8162768,16.4211391 13.8162768,15.3385468 13.8114381,14.260766 C13.8114381,14.049059 13.8356317,14.0250014 14.0533745,14.0250014 C14.7259577,14.0346244 15.2678953,14.5157766 15.3501537,15.1797666 C15.3598312,15.2567509 15.3646699,15.3337353 15.3646699,15.4107196 C15.3646699,16.2431128 15.3646699,17.0755061 15.3646699,17.9030878 C15.3646699,17.9127108 15.3646699,17.9271454 15.3646699,17.9367684 C15.3695086,18.052245 15.3937023,18.0666795 15.5001543,18.0137528 C15.8146716,17.8501611 16.1485439,17.7394961 16.4969324,17.6913808 C17.3630648,17.5710928 18.1372613,17.7876113 18.8243608,18.3265017 C19.0566197,18.5093395 19.2501689,18.725858 19.4195244,18.9712456 C19.4292018,18.9856801 19.4388793,19.0049262 19.4533955,19.0193608 C19.4872666,19.067476 19.5162989,19.1204028 19.5792024,19.1300258 C19.6130735,19.1348373 19.7098481,19.0097378 19.7146868,18.956811 C19.7243643,18.8942612 19.7243643,18.8268999 19.7243643,18.7595386 C19.7243643,17.6336426 19.7243643,16.502935 19.7243643,15.377039 C19.7243643,14.6793683 20.1598498,14.1549125 20.851788,14.0250014 C20.9292077,14.0105668 21.0017886,13.9961323 21.084047,14.0009438 C21.1856603,14.0057553 21.2292088,14.0442475 21.2534025,14.1404779 C21.2727574,14.2174623 21.2727574,14.2944466 21.2727574,14.371431 C21.2727574,14.9247559 21.2727574,15.4780809 21.2727574,16.0362174 C21.2727574,16.6376576 21.2727574,17.2390978 21.2727574,17.8357265 C21.2727574,17.8645956 21.2727574,17.8982763 21.2727574,17.9271454 C21.2824348,17.9896952 21.3017898,18.0089413 21.3646932,17.9848837 C21.4469516,17.951203 21.52921,17.9127108 21.6114684,17.8790302 C22.7727632,17.4171241 24.0743812,17.6961924 24.9163199,18.5911354 C25.2018049,18.8942612 25.414709,19.2455023 25.5647096,19.6352356 C25.574387,19.6641047 25.5840645,19.6929738 25.5937419,19.7218429 C25.6421292,19.8469425 25.6566454,19.851754 25.7582587,19.7603351 C26.2130992,19.3609788 26.6679396,18.9616225 27.1227801,18.5622662 C27.5147171,18.2158367 27.9598802,17.9704491 28.4727854,17.8501611 C29.9195652,17.5037315 31.4340872,18.292821 31.9711861,19.6737277 C32.0244121,19.8036388 32.0050572,19.9046808 31.9034439,20.0057227 C31.5695716,20.3329062 31.2453768,20.6649012 30.9115045,20.9968962 C30.8776334,21.0257653 30.8534398,21.0546344 30.8098912,21.069069 Z M29.442623,22.3871408 C29.442623,22.4365192 29.4135527,22.4562706 29.3893275,22.4809598 C29.0356397,22.8414219 28.6819518,23.2018841 28.333109,23.5672841 C28.2604334,23.6413517 28.1877578,23.6561652 28.095702,23.6216003 C27.2623553,23.3055787 26.6712605,22.7327895 26.3272627,21.8982949 C26.2739673,21.7748489 26.2836574,21.7353462 26.3805582,21.651403 C26.7245559,21.345257 27.0733988,21.0391111 27.4173966,20.737903 C27.4416217,20.7181516 27.4610019,20.6934624 27.4997622,20.6885246 C27.5336775,20.7230895 27.5239874,20.76753 27.5288325,20.8070327 C27.5482126,21.0391111 27.601508,21.2662516 27.6984088,21.4785787 C27.9261257,21.9624868 28.3137288,22.2390057 28.8127679,22.3624517 C28.9193587,22.3871408 29.0259496,22.3970165 29.1373855,22.3920787 C29.2342863,22.382203 29.3360321,22.3871408 29.442623,22.3871408 Z M12.5240252,20.5978006 C12.5287359,19.6338993 11.8127072,18.898552 10.9600678,18.9184262 C10.0367676,18.9383005 9.3631353,19.7133963 9.37726745,20.6176748 C9.39139959,21.5567332 10.112139,22.2672377 10.9600678,22.2622692 C11.8315501,22.2523321 12.5475788,21.4822048 12.5240252,20.5978006 Z" id="abbc" fill="#191C31"></path>
    </g>
</svg>