<?xml version="1.0" encoding="UTF-8"?>
<svg width="40px" height="40px" viewBox="0 0 40 40" version="1.1" xmlns="http://www.w3.org/2000/svg" xmlns:xlink="http://www.w3.org/1999/xlink">
	<path fill="#7680FF" d="M7,28 C6.33,26.33 6,25.5 6,25.5 C6,24.83 6.16,24.16 6.5,23.5 L15.5,8 C15.83,7.33 16.33,7 17,7 C17.66,7 18.66,7 20,7 L20,14 L13.5,25.5 L7,28 Z" />
	<path fill="#5E7EFF" d="M17,7 C20.0252067,7 22.0252067,7 23,7 C23.66,7 24.16,7.33 24.5,8 L33.5,23.5 C33.83,24.0833333 34,24.75 34,25.5 C34,25.5 31.5,25.5 26.5,25.5 L20,14 L16.5,7.5 L17,7 Z" />
	<path fill="#6B67FF" d="M11,25.5 L31,25.5 L33,28 L31.5527864,30.8944272 C31.2140024,31.5719952 30.5214761,32 29.763932,32 L10.236068,32 C9.47852386,32 8.78599762,31.5719952 8.4472136,30.8944272 L7,28 L11,25.5 Z"  />
	<path fill="#5B55FF"  d="M13.5,25.5 L10,31 C9.33,31.66 8.83,31.66 8.5,31 C8.5,31 7.83,29.66 6.5,27 C6.16,26.33 6,25.83 6,25.5 C6.66666667,25.5 9.16,25.5 13.5,25.5 Z"/>
	<path fill="#4C6AFF" d="M26.5,25.5 L30,31 C30.66,31.66 31.16,31.66 31.5,31 C31.5,31 32.16,29.66 33.5,27 C33.83,26.33 34,25.83 34,25.5 C34,25.5 31.5,25.5 26.5,25.5 Z" />
	<polygon fill="#4136F5" points="30.5 31.5 26.5 25.5 24.5 25.5" />
	<polygon fill="#2A5DF5" points="18.5 16.5 20 14 16.5 7.5" />
</svg>