<?xml version="1.0" encoding="UTF-8"?>
<svg width="40px" height="40px" viewBox="0 0 40 40" version="1.1" xmlns="http://www.w3.org/2000/svg" xmlns:xlink="http://www.w3.org/1999/xlink">
	<path fill="#ED001C" class="fill" d="M32.6521363,23 C32.6058258,23.1960506 32.5550764,23.3903862 32.5,23.5828947 L32.5,32 C32.5,32.66 32.1666667,33 31.5,33 C30.5,33 29.5,33 28.5,33 C27.8333333,33 27.5,32.66 27.5,32 L27.5,30.6196833 C25.3809096,32.1189916 22.7933401,33 20,33 C13.8528367,33 8.70219128,28.7334 7.34786368,23 L12.581517,23 C13.7682918,25.9318303 16.6426224,28 20,28 C23.3573776,28 26.2317082,25.9318303 27.418483,23 L32.6521366,23 Z M32.6521363,17 L27.418483,17 C26.2317082,14.0681697 23.3573776,12 20,12 C16.6426224,12 13.7682918,14.0681697 12.581517,17 L7.34786368,17 C8.70219128,11.2666 13.8528367,7 20,7 C26.1471633,7 31.2978087,11.2666 32.6521363,17 Z" />
</svg>