<?xml version="1.0" encoding="UTF-8"?>
<svg width="40px" height="40px" viewBox="0 0 40 40" version="1.1" xmlns="http://www.w3.org/2000/svg" xmlns:xlink="http://www.w3.org/1999/xlink">
	<path fill="#1E4DA7" class="fill" d="M18,15.5 L16.5,14 L18,12.5 L19.5,14 L18,15.5 Z M16,13.5 L14.5,12 L16,10.5 L17.5,12 L16,13.5 Z M14,11.5 L12.5,10 L14,8.5 L15.5,10 L14,11.5 Z M12,9.5 L10.5,8 L12,6.5 L13.5,8 L12,9.5 Z M10,11.5 L8.5,10 L10,8.5 L11.5,10 L10,11.5 Z M8,13.5 L6.5,12 L8,10.5 L9.5,12 L8,13.5 Z M10,15.5 L8.5,14 L10,12.5 L11.5,14 L10,15.5 Z M12,13.5 L10.5,12 L12,10.5 L13.5,12 L12,13.5 Z M12,17.5 L10.5,16 L12,14.5 L13.5,16 L12,17.5 Z M14,19.5 L12.5,18 L14,16.5 L15.5,18 L14,19.5 Z M16,21.5 L14.5,20 L16,18.5 L17.5,20 L16,21.5 Z M14,23.5 L12.5,22 L14,20.5 L15.5,22 L14,23.5 Z M12,21.5 L10.5,20 L12,18.5 L13.5,20 L12,21.5 Z M8,9.5 L6.5,8 L8,6.5 L9.5,8 L8,9.5 Z M12,25.5 L10.5,24 L12,22.5 L13.5,24 L12,25.5 Z M10,27.5 L8.5,26 L10,24.5 L11.5,26 L10,27.5 Z M8,29.5 L6.5,28 L8,26.5 L9.5,28 L8,29.5 Z M10,31.5 L8.5,30 L10,28.5 L11.5,30 L10,31.5 Z M8,33.5 L6.5,32 L8,30.5 L9.5,32 L8,33.5 Z M12,29.5 L10.5,28 L12,26.5 L13.5,28 L12,29.5 Z M14,31.5 L12.5,30 L14,28.5 L15.5,30 L14,31.5 Z M12,33.5 L10.5,32 L12,30.5 L13.5,32 L12,33.5 Z M16,29.5 L14.5,28 L16,26.5 L17.5,28 L16,29.5 Z M18,27.5 L16.5,26 L18,24.5 L19.5,26 L18,27.5 Z M20,29.5 L18.5,28 L20,26.5 L21.5,28 L20,29.5 Z M20,25.5 L18.5,24 L20,22.5 L21.5,24 L20,25.5 Z M22,27.5 L20.5,26 L22,24.5 L23.5,26 L22,27.5 Z M24,29.5 L22.5,28 L24,26.5 L25.5,28 L24,29.5 Z M26,31.5 L24.5,30 L26,28.5 L27.5,30 L26,31.5 Z M28,33.5 L26.5,32 L28,30.5 L29.5,32 L28,33.5 Z M30,31.5 L28.5,30 L30,28.5 L31.5,30 L30,31.5 Z M32,29.5 L30.5,28 L32,26.5 L33.5,28 L32,29.5 Z M32,33.5 L30.5,32 L32,30.5 L33.5,32 L32,33.5 Z M30,27.5 L28.5,26 L30,24.5 L31.5,26 L30,27.5 Z M28,29.5 L26.5,28 L28,26.5 L29.5,28 L28,29.5 Z M28,25.5 L26.5,24 L28,22.5 L29.5,24 L28,25.5 Z M20,13.5 L18.5,12 L20,10.5 L21.5,12 L20,13.5 Z M24,13.5 L22.5,12 L24,10.5 L25.5,12 L24,13.5 Z M24,21.5 L22.5,20 L24,18.5 L25.5,20 L24,21.5 Z M26,19.5 L24.5,18 L26,16.5 L27.5,18 L26,19.5 Z M26,23.5 L24.5,22 L26,20.5 L27.5,22 L26,23.5 Z M28,21.5 L26.5,20 L28,18.5 L29.5,20 L28,21.5 Z M28,17.5 L26.5,16 L28,14.5 L29.5,16 L28,17.5 Z M26,11.5 L24.5,10 L26,8.5 L27.5,10 L26,11.5 Z M28,9.5 L26.5,8 L28,6.5 L29.5,8 L28,9.5 Z M30,11.5 L28.5,10 L30,8.5 L31.5,10 L30,11.5 Z M32,9.5 L30.5,8 L32,6.5 L33.5,8 L32,9.5 Z M28,13.5 L26.5,12 L28,10.5 L29.5,12 L28,13.5 Z M30,15.5 L28.5,14 L30,12.5 L31.5,14 L30,15.5 Z M32,13.5 L30.5,12 L32,10.5 L33.5,12 L32,13.5 Z M20,17.5 L18.5,16 L20,14.5 L21.5,16 L20,17.5 Z M22,15.5 L20.5,14 L22,12.5 L23.5,14 L22,15.5 Z" id="ADT" />
</svg>