<?xml version="1.0" encoding="UTF-8"?>
<svg width="40px" height="40px" viewBox="0 0 40 40" version="1.1" xmlns="http://www.w3.org/2000/svg" xmlns:xlink="http://www.w3.org/1999/xlink">
    <!-- Generator: Sketch 52.2 (67145) - http://www.bohemiancoding.com/sketch -->
    <title>coin/ae</title>
    <desc>Created with Sketch.</desc>
    <g id="coin/ae" stroke="none" stroke-width="1" fill="none" fill-rule="evenodd">
        <path d="M35.5,24 C35.5,26 32,28 29,28 C25,28 23,25 20.5,21 C18,17 16,14 12,14 C8,14 5,17.1340068 5,21 C5,24.8659932 8,28 12,28 C16,28 17.5,24.5 19,23.5 M22.5,18.5 C24,17.5 25,14 29,14 C33,14 36,17.1340068 36,21 C34.6666667,21 32,21 28,21" id="Oval-2" stroke="#FF006C" stroke-width="2"></path>
    </g>
</svg>