<?xml version="1.0" encoding="UTF-8"?>
<svg width="40px" height="40px" viewBox="0 0 40 40" version="1.1" xmlns="http://www.w3.org/2000/svg" xmlns:xlink="http://www.w3.org/1999/xlink">
    <g id="aion" stroke="none" stroke-width="1" fill="none" fill-rule="evenodd">
        <path d="M18.7063558,32.9364417 C12.4172167,32.3151255 7.44515485,27.2118595 7.02830654,20.8647796 L9.02395169,20.7317366 C9.37666949,26.1023426 13.5837987,30.4204908 18.905378,30.9462199 L18.7063558,32.9364417 Z M20,7 C21.837351,7 23.5856753,7.38116821 25.1702114,8.06874295 L24.3747943,9.90432096 C23.034033,9.32252695 21.5546816,9 20,9 L20,7 Z" fill="#5AF0BD"></path>
        <path d="M15.8879238,7.66377131 L16.5205509,9.56165264 C13.032197,10.7238874 10.3207743,13.5858416 9.36878793,17.1650101 L7.43584028,16.6495574 C8.56091507,12.419631 11.7653237,9.03732152 15.8879238,7.66377131 Z M28.121333,9.84833372 C30.9483436,12.11288 32.8089911,15.5338126 32.9861247,19.3939808 L30.9882593,19.4872146 C30.8383771,16.2209184 29.2639831,13.3262831 26.8718972,11.4101285 L28.121333,9.84833372 Z M32.7660148,22.4680962 C31.7718252,27.641094 27.7114181,31.7234639 22.55,32.7499998 L22.1576923,30.7884613 C26.5250461,29.9198541 29.9607751,26.4655411 30.8020125,22.0883891 L32.7660148,22.4680962 Z M20,27 C16.1340068,27 13,23.8659932 13,20 C13,16.1340068 16.1340068,13 20,13 C23.8659932,13 27,16.1340068 27,20 C27,23.8659932 23.8659932,27 20,27 Z M20,25 C22.7614237,25 25,22.7614237 25,20 C25,17.2385763 22.7614237,15 20,15 C17.2385763,15 15,17.2385763 15,20 C15,22.7614237 17.2385763,25 20,25 Z" fill="#4221CC"></path>
    </g>
</svg>