<?xml version="1.0" encoding="UTF-8"?>
<svg width="40px" height="40px" viewBox="0 0 40 40" version="1.1" xmlns="http://www.w3.org/2000/svg" xmlns:xlink="http://www.w3.org/1999/xlink">
	<path class="fill fill-black" fill="black" d="M17,29 L9.5,29 C9.5,28.33 9.5,28 9.5,28 C10.83,28 11.83,27.5 12.5,26.5 L19.5,8 L21,7.5 L28,26.5 C28.68,27.5 29.5,28 30.5,28 C30.5,28 30.5,28.33 30.5,29 L22.5,29 C22.5,28.33 22.5,28 22.5,28 C24.17,28 24.83,27.33 24.5,26 L19.5,12 L14.5,26 C14.17,27.33 15,28 17,28 C17,28 17,28.33 17,29 Z" />
</svg>