<?xml version="1.0" encoding="UTF-8"?>
<svg width="40px" height="40px" viewBox="0 0 40 40" version="1.1" xmlns="http://www.w3.org/2000/svg" xmlns:xlink="http://www.w3.org/1999/xlink">
	<path class="fill fill-black" fill="#333333" d="M25,22.5 C30,23 34,24.6 34,26.5 C34,28.98 27.73,31 20,31 C12.27,31 6,28.98 6,26.5 C6,24.5807811 10,23 15,22.5 C18,23 22,23 25,22.5 Z M24,14.5 C28,15 31,16.32 31,18 C31,20.2 26.07,22 20,22 C13.92,22 9,20.2 9,18 C9,16.3 12,15 16,14.5 C19,15 21,15 24,14.5 Z M20,8 C24.42,8 28,9.34 28,11 C28,12.66 24.42,14 20,14 C15.58,14 12,12.66 12,11 C12,9.34 15.58,8 20,8 Z" />
</svg>