<?xml version="1.0" encoding="UTF-8"?>
<svg width="40px" height="40px" viewBox="0 0 40 40" version="1.1" xmlns="http://www.w3.org/2000/svg" xmlns:xlink="http://www.w3.org/1999/xlink">
	<polygon fill="#0B76FF" class="fill" points="20 26 27 26 20 13.5 20 6 34 30 20 30" />
	<polygon fill="#24C1FF" class="fill" points="20 26 13 26 20 13.5 20 6 6 30 20 30" />
	<polygon fill="#39FFF2" class="fill" points="20 16.5 20 24.5 15.5 24.5" />
	<polygon fill="#00E2C2" class="fill" points="20 16.5 20 24.5 24.5 24.5" />
	<polygon fill="#DDDDDD" opacity="0.5" class="fill" points="3 13 20 21 20 22 3 18" />
	<polygon fill="#FF51FF" opacity="0.5" class="fill" points="37 11 20 21 20 22 37 21 37 17.5 20 21.5 37 14.5" />
</svg>