<?xml version="1.0" encoding="UTF-8"?>
<svg width="40px" height="40px" viewBox="0 0 40 40" version="1.1" xmlns="http://www.w3.org/2000/svg" xmlns:xlink="http://www.w3.org/1999/xlink">
	<defs>
		<linearGradient x1="0%" y1="0%" x2="100%" y2="100%" id="btg-gradient">
			<stop stop-color="#FFD000" offset="0%" />
			<stop stop-color="#FE8300" offset="100%" />
		</linearGradient>
	</defs>
	<path d="M20,33 C27.1797017,33 33,27.1797017 33,20 C33,12.8202983 27.1797017,7 20,7 C12.8202983,7 7,12.8202983 7,20 C7,27.1797017 12.8202983,33 20,33 Z M20,30 C25.5228475,30 30,25.5228475 30,20 C30,14.4771525 25.5228475,10 20,10 C14.4771525,10 10,14.4771525 10,20 C10,25.5228475 14.4771525,30 20,30 Z" fill-rule="evenodd" fill="url(#btg-gradient)" />
	<circle fill="none" stroke="#001C6B" cx="20" cy="20" r="8" class="outline-black" />
	<path fill-rule="evenodd" d="M17,16.5 L16,16.5 L15,15 L18,15 L18,13.5 L19.5,13.5 L19.5,15 L20.5,15 L20.5,13.5 L22,13.5 C22,13.5 22,14 22,15 C23.5,15 24.5,16 24.5,17.5 C24.5,18.5 24.1666667,19.1666667 23.5,19.5 C24.4485128,19.8333333 24.9227691,20.6666667 24.9227691,22 C24.9227691,23.5 23.5,24.5 22.5,24.5 C22.1666667,24.5 22,24.5 22,24.5 L22,26 L20.5,26 L20.5,24.5 L19.5,24.5 L19.5,26 L18,26 L18,24.5 L15,24.5 L16,23 L17,23 L17,16.5 Z M18.5,20.5 L22.25,20.5 C22.9403559,20.5 23.5,21.0596441 23.5,21.75 L23.5,21.75 C23.5,22.4403559 22.9403559,23 22.25,23 L18.5,23 L18.5,20.5 Z M18.5,16.5 L21.75,16.5 C22.4403559,16.5 23,17.0596441 23,17.75 L23,17.75 C23,18.4403559 22.4403559,19 21.75,19 L18.5,19 L18.5,16.5 Z" fill="#001C6B" class="fill fill-black" />
</svg>