<?xml version="1.0" encoding="UTF-8"?>
<svg width="40px" height="40px" viewBox="0 0 40 40" version="1.1" xmlns="http://www.w3.org/2000/svg" xmlns:xlink="http://www.w3.org/1999/xlink">
	<circle fill="#F5A623" class="fill" cx="20" cy="20" r="13" />
	<path class="fill-bg fill-muted-bg" d="M13,25 C14.1045695,25 15,24.1045695 15,23 L15,17 C15,15.8954305 14.1045695,15 13,15 L13,13 L17,13 L17,11 L19,11 L19,13 L21,13 L21,11 L23,11 L23,13 C28,13 28,19 25,20 C28,21 29,27 23,27 L23,29 L21,29 L21,27 L19,27 L19,29 L17,29 L17,27 L13,27 L13,25 Z M19,21 L19,25 L21,25 C22.1045695,25 23,24.1045695 23,23 C23,21.8954305 22.1045695,21 21,21 L19,21 Z M19,15 L19,19 L21,19 C22.1045695,19 23,18.1045695 23,17 C23,15.8954305 22.1045695,15 21,15 L19,15 Z" fill="white" sroke="none" transform="translate(20.19, 20) rotate(-15) translate(-20.19, -20)" fill-rule="evenodd" />
</svg>