<?xml version="1.0" encoding="UTF-8"?>
<svg width="40px" height="40px" viewBox="0 0 40 40" version="1.1" xmlns="http://www.w3.org/2000/svg" xmlns:xlink="http://www.w3.org/1999/xlink">
	<path fill="#FA9300" class="fill" d="M13.3644098,10 C10.1310187,12.1498431 8,15.8260585 8,20 C8,24.1739415 10.1310187,27.8501569 13.3644098,30 L7,30 C6.44771525,30 6,29.5522847 6,29 L6,11 C6,10.4477153 6.44771525,10 7,10 L13.3644098,10 Z M26.6355902,10 L33,10 C33.5522847,10 34,10.4477153 34,11 L34,29 C34,29.5522847 33.5522847,30 33,30 L26.6355902,30 C29.8689813,27.8501569 32,24.1739415 32,20 C32,15.8260585 29.8689813,12.1498431 26.6355902,10 Z M20,30 C25.5228475,30 30,25.5228475 30,20 C30,14.4771525 25.5228475,10 20,10 C14.4771525,10 10,14.4771525 10,20 C10,25.5228475 14.4771525,30 20,30 Z" />
	<path fill="white" class="fill-bg fill-muted-bg" d="M14.5,23.5 L15.5,23.5 C16.0522847,23.5 16.5,23.0522847 16.5,22.5 L16.5,17.5 C16.5,16.9477153 16.0522847,16.5 15.5,16.5 L14.5,16.5 L14.5,15.5 L17.5,15.5 L17.5,13.5 L18.5,13.5 L18.5,15.5 L20.5,15.5 L20.5,13.5 L21.5,13.5 L21.5,15.5 L22.5,15.5 C25.5,15.5 25.5,19.5 23.6682093,20 C25.5,20.5 25.5,24.5 22.5,24.5 L21.5,24.5 L21.5,26.5 L20.5,26.5 L20.5,24.5 L18.5,24.5 L18.5,26.5 L17.5,26.5 L17.5,24.5 L14.5,24.5 L14.5,23.5 Z M18.5,20.5 L18.5,23.5 L21,23.5 C21.8284271,23.5 22.5,22.8284271 22.5,22 C22.5,21.1715729 21.8284271,20.5 21,20.5 L18.5,20.5 Z M18.5,16.5 L18.5,19.5 L21,19.5 C21.8284271,19.5 22.5,18.8284271 22.5,18 C22.5,17.1715729 21.8284271,16.5 21,16.5 L18.5,16.5 Z" />
</svg>