<?xml version="1.0" encoding="UTF-8"?>
<svg width="40px" height="40px" viewBox="0 0 40 40" version="1.1" xmlns="http://www.w3.org/2000/svg" xmlns:xlink="http://www.w3.org/1999/xlink">
    <!-- Generator: Sketch 52.2 (67145) - http://www.bohemiancoding.com/sketch -->
    <title>coin/bcd</title>
    <desc>Created with Sketch.</desc>
    <g id="coin/bcd" stroke="none" stroke-width="1" fill="none" fill-rule="evenodd">
        <g id="diamond" transform="translate(7.000000, 8.000000)" stroke="#979797" stroke-linecap="round" stroke-linejoin="round">
            <polygon id="Path-17" points="-9.05941988e-14 8 3 2 8 -2.66453526e-14 18 -2.66453526e-14 23 2 26 8 13 23"></polygon>
            <polyline id="Path-17" points="3 2 8 4 18 4 23 2"></polyline>
            <polyline id="Path-17" points="8 4 6 11 13 23"></polyline>
            <path d="M-4.57411886e-14,8 L6,11" id="Path-17"></path>
            <path d="M26,8 L20,11" id="Path-17"></path>
            <polyline id="Path-17" points="18 4 20 11 13 23"></polyline>
        </g>
        <path d="M16.5,21.5 C17.0522847,21.5 17.5,21.0522847 17.5,20.5 L17.5,17.5 C17.5,16.9477153 17.0522847,16.5 16.5,16.5 L16.5,15.5 L18.5,15.5 L18.5,14 L19.5,14 L19.5,15.5 L20.5,15.5 L20.5,14 L21.5,14 L21.5,15.5 C24.5,15.5 24.5,18.5 22.6682093,19 C24.5,19.5 24.5,22.5 21.5,22.5 L21.5,24 L20.5,24 L20.5,22.5 L19.5,22.5 L19.5,24 L18.5,24 L18.5,22.5 L16.5,22.5 L16.5,21.5 Z M19.5,19.5 L19.5,21.5 L21,21.5 C21.5522847,21.5 22,21.0522847 22,20.5 C22,19.9477153 21.5522847,19.5 21,19.5 L19.5,19.5 Z M19.5,16.5 L19.5,18.5 L21,18.5 C21.5522847,18.5 22,18.0522847 22,17.5 C22,16.9477153 21.5522847,16.5 21,16.5 L19.5,16.5 Z" id="B" fill="#F5A623" transform="translate(20.211385, 19.000000) rotate(-360.000000) translate(-20.211385, -19.000000) "></path>
    </g>
</svg>