<?xml version="1.0" encoding="UTF-8"?>
<svg width="40px" height="40px" viewBox="0 0 40 40" version="1.1" xmlns="http://www.w3.org/2000/svg" xmlns:xlink="http://www.w3.org/1999/xlink">
	<path fill="#EAB300" class="fill" fill-rule="evenodd" d="M17.5,28.5 C16.1666667,28.1666667 15.1666667,27.66 14.5,27 C14,26.5 12.5,26 13,27 C11.5,27 12,25 11,24 C8.72405529,21.7240553 9,19.825905 9,19 C9,18.7585924 9.5,17 8.5,18 C8.5,17 10,15 10.5,14.6111111 C10.5,14.6111111 10,14.7 9.5,15 C10,14.3888889 11.5,13 11.5,13 C11.5,13 13.5,13.5 13.5,13.5 C13,13.9 13.5,14.6111111 12,16 C12.5,16 12.7021445,16.7021445 13,17 C12.5,18 13.5,19.5 14.5,19.5 C15,21 16.0112073,21 17,20.7 C18,25 21,25 22,24 C23,23 23.5,21.5 25,21 C25,21 24.5,22 25,22 C25,22 26,21 26,21 C26,20.5 26,19.5 27,19 C26.5,20 28,20 28,19 C28,19 28,17.5 28.5,17 C28.8333333,17.66 29.1666667,17.66 29.5,17 C29.1666667,16 29.1666667,15.1666667 29.5,14.5 C29.8333333,15.1666667 30.1666667,15.1666667 30.5,14.5 C29.8333333,13.3 29.6666667,12.4666667 30,12 C30,12.3333333 30.1666667,12.5 30.5,12.5 C30.1666667,11.1666667 30.1666667,10.3333333 30.5,10 C31,11.5 32,11.5 32,12.5 C32.6666667,12.5 33.5,13.1666667 34.5,14.5 C34.5,13.5 34.66,13 35,13 C35,12.66 35.3333333,12.5 36,12.5 C35.6666667,12.5 35.5,12.6666667 35.5,13 C36,13.5 35.5,13.5 35.5,14.5 C36,13.5 36,13.5 36.5,13.5 C37,13.1 37.5,13.6867652 37.5,14 C37.5,14 37.1415684,13.6867652 37,14 C36.9411908,14.1301214 36.1056739,14.6952366 36,15 C35.8788233,15.3494735 35.8788233,16.0161401 36,17 L34,15.5 C33.6666667,15.5 33.3333333,15.5 33,15.5 C33,20 32.7496718,21.5629103 30,25 C28,27.5 24,29 22,29 C22,29.6666667 21.5,30.3333333 20.5,31 C20.8333333,30.3333333 20.8333333,30 20.5,30 C19.5,30 20,31.5 19,31.5 C19.5,30.5 18.5,31 18,31 C18.5,31.5 19.5,32 19,33 C19.3333333,33.4666667 19.1666667,33.9666667 18.5,34.5 C18.8333333,34.1666667 18.8333333,33.8333333 18.5,33.5 C18,33.5 17.5000294,33 17.5,32.5 C16.0112073,32.5 15.5,35.5 14.5,35 C14.5,35 14.5,35.3333333 14.5,36 C14.1666667,35.6666667 14,35.3333333 14,35 C14,33 15,33 15.5,32.5 C13,32 13,34 12,33 C12,33 12,33.3333333 12,34 C11.66,33.6666667 11.5,33.3333333 11.5,33 C11.5,31.6666667 12.6666667,31.1932059 15,31.5796176 C13.3333333,30.8598725 12.5,30.3333333 12.5,30 C12.5,30 12.1666667,30 11.5,30 C11.8333333,29.66 12.3333333,29.5 13,29.5 C14,29 15,30 15.5,31 C16,29.7222222 14,29.5 14.5,29 C14.1666667,28.6666667 13.8333333,28.5 13.5,28.5 C14.099684,28.299842 14.599684,28.299842 15,28.5 C15.6666667,28.5 16.1666667,29.1666667 16.5,30.5 L17.5,28.5 Z M21.5,17.5 C21.5,18 22,18.5 22.4998934,18 C22.5,17.5 22.3,17.2 22.299893,17.2 C23,17.2 23.1314191,18 23.5,17.5 C23.5,17.5 23.5,17 23.5,17 C24,17.5 25,18 25,18.5 C23.5,18 24.5,19 24,19 C23,18.4910331 24,20 23,20 C22.9979851,19.5 22.4998934,19 22,19.5 C21.3495867,18.8495867 21,18 21.5,17.5 Z M10.5,12.5 C8.83333333,14.8333333 7.83333333,16.6666667 7.5,18 C7,20 5,22.5 3,20 C2.54028408,20 5,20.5 5,19.5 C1.5,20 2,17 3,16 C3,19 5,18.5 6,18 C4,18 3,17 4,15.5 C5,17.5 7.5,17 8.5,12 C8.5,12 9.16666667,12.1666667 10.5,12.5 Z M25.5,11.5 C24.1666667,10.5 22.6666667,10 21,10 C19.5,10 18,10.5 18,10.5 C15.5,9 13,10 11,8.5 C11,8.5 12,7.5 12,7.5 C12.3333333,7.16666667 12.1666667,7 11.5,7 C11.8333333,6.33333333 12.5,6.16666667 13.5,6.5 C13.5,6.5 14.5,6 14.5,6 C14.5,5.66666667 14.3333333,5.5 14,5.5 C14.6666667,4.83333333 15.3333333,4.83333333 16,5.5 C16,5.5 18,5 16.5,4.5 C17.5,4.16666667 18.3333333,4.33333333 19,5 C20,5 20.1666667,4.66666667 19.5,4 C20.5,4 21,4.5 21.5,5 C21.5,5 21.8333333,5 22.5,5 L24,5.5 L25,6 L26,6.5 L27,7 L28.5,7.5 L30,9 C29.66,10 29.66,10.8333333 30,11.5 C29,11.5 29,13 29,14 C28.5,14.5 28,15.5 28.5,16 C28,16 27.5,16.5 27,17.5 C27,16 27,15 26.5,14 C28,12 27.5,10 26.5,10 C25.8333333,10 25.5,10.5 25.5,11.5 Z M14,14.5 C14.5,13.5 16,13.5 16,13.5 C15,12.5 13,12.5 11,12 C9.66666667,11.6666667 8.5,10.6666667 7.5,9 C7.83333333,9 8,9 8,9 C11,12.5 14,10.5 16.5,12 C17,12 17.5000294,12 17.5,12 C16.0112073,10.5 13,11 11,10 C9.66666667,9.33333333 9,8.66666667 9,8 C9.33333333,8 9.5,8 9.5,8 C12,11.5 16,9 18.5,12 C19.5,11.5 20,12.5 19.5,13 C19,13.5 19.5,14 20,14 C21,13.5 21,15 22,14 C22.4196362,13.7901819 23.44891,13.8730507 23.5,14 C23.5411926,14.1023559 24.6788574,15.7750587 24.5,16 C24.2680037,16.2917717 23.1013371,16.4584383 21,16.5 L20.5,18 L20,19 C19.66,18.3333333 19.5,17.66 19.5,17 C18.5,17.5 19,16.5 18,17 C18,15.5 16.5,16.5 17.5,17 C18,18 18.5,18 19,17.5 C19.5,19 19.5,19.5 18,20 C18.5,19.5 18.5,19 18.5,19 C17,19 16,20.7 15,19 C15,19 14.5,19 14.5,19 C14.5,18.66 14.66,18.3333333 15,18 C14.6666667,17.6666667 14.1666667,17.5 13.5,17.5 C13.5,17 14,16.5 14.5,16.5 C14.5,16.5 14,16 13.5,16 C14.5,14 16,15.5 16.5,16 C16,14.5 15,14.5 14,14.5 Z M17,14.5 C18,16 18.5,14.5 19,14.5 C18.5,13.5 17.5,14.5 17,14.5 Z M22,15 C22,15.5 23,15.5 23.5,15.5 C24,15 23,14.5 22,15 Z" />
</svg>