<?xml version="1.0" encoding="UTF-8"?>
<svg width="40px" height="40px" viewBox="0 0 40 40" version="1.1" xmlns="http://www.w3.org/2000/svg" xmlns:xlink="http://www.w3.org/1999/xlink">
    <path d="M14,12 L14,10 L23,10 C28,10 29,16 25.5,18 C29,19 30,26 23,26 L14,26 L14,24 C15.3807119,24 16.5,22.8807119 16.5,21.5 C16.5,20.1192881 15.3807119,19 14,19 L14,17 C15.3807119,17 16.5,15.8807119 16.5,14.5 C16.5,13.1192881 15.3807119,12 14,12 Z M19,19 L19,24 L22.5,24 C23.8807119,24 25,22.8807119 25,21.5 C25,20.1192881 23.8807119,19 22.5,19 L19,19 Z M19,12 L19,17 L22,17 C23.3807119,17 24.5,15.8807119 24.5,14.5 C24.5,13.1192881 23.3807119,12 22,12 L19,12 Z" fill="#282828" class="fill fill-black" />
    <rect fill="#00A43C" class="fill" x="14" y="29" width="14" height="2" />
</svg>