<?xml version="1.0" encoding="UTF-8"?>
<svg width="40px" height="40px" viewBox="0 0 40 40" version="1.1" xmlns="http://www.w3.org/2000/svg" xmlns:xlink="http://www.w3.org/1999/xlink">
    <!-- Generator: Sketch 52.4 (67378) - http://www.bohemiancoding.com/sketch -->
    <title>coin/bts</title>
    <desc>Created with Sketch.</desc>
    <g id="coin/bts" stroke="none" stroke-width="1" fill="none" fill-rule="evenodd">
        <path d="M25.5,31.5 C23.9667267,32.7905342 22.1334252,33.8893751 20,34 L20,28 C20.4909232,27.9297789 21.0969057,27.7518681 21.5,27.5 L25.5,31.5 Z M22.4888889,26.5 C22.7659625,26.0797761 22.9255606,25.5204139 23,25 L29,25 C28.8873189,27.1730793 27.8324679,29.0095379 26.5,30.5555556 L22.4888889,26.5 Z M10,3.5 L18.9333333,11 L19,21 C18.4795861,21.0744394 17.9202239,21.2229264 17.5,21.5 L9.98506641,14 L10,3.5 Z M16.5,22.5 C16.2388096,22.9096208 16.1072448,23.4980354 16.0354444,24 L10,24 L10,16 L16.5,22.5 Z M17.5,27.5 C17.9263314,27.7866721 18.4686442,27.9239955 19,28 L19,34 C16.8110799,33.8864975 15.0509029,32.8493572 13.5,31.5 L17.5,27.5 Z M12.5,30.5817396 C11.2250947,29.0534444 10.1098522,27.1185239 10,25 L16,25 C16.0690413,25.4826752 16.2550052,26.1018683 16.5,26.5 L12.5,30.5817396 Z M21.5,21.5 C21.0909007,21.2395668 20.5010738,21.071673 20,21 L20,15 C22.1699995,15.1125214 23.9549458,16.1708066 25.5,17.5 L21.5,21.5 Z M26.5,18.5 C27.8334184,20.0462964 28.8872726,21.8260272 29,24 L23,24 C22.9247605,23.4739927 22.7708527,22.923363 22.4888889,22.5 L26.5,18.5 Z" id="b" fill="#35BAEB"></path>
    </g>
</svg>