<?xml version="1.0" encoding="UTF-8"?>
<svg width="40px" height="40px" viewBox="0 0 40 40" version="1.1" xmlns="http://www.w3.org/2000/svg" xmlns:xlink="http://www.w3.org/1999/xlink">
	<path fill="#000000" d="M20,6 C27.7319865,6 34,12.2680135 34,20 C34,27.7319865 27.7319865,34 20,34 C12.2680135,34 6,27.7319865 6,20 C6,12.2680135 12.2680135,6 20,6 Z M20,8 C13.372583,8 8,13.372583 8,20 C8,26.627417 13.372583,32 20,32 C26.627417,32 32,26.627417 32,20 C32,13.372583 26.627417,8 20,8 Z M22,31 L21.948,30.999 L21.9805957,30.9999593 C21.9932718,30.9999856 22,31 22,31 Z M20.5,11 C20.8333333,12.3333333 21,13 21,13 C16.5,13 12,16.5 12,22 C12,27.4051724 17.794887,30.8787158 21.7913609,30.9968864 L21.948,30.999 L21.4550086,30.9990129 C20.9276215,30.9981907 20.1855256,30.9974332 20.0286318,30.9993487 L20,31 C16.0001437,30.7999713 10,28 10,22 C10,14.0002765 16.7894072,11.1300228 20.5,11 Z M21,13.4998853 C21.875,13.4998853 22.75,13.6275188 23.625,13.8827856 L24,14 L23.5,16 C22.8333333,15.6666667 22,15.5 21,15.5 C17.5,15.5 14.5,18 14.5,22 C14.5,25.9245283 18.3504806,29.3677465 22.7458405,29.4962822 L23,29.5 L26,29.5 C24.3933365,30.021022 23.3933365,30.354399 23,30.5001311 C21,30.5001311 12.5,29 12.5,22 C12.5,17 17,13.4998853 21,13.4998853 Z M21,16 C23,16 24.6666667,17 26,19 L26,19 L24,20 C22.9851139,18.6666667 21.9851139,18 21,18 C18.8253906,18 17,19.8253906 17,22 C17,25 20,27.5 25,27.5 C26.6666667,27.5 28,27.1666667 29,26.5 L29,26.5 L26.5,29.0000724 L26.5,29.0000724 L23,29.0000724 C21.5,29.0000724 15,27.5 15,22 C15,18.5 18,16 21,16 Z" fill-rule="evenodd" class="fill fill-black" />
</svg>