<?xml version="1.0" encoding="UTF-8"?>
<svg width="40px" height="40px" viewBox="0 0 40 40" version="1.1" xmlns="http://www.w3.org/2000/svg" xmlns:xlink="http://www.w3.org/1999/xlink">
	<path fill="#F5B800" class="fill" d="M26,22 L29,25 L20,34 L11,25 L14,22 L20,28 L26,22 Z M20,16 L24,20 L20,24 L16,20 L20,16 Z M31,17 L34,20 L31,23 L28,20 L31,17 Z M9,17 L12,20 L9,23 L6,20 L9,17 Z M20,6 L29,15 L26,18 L20,12 L14,18 L11,15 L20,6 Z" />
	<g transform="translate(23, 25)">
		<rect fill="none" class="fill-black fill-muted-bg" width="12" height="9" />
		<path fill="#FF4000" class="fill" d="M12,6 L12,8 L0,8 L0,6 L12,6 Z M12,3 L12,5 L6,5 L6,3 L12,3 Z M12,0 L12,2 L6,2 L6,0 L12,0 Z" />
		<rect fill="#0085CB" class="fill" id="blue" x="0" y="0" width="6" height="5" />
	</g>
</svg>