<?xml version="1.0" encoding="UTF-8"?>
<svg width="40px" height="40px" viewBox="0 0 40 40" version="1.1" xmlns="http://www.w3.org/2000/svg" xmlns:xlink="http://www.w3.org/1999/xlink">
	<path fill="#221D71" class="fill fill-black" d="M13,9 L27,9 C29.21,9 31,10.8 31,13 L31,27 C31,29.21 29.21,31 27,31 L13,31 C10.8,31 9,29.21 9,27 L9,13 C9,10.8 10.8,9 13,9 Z M23.5,25.5 C24.6,25.5 25.5,24.6 25.5,23.5 C25.5,22.4 24.6,21.5 23.5,21.5 C22.4,21.5 21.5,22.4 21.5,23.5 C21.5,24.6 22.4,25.5 23.5,25.5 Z M16.5,18.5 C17.6,18.5 18.5,17.6 18.5,16.5 C18.5,15.4 17.6,14.5 16.5,14.5 C15.4,14.5 14.5,15.4 14.5,16.5 C14.5,17.6 15.4,18.5 16.5,18.5 Z M23.5,18.5 C24.6,18.5 25.5,17.6 25.5,16.5 C25.5,15.4 24.6,14.5 23.5,14.5 C22.4,14.5 21.5,15.4 21.5,16.5 C21.5,17.6 22.4,18.5 23.5,18.5 Z M16.5,25.5 C17.6,25.5 18.5,24.6 18.5,23.5 C18.5,22.4 17.6,21.5 16.5,21.5 C15.4,21.5 14.5,22.4 14.5,23.5 C14.5,24.6 15.4,25.5 16.5,25.5 Z" />
</svg>