<?xml version="1.0" encoding="UTF-8"?>
<svg width="40px" height="40px" viewBox="0 0 40 40" version="1.1" xmlns="http://www.w3.org/2000/svg" xmlns:xlink="http://www.w3.org/1999/xlink">
	<defs>
		<linearGradient x1="54.35%" y1="10.4%" x2="59.8%" y2="39.8%" id="bithumb-gradient">
			<stop stop-color="#E80F14" />
			<stop stop-color="#FF6A00" offset="100%" />
		</linearGradient>
		<path d="M12.5,12 C19.1,12 23.6,12 26,12 C29.6,12 31,16 31,19 C31,22 28,32 18,32 C13.5,32 10.11,29.418242 12,23 C16,23 18,23 19,23 C18.6148215,24.3 19.6455982,25 20.5,25 C22,25 23.07,23.7 23.5,22 C23.9772518,20.09 23.42,19 22,19 C19.05,19 16.1,19 13.15146,19 L13.15146,19 C12.15,19 11.15146,18.1 11.15146,17 C11.15146,16.8 11.18,16.63 11.23,16.45 L12.5,12 Z" id="bithumb" />
	</defs>

	<use fill="url(#bithumb-gradient) #FF6A00" class="fill" xlink:href="#bithumb" />
	<path fill="#FF6A00" class="fill" d="M17,6 L21.32,6 C22.43,6 23.32,6.9 23.32,8 C23.32,8.2 23.3,8.38 23.25,8.56 L19,23 L12,23 L17,6 Z" />
</svg>