<?xml version="1.0" encoding="UTF-8"?>
<svg width="40px" height="40px" viewBox="0 0 40 40" version="1.1" xmlns="http://www.w3.org/2000/svg" xmlns:xlink="http://www.w3.org/1999/xlink">
    <!-- Generator: Sketch 52.4 (67378) - http://www.bohemiancoding.com/sketch -->
    <title>coin/bcn</title>
    <desc>Created with Sketch.</desc>
    <g id="coin/bcn" stroke="none" stroke-width="1" fill="none" fill-rule="evenodd">
        <circle id="O" fill="#F04086" cx="20" cy="20" r="13"></circle>
        <path d="M12.5,19 L15.5,19 L15.5,13.5 C17.9353265,13.5 20.1019931,13.5 22,13.5 C25,13.5 26.2,15 26.2,17 C26.2,18.3333333 25.440923,19.3333333 23.9227691,20 C25.640923,20.3333333 26.5,21.3333333 26.5,23 C26.5,24.9771175 25.5,26.5 22,26.5 C21.3333333,26.5 19.1666667,26.5 15.5,26.5 L15.5,23 L18.5,23 L18.5,24.5 C19.5,24.5 20.5,24.5 21.5,24.5 C23,24.5 23.7,23.5 23.7,22.7 C23.7,22 23,21 21.5,21 C20.5,21 17.5,21 12.5,21 L12.5,19 Z M18.5,15.5 L18.5,19 C19.5,19 20.5,19 21.5,19 C23,19 23.5,18 23.5,17 C23.5,16.5 23,15.5 21.5,15.5 C20.5,15.5 19.5,15.5 18.5,15.5 Z" id="B-2" fill="#FFFFFF"></path>
    </g>
</svg>