<?xml version="1.0" encoding="UTF-8"?>
<svg width="40px" height="40px" viewBox="0 0 40 40" version="1.1" xmlns="http://www.w3.org/2000/svg" xmlns:xlink="http://www.w3.org/1999/xlink">
    <!-- Generator: Sketch 52.4 (67378) - http://www.bohemiancoding.com/sketch -->
    <title>coin/btm</title>
    <desc>Created with Sketch.</desc>
    <g id="coin/btm" stroke="none" stroke-width="1" fill="none" fill-rule="evenodd">
        <g id="1" transform="translate(7.000000, 7.000000)">
            <polygon id="0" fill="#5B5B5B" points="16 11 18.5 8.5 10 -1.77635684e-15 2 2 -1.77635684e-15 10 1 11 4.5 7.5 5 5 9 4"></polygon>
            <polygon id="2" fill="#363333" points="16 11 10 0 5 5 9 4"></polygon>
            <polygon id="3" fill="#363333" points="4.5 7.5 1 11 0 10"></polygon>
            <polygon id="0" fill="#777777" points="4.5 7.5 2 2 8.43769499e-15 10"></polygon>
        </g>
        <g id="1" transform="translate(27.500000, 16.500000) rotate(90.000000) translate(-27.500000, -16.500000) translate(18.000000, 11.000000)">
            <polygon id="0" fill="#5B5B5B" points="16 11 18.5 8.5 10 -1.77635684e-15 2 2 -1.77635684e-15 10 1 11 4.5 7.5 5 5 9 4"></polygon>
            <polygon id="2" fill="#363333" points="16 11 10 0 5 5 9 4"></polygon>
            <polygon id="3" fill="#363333" points="4.5 7.5 1 11 0 10"></polygon>
            <polygon id="0" fill="#777777" points="4.5 7.5 2 2 8.43769499e-15 10"></polygon>
        </g>
        <g id="1" transform="translate(23.500000, 27.500000) rotate(180.000000) translate(-23.500000, -27.500000) translate(14.000000, 22.000000)">
            <polygon id="0" fill="#5B5B5B" points="16 11 18.5 8.5 10 -1.77635684e-15 2 2 -1.77635684e-15 10 1 11 4.5 7.5 5 5 9 4"></polygon>
            <polygon id="2" fill="#363333" points="16 11 10 0 5 5 9 4"></polygon>
            <polygon id="3" fill="#363333" points="4.5 7.5 1 11 0 10"></polygon>
            <polygon id="0" fill="#777777" points="4.5 7.5 2 2 8.43769499e-15 10"></polygon>
        </g>
        <g id="1" transform="translate(12.500000, 23.500000) rotate(270.000000) translate(-12.500000, -23.500000) translate(3.000000, 18.000000)">
            <polygon id="0" fill="#5B5B5B" points="16 11 18.5 8.5 10 -1.77635684e-15 2 2 -1.77635684e-15 10 1 11 4.5 7.5 5 5 9 4"></polygon>
            <polygon id="2" fill="#363333" points="16 11 10 0 5 5 9 4"></polygon>
            <polygon id="3" fill="#363333" points="4.5 7.5 1 11 0 10"></polygon>
            <polygon id="0" fill="#777777" points="4.5 7.5 2 2 8.43769499e-15 10"></polygon>
        </g>
    </g>
</svg>