<?xml version="1.0" encoding="UTF-8"?>
<svg width="40px" height="40px" viewBox="0 0 40 40" version="1.1" xmlns="http://www.w3.org/2000/svg" xmlns:xlink="http://www.w3.org/1999/xlink">
	<circle fill="#00CBCA" class="fill" cx="34.3" cy="20" r="1" />
	<circle fill="#00CBCA" class="fill" cx="27.1" cy="7.7" r="1" />
	<circle fill="#00CBCA" class="fill" cx="12.9" cy="7.7" r="1" />
	<circle fill="#00CBCA" class="fill" cx="27.1" cy="32.3" r="1" />
	<circle fill="#00CBCA" class="fill" cx="12.9" cy="32.3" r="1" />
	<circle fill="#00CBCA" class="fill" cx="5.7" cy="20" r="1" />
	<circle fill="#00CBCA" class="fill" cx="31.2" cy="13.5" r="1" />
	<circle fill="#00CBCA" class="fill" cx="20" cy="7.1" r="1" />
	<circle fill="#00CBCA" class="fill" cx="20" cy="32.9" r="1" />
	<circle fill="#00CBCA" class="fill" cx="8.8" cy="13.5" r="1" />
	<circle fill="#00CBCA" class="fill" cx="31.2" cy="26.5" r="1" />
	<circle fill="#00CBCA" class="fill" cx="8.8" cy="26.5" r="1" />
	<circle fill="#00CBCA" class="fill" cx="30.5" cy="20" r="1" />
	<circle fill="#00CBCA" class="fill" cx="25.2" cy="11" r="1" />
	<circle fill="#00CBCA" class="fill" cx="14.8" cy="11" r="1" />
	<circle fill="#00CBCA" class="fill" cx="25.2" cy="29" r="1" />
	<circle fill="#00CBCA" class="fill" cx="14.8" cy="29" r="1" />
	<circle fill="#00CBCA" class="fill" cx="9.5" cy="20" r="1" />
	<circle fill="#00CBCA" class="fill" cx="20" cy="11.9" r="1.2" />
	<circle fill="#00CBCA" class="fill" cx="20" cy="28.1" r="1.2" />
	<circle fill="#00CBCA" class="fill" cx="27" cy="24.1" r="1.2" />
	<circle fill="#00CBCA" class="fill" cx="13" cy="24.1" r="1.2" />
	<circle fill="#00CBCA" class="fill" cx="27" cy="15.9" r="1.2" />
	<circle fill="#00CBCA" class="fill" cx="13" cy="15.9" r="1.2" />
	<circle fill="#00CBCA" class="fill" cx="24.8" cy="20" r="2" />
	<circle fill="#00CBCA" class="fill" cx="22.4" cy="15.9" r="2" />
	<circle fill="#00CBCA" class="fill" cx="17.6" cy="15.9" r="2" />
	<circle fill="#00CBCA" class="fill" cx="22.4" cy="24.1" r="2" />
	<circle fill="#00CBCA" class="fill" cx="17.6" cy="24.1" r="2" />
	<circle fill="#00CBCA" class="fill" cx="15.2" cy="20" r="2" />
</svg>