<?xml version="1.0" encoding="UTF-8"?>
<svg width="40px" height="40px" viewBox="0 0 40 40" version="1.1" xmlns="http://www.w3.org/2000/svg" xmlns:xlink="http://www.w3.org/1999/xlink">
	<path fill="none" stroke="#1124FF" class="outline" stroke-width="2" stroke-linecap="round" stroke-linejoin="round" d="M25,19.5 L28.5,16.5 C28.5,16.16 28.5,15.33 28.5,14 C28.5,12 27,10.5 25.5,10 C24,9.5 20.5,9 19,9 C17.5,9 15,10 15,12 C15,14 15,20.5 15,23 C15,25.5 16.5,26.5 18,27 C19.5,27.5 23,28 25,28 C27,28 28.5,25.5 28.5,24 C28.5,23 28.5,21.83 28.5,20.5 L25,23.5 C25,24.5 25,25.66 25,27 C25,29 23,31.5 21,31.5 C19,31.5 15.5,30.5 14,30 C12.5,29.5 11,28 11,26 C11,24 11,18 11,16 C11,14 13.5,12 15,12 C16.5,12 20.5,12.5 22,13 C23.5,13.5 25,15 25,16.5 C25,17.5 25,18.5 25,19.5 Z" />
</svg>