<?xml version="1.0" encoding="UTF-8"?>
<svg width="40px" height="40px" viewBox="0 0 40 40" version="1.1" xmlns="http://www.w3.org/2000/svg" xmlns:xlink="http://www.w3.org/1999/xlink">
    <defs>
        <linearGradient x1="29.0593773%" y1="21.5512776%" x2="72.3972691%" y2="78.0985627%" id="linearGradient-1">
            <stop stop-color="#D09E30" offset="0%"></stop>
            <stop stop-color="#F0E859" offset="38.9382604%"></stop>
            <stop stop-color="#0F5678" offset="100%"></stop>
        </linearGradient>
        <path d="M20,31 C18,31 11,24.5 9,22 C7,19.5 7.5,18 8.5,17.5 C8,15 9.5,14 11,14 C11,12.5 12,11.5 13.5,11.5 C14,10 15.5,9.5 17.5,9.5 C19,8 21,8 22.5,9.5 C24.5,9.5 25,10 25.5,11.5 C27,11.5 29,12.5 29,14 C30.5319171,15.5319171 31.02266,15.5906402 31.5,17.5 C32.02266,19.5906402 33.5,18.5 31,22 C28.5,25.5 22,31 20,31 Z" id="path-2"></path>
    </defs>
    <g id="clams" stroke="none" stroke-width="1" fill="none" fill-rule="evenodd">
        <g id="Path" fill-rule="nonzero">
            <use fill-opacity="0.5" fill="#4A4A4A" xlink:href="#path-2"></use>
            <use fill="url(#linearGradient-1)" xlink:href="#path-2"></use>
        </g>
    </g>
</svg>