<?xml version="1.0" encoding="UTF-8"?>
<svg width="40px" height="40px" viewBox="0 0 40 40" version="1.1" xmlns="http://www.w3.org/2000/svg" xmlns:xlink="http://www.w3.org/1999/xlink">
	<path class="fill" fill="#00D395" d="M27.5,29 C27.5,23.66 27.5,20.66 27.5,20 C27.5,19.33 27,18.66 26,18 L18.5,13.5 C18.5,11.17 18.5,9.5 18.5,8.5 C18.5,7.5 19,7.17 20,7.5 L28.5,12.5 C29.5,13.17 30,13.83 30,14.5 C30,15.5 30,25.8623071 30,26.5 C30,27.17 29.66,27.73 29,28.2 L27.5,29 Z M23,31.5 C23,28.5 23,26.66 23,26 C23,25.33 22.66,24.83 22,24.5 L14,20 C14,18 14,16.33 14,15 C14,13.66 14.66,13.33 16,14 L24.5,19 C25.5,19.66 26,20.33 26,21 C26,22 26,28.3773524 26,29 C26,29.66 25.66,30.17 25,30.5 L23,31.5 Z M10,25 C10,23.5 10,23 10,22 C10,20.33 10.5,19.83 11.5,20.5 L20,25.5 C21,26.17 21.5,26.83 21.5,27.5 C21.5,28.26 21.5,30 21.5,31.5 C21.5,32.5 21,32.83 20,32.5 L11,27 C10.33,26.66 10,26 10,25 Z"/>
</svg>