<?xml version="1.0" encoding="UTF-8"?>
<svg width="40px" height="40px" viewBox="0 0 40 40" version="1.1" xmlns="http://www.w3.org/2000/svg" xmlns:xlink="http://www.w3.org/1999/xlink">
	<polygon class="fill" fill="#092D74" fill-rule="nonzero" points="21 6 33 13 33 27 21 34 9 27 9 13" />
	<path fill="white" d="M27,18 L24,20 L24,23 L22,25 L22,26 L24,28 L26,28 L30,20.5 L27,18 Z M15,18 L18,20 L18,23 L20,25 L20,26 L18,28 L16,28 L12,20.5 L15,18 Z M18,17.5 L24,17.5 L23,20 L23.5,23 L18.5,23 L19,20 L18,17.5 Z M16.5,12 L25.5,12 L26.5,16.5 L15.5,16.5 L16.5,12 Z"/>
</svg>