<?xml version="1.0" encoding="UTF-8"?>
<svg width="40px" height="40px" viewBox="0 0 40 40" version="1.1" xmlns="http://www.w3.org/2000/svg" xmlns:xlink="http://www.w3.org/1999/xlink">
	<polygon fill="#16BD7D" class="fill" points="22 9 28 9 31 14 28 19 22 19 19 14" />
	<polygon fill="#16BD7D" class="fill" points="22 21 28 21 31 26 28 31 22 31 19 26" />
	<polygon fill="#16BD7D" class="fill" points="12 15 18 15 21 20 18 25 12 25 9 20" />
	<polygon fill="none" stroke="#16BD7D" class="outline" points="29.5 20 33 14 29 7.5 21 7.5 17.5 13.5 11 13.5 7 20 11 26.5 17.5 26.5 21 32.5 29 32.5 33 26" />
</svg>