<?xml version="1.0" encoding="UTF-8"?>
<svg width="40px" height="40px" viewBox="0 0 40 40" version="1.1" xmlns="http://www.w3.org/2000/svg" xmlns:xlink="http://www.w3.org/1999/xlink">
	<defs>
		<linearGradient x1="0%" y1="0%" x2="100%" y2="0%" id="cnx-gradient">
			<stop stop-color="#2F4693"/>
			<stop stop-color="#4884C4" offset="100%"/>
		</linearGradient>
	</defs>
	<path fill="#2F4693" d="M19,7 C26.18,7 32,12.82 32,20 C32,27.18 26.18,33 19,33 C11.82,33 6,27.18 6,20 C6,12.82 11.82,7 19,7 Z M19,12 C14.58,12 11,15.58 11,20 C11,24.42 14.58,28 19,28 C23.42,28 27,24.42 27,20 C27,15.58 23.42,12 19,12 Z"/>

	<path transform="translate(11.5, 24) rotate(-90) translate(-11.5, -24) translate(2.5, 16.5)" fill="url(#cnx-gradient)" d="M11.5,0 C14.5,1.33 16.6,3.16 18,5.5 C16.6,5.83 14.6,7 12,9 L12,7.06 C9.06,7.43 6.62,9.39 5.56,12.05 L3.05,6.62 C5.2,4.07 8.32,2.36 11.84,2.05 L11.5,0 Z"/>
	<path transform="translate(23, 27.5) rotate(-180) translate(-23, -27.5) translate(14, 20)" fill="url(#cnx-gradient)" d="M11.5,0 C14.5,1.33 16.6,3.16 18,5.5 C16.6,5.83 14.6,7 12,9 L12,7.06 C9.06,7.43 6.62,9.39 5.56,12.05 L3.05,6.62 C5.2,4.07 8.32,2.36 11.84,2.05 L11.5,0 Z"/>
	<path transform="translate(26.5, 16) rotate(-270) translate(-26.5, -16) translate(17.5, 8.5)" fill="url(#cnx-gradient)" d="M11.5,0 C14.5,1.33 16.6,3.16 18,5.5 C16.6,5.83 14.6,7 12,9 L12,7.06 C9.06,7.43 6.62,9.39 5.56,12.05 L3.05,6.62 C5.2,4.07 8.32,2.36 11.84,2.05 L11.5,0 Z"/>
	<path transform="translate(6, 5)" fill="url(#cnx-gradient)" d="M11.5,0 C14.5,1.33 16.6,3.16 18,5.5 C16.6,5.83 14.6,7 12,9 L12,7.06 C9.06,7.43 6.62,9.39 5.56,12.05 L3.05,6.62 C5.2,4.07 8.32,2.36 11.84,2.05 L11.5,0 Z"/>
</svg>