<?xml version="1.0" encoding="UTF-8"?>
<svg width="40px" height="40px" viewBox="0 0 40 40" version="1.1" xmlns="http://www.w3.org/2000/svg" xmlns:xlink="http://www.w3.org/1999/xlink">
	<path d="M27.92,23.84 C26.56,25.68 24.4,26.8 22.08,26.8 C18.08,26.8 14.88,23.6 14.88,19.6 C14.88,15.68 18.08,12.48 22.08,12.48 C24.4,12.48 26.56,13.6 27.92,15.44 L28,15.6 L28.96,14.64 L28.88,14.56 C27.28,12.4 24.72,11.2 22.08,11.2 C17.36,11.12 13.6,14.96 13.6,19.6 C13.6,24.32 17.44,28.08 22.08,28.08 C24.72,28.08 27.28,26.8 28.88,24.72 L28.96,24.64 L28,23.68 L27.92,23.84 Z" fill="black" class="fill fill-black" />
	<path d="M12.24,20 L12.24,20.32 C12.56,25.44 16.88,29.44 22,29.44 C24.1978947,29.44 26.2521884,28.7219945 27.9588162,27.4220265 L28.24,27.2 L28.32,27.12 L29.2,28.08 L29.12,28.16 C27.12,29.84 24.64,30.8 22,30.8 C19.2,30.8 16.48,29.68 14.4,27.76 C12.4833333,25.8433333 11.2279167,23.3388889 10.9858044,20.6691319 L10.96,20.32 L10.96,20 L12.24,20 Z M29.84,25.52 L30.8,26.56 L30.72,26.64 C30.56,26.88 30.32,27.2 30.08,27.44 L30.08,27.44 L30,27.52 L29.04,26.56 L29.12,26.48 C29.36,26.16 29.6,25.92 29.76,25.68 L29.76,25.68 L29.84,25.52 Z M22.08,8.48 C24.5236364,8.48 26.8943802,9.35471074 28.9139144,10.8953944 L29.2,11.12 L29.36,11.28 L28.4,12.24 L28.32,12.16 C26.56,10.72 24.4,9.92 22.08,9.92 C17.0514286,9.92 12.7945408,13.7784184 12.3409512,18.7668021 L12.32,19.04 L12.32,19.28 L11.04,19.28 L11.04,18.96 C11.2,16.08 12.4,13.52 14.48,11.52 C16.56,9.52 19.28,8.48 22.08,8.48 Z M30,11.84 L30.08,11.92 C30.26,12.1 30.395,12.325 30.5525,12.5275 L30.72,12.72 L30.8,12.88 L29.84,13.84 L29.76,13.68 C29.632,13.424 29.4528,13.2192 29.26336,13.02464 L29.12,12.88 L29.04,12.8 L30,11.84 Z" fill="black" fill-rule="nonzero" class="fill fill-black" />
	<path d="M31.52,27.44 C29.2,30.24 25.76,31.92 22.08,31.92 C15.28,31.92 9.84,26.4 9.84,19.6 C9.84,12.8 15.28,7.36 22.08,7.36 C25.76,7.36 29.2,8.96 31.52,11.84 L31.6,12 L32.56,11.04 L32.48,10.96 C29.92,7.84 26.08,6.08 22.08,6.08 C14.56,6.08 8.48,12.16 8.48,19.68 C8.48,27.2 14.56,33.28 22.08,33.28 C26.08,33.28 29.92,31.52 32.48,28.4 L32.56,28.32 L31.6,27.36 L31.52,27.44 Z" fill="black" class="fill fill-black" />
</svg>