<?xml version="1.0" encoding="UTF-8"?>
<svg width="40px" height="40px" viewBox="0 0 40 40" version="1.1" xmlns="http://www.w3.org/2000/svg" xmlns:xlink="http://www.w3.org/1999/xlink">
    <path stroke="none" d="M28,13 L33,13 L33,16 L30.7692308,16 L28,13 Z M25,13 L27.7692308,16 L20.5,16 C18.5670034,16 17,17.5670034 17,19.5 C17,21.4329966 18.5670034,23 20.5,23 L27.7692308,23 L25,26 L20.5,26 C16.9101491,26 14,23.0898509 14,19.5 C14,15.9101491 16.9101491,13 20.5,13 L25,13 Z M28,26 L30.7692308,23 L33,23 L33,26 L28,26 Z M29.6153846,18 L31,19.5 L29.6153846,21 L20.5,21 C19.6715729,21 19,20.3284271 19,19.5 C19,18.6715729 19.6715729,18 20.5,18 L29.6153846,18 Z M33,11 L20.5,11 C15.8055796,11 12,14.8055796 12,19.5 C12,24.1944204 15.8055796,28 20.5,28 L33,28 L33,31 L20.5,31 C14.1487254,31 9,25.8512746 9,19.5 C9,13.1487254 14.1487254,8 20.5,8 L33,8 L33,11 Z" fill="#00BDB6" class="fill" />
</svg>