<?xml version="1.0" encoding="UTF-8"?>
<svg width="40px" height="40px" viewBox="0 0 40 40" version="1.1" xmlns="http://www.w3.org/2000/svg" xmlns:xlink="http://www.w3.org/1999/xlink">
	<path fill="#00D14F" class="fill" d="M20,7 C27.1797017,7 33,12.8202983 33,20 C33,20.6804202 32.9477259,21.348631 32.8469746,22 L18,22 L20,18 L28.5,18 L28.5,18 C27.5,14 24.11,11.5 20,11.5 C15.0294373,11.5 11.5,15.5 11.5,20 C11.5,24.5 15.0294373,28.5 20,28.5 C22.6745028,28.5 24.8515401,27.35 26.5,25.5 C26.5,25.5 27.75,26.33 30.25,28 C27.87,31.04 24.1631281,33 20,33 C12.82,33 7,27.18 7,20 C7,12.8202983 12.82,7 20,7 Z" />
</svg>