<?xml version="1.0" encoding="UTF-8"?>
<svg width="40px" height="40px" viewBox="0 0 40 40" version="1.1" xmlns="http://www.w3.org/2000/svg" xmlns:xlink="http://www.w3.org/1999/xlink">
    <g id="i/Dash" stroke="none" stroke-width="1" fill="none" fill-rule="evenodd">
        <path d="M20,33 C27.1797017,33 33,27.1797017 33,20 C33,12.8202983 27.1797017,7 20,7 C12.8202983,7 7,12.8202983 7,20 C7,27.1797017 12.8202983,33 20,33 Z M15,23 L20.303206,23 C22.0751578,23 23.5970178,21.7406566 23.9285714,20 C23.9582607,19.8441311 23.9732044,19.6858125 23.9732044,19.5271413 C23.9732044,18.1314397 22.8417647,17 21.4460631,17 L16,17 L16.5,14 L22.5976979,14 C25.3591216,14 27.5976979,16.2385763 27.5976979,19 C27.5976979,19.2754043 27.5749437,19.5503378 27.5296675,19.8219949 C27.5197783,19.88133 27.5098892,19.940665 27.5,20 C27.4916226,20.0502643 27.4832452,20.1005286 27.4748678,20.1507929 C26.9123152,23.5261087 23.9919845,26 20.5701104,26 L14.5,26 L15,23 Z M14.9415184,18.5 L20,18.5 L19.4558482,20.1324555 C19.1836201,20.9491398 18.4193424,21.5 17.5584816,21.5 L12.5,21.5 L13.0441518,19.8675445 C13.3163799,19.0508602 14.0806576,18.5 14.9415184,18.5 Z" id="DASH" fill="#008DEA"></path>
    </g>
</svg>