<?xml version="1.0" encoding="UTF-8"?>
<svg width="40px" height="40px" viewBox="0 0 40 40" version="1.1" xmlns="http://www.w3.org/2000/svg" xmlns:xlink="http://www.w3.org/1999/xlink">
    <path fill="#25AF9A" class="fill" fill-rule="evenodd" d="M9,12 L13,12 L13,8 L17,8 L17,12 L21,12 L21,8 L25,8 L25,12 C25,12 25.33,12 26,12 C32,12 34,16.5 34,20 C34,23.5 32,28 26,28 C25.33,28 25,28 25,28 L25,32 L21,32 L21,28 L17,28 L17,32 L13,32 L13,28 L9,28 L9,24 L13,24 L13,16 L9,16 L9,12 Z M17,16 C22.33,16 25.33,16 26,16 C29,16 30,18 30,20 C30,22 29,24 26,24 C25.33,24 22.33,24 17,24 L17,16 Z" />
</svg>