<?xml version="1.0" encoding="UTF-8"?>
<svg width="40px" height="40px" viewBox="0 0 40 40" version="1.1" xmlns="http://www.w3.org/2000/svg" xmlns:xlink="http://www.w3.org/1999/xlink">
    <g id="coin/dgb" stroke="none" stroke-width="1" fill="none" fill-rule="evenodd">
        <circle id="outer" fill="#0066CC" cx="20" cy="20" r="13"></circle>
        <circle id="inner" fill="#002352" cx="20" cy="20" r="10.5"></circle>
        <path d="M13.5,25.5 L16.5,18 L18.78615,18 C19.0622924,18 19.28615,18.2238576 19.28615,18.5 C19.28615,18.5582763 19.2759622,18.6161039 19.2560467,18.6708715 L17.5,23.5 C17.5,23.5 17.6666667,23.5 18,23.5 C21,23.5 26,17 22,17 C19.3333333,17 16.5,17 13.5,17 L15,14.5 L19.5,14.5 L20,13.5 L21.5,13.5 L21,14.5 L22,14.5 L22.5,13.5 L24,13.5 C24,13.5 23.8333333,13.8333333 23.5,14.5 C25.5,14.5 27,16 27,18 C27,21 22,25.5 19,25.5 C19,25.5 18.8333333,25.8333333 18.5,26.5 L17,26.5 L17.5,25.5 L16.5,25.5 L16,26.5 L14.5,26.5 L15,25.5 L13.5,25.5 Z" id="D" fill="#FFFFFF"></path>
    </g>
</svg>