<?xml version="1.0" encoding="UTF-8"?>
<svg width="40px" height="40px" viewBox="0 0 40 40" version="1.1" xmlns="http://www.w3.org/2000/svg" xmlns:xlink="http://www.w3.org/1999/xlink">
	<circle stroke="#89772D" fill="#BA9F33" cx="20" cy="20" r="12" class="outline fill" />
	<path fill="#F8F3E4" class="fill-bg" d="M13.5,13 C17.8333333,13 20.3333333,13 21,13 C25,13 27.5,16 27.5,20 C27.5,24 26,27 22,27 C21.3333333,27 18.5,27 13.5,27 L13.5,24 L15.5,24 L15.5,16 L13.5,16 L13.5,13 Z M19,16 L19,24 C19.6666667,24 20.3333333,24 21,24 C23,24 23.5,22 23.5,20 C23.5,18 23,16 21,16 C20.3333333,16 19.6666667,16 19,16 Z" />
</svg>