<?xml version="1.0" encoding="UTF-8"?>
<svg width="40px" height="40px" viewBox="0 0 40 40" version="1.1" xmlns="http://www.w3.org/2000/svg" xmlns:xlink="http://www.w3.org/1999/xlink">
	<polygon fill="#FFCE1B" fill-rule="nonzero" points="20 26 12 34 29 34" class="fill" />
	<path d="M31,11 L36,20 L31,29 L22,20 L31,11 Z M9,11 L18,20 L9,29 L4,20 L9,11 Z" fill="#00A929" class="fill" />
	<polygon fill="#089FDE" fill-rule="nonzero" points="20 14 12 6 29 6" class="fill" />
	<path d="M20,26 L20,34 L12,34 L20,26 Z M31,11 L36,20 L22,20 L31,11 Z M9,11 L18,20 L4,20 L9,11 Z M20,6 L20,14 L12,6 L20,6 Z" fill-opacity="0.2" fill="#FFFFFF" fill-rule="nonzero" />
</svg>