<?xml version="1.0" encoding="UTF-8"?>
<svg width="40px" height="40px" viewBox="0 0 40 40" version="1.1" xmlns="http://www.w3.org/2000/svg" xmlns:xlink="http://www.w3.org/1999/xlink">
    <g id="coin/etn" stroke="none" stroke-width="1" fill="none" fill-rule="evenodd">
        <path d="M12.5737938,30.6715122 L13.5748786,30.1367899 C15.4324652,31.3166699 17.6364325,32 20,32 C26.627417,32 32,26.627417 32,20 C32,17.014959 30.9100787,14.2844827 29.1064872,12.1848224 L29.7680135,11.4215228 C31.7799656,13.7106497 33,16.7128477 33,20 C33,27.1797017 27.1797017,33 20,33 C17.2390018,33 14.6790368,32.1392745 12.5737938,30.6715122 Z M10.7308357,29.1149694 C8.42345741,26.7688036 7,23.5506349 7,20 C7,12.8202983 12.8202983,7 20,7 C23.0193653,7 25.7983127,8.02935164 28.0050624,9.75627525 L27.0198553,10.2664087 C25.0460141,8.8403838 22.6211481,8 20,8 C13.372583,8 8,13.372583 8,20 C8,23.2451642 9.2881543,26.1894638 11.3810291,28.3494651 L10.7308357,29.1149694 Z M14.6033531,29.5874375 L26,23.5 L23.5,22 L28,19.519 L24.5,17.5 L28.4437414,12.9495292 C30.0395542,14.8586427 31,17.3171593 31,20 C31,26.0751322 26.0751322,31 20,31 C18.0389381,31 16.1977348,30.4868248 14.6033531,29.5874375 Z M12.0317378,27.5833541 C10.1531325,25.6100043 9,22.9396664 9,20 C9,13.9248678 13.9248678,9 20,9 C22.2192606,9 24.2850231,9.65720324 26.0132829,10.787605 L14,17.008 L16.5,19.012 L12.5,21 L15.5,23.5 L12.0317378,27.5833541 Z" id="O" fill="#0B3547"></path>
        <polygon id="E" fill="#2AB0F3" points="30 9.898 16 17.008 18.5 19.012 14 21 17 23.5 10 31.018 24 23.5 21.5 22 26 19.519 23 17.5"></polygon>
    </g>
</svg>