<?xml version="1.0" encoding="UTF-8"?>
<svg width="40px" height="40px" viewBox="0 0 40 40" version="1.1" xmlns="http://www.w3.org/2000/svg" xmlns:xlink="http://www.w3.org/1999/xlink">
	<polygon fill="#065198" points="14.5 16.5 20 20 20 26.5 14.5 23.5" />
	<polygon fill="#20B1F9" points="20 20 25.5 16.5 25.5 23.5 20 26.5" />
	<polygon fill="#E82E9D" points="20 13.5 25.5 16.5 20 20 14.5 16.5" />
	<circle fill="black" class="fill fill-black" cx="20" cy="9" r="1" />
	<circle fill="black" class="fill fill-black" cx="20" cy="11.5" r="1" />
	<circle fill="black" class="fill fill-black" cx="27.5" cy="24.5" r="1" />
	<circle fill="black" class="fill fill-black" cx="12.5" cy="24.5" r="1" />
	<circle fill="black" class="fill fill-black" cx="29.5" cy="25.5" r="1" />
	<circle fill="black" class="fill fill-black" cx="10.5" cy="25.5" r="1" />
	<path fill="none" stroke="black" class="outline outline-black" d="M8.5,27 L8.5,13.5 L20,6.5 L31.5,13.5 L31.5,27 L20,33.5 L8.5,27 Z M14.5,23.5 L14.5,16.5 L20,13.5 L25.5,16.5 L25.5,23.5 L20,26.5 L14.5,23.5 Z M8.5,13.5 L20,20 L31.5,13.5 M20,20 L20,33.5" />
</svg>