<?xml version="1.0" encoding="UTF-8"?>
<svg width="40px" height="40px" viewBox="0 0 40 40" version="1.1" xmlns="http://www.w3.org/2000/svg" xmlns:xlink="http://www.w3.org/1999/xlink">
    <defs>
        <linearGradient x1="33.2159745%" y1="19.68781%" x2="93.0098684%" y2="88.9400422%" id="linearGradient-1">
            <stop stop-color="#7A4FE6" offset="0%"></stop>
            <stop stop-color="#64A5FF" offset="100%"></stop>
        </linearGradient>
        <linearGradient x1="33.2159745%" y1="19.68781%" x2="93.0098684%" y2="88.9400422%" id="linearGradient-2">
            <stop stop-color="#01D4E8" offset="0%"></stop>
            <stop stop-color="#FFFFFF" offset="100%"></stop>
        </linearGradient>
    </defs>
    <g stroke="none" stroke-width="1" fill="none" fill-rule="evenodd">
        <circle fill="#AF74F4" cx="20" cy="20" r="13"></circle>
        <path d="M27.2126953,16.75 L29.25,16.75 L29.25,20.5 L29.1561738,20.6952172 L27.2126953,22.25 L29.3201941,22.25 L28.2425356,26.5606339 L28.1324997,26.7119996 L24.1324997,29.2119996 L24.0178118,29.2493647 C19.3033133,29.5861146 16.0946964,29.2483654 14.3713761,28.2143732 C12.0183717,26.8025706 9.75,22.425837 9.75,19 C9.75,15.0185424 13.677059,10.75 18,10.75 C21.0149399,10.75 24.5283583,11.0846113 28.5410997,11.7534015 L28.7172415,11.7827585 L29.2707128,15.103586 L27.2126953,16.75 Z" stroke="#6349D2" stroke-width="0.5" fill="url(#linearGradient-1)" stroke-linecap="round" stroke-linejoin="round"></path>
        <path d="M28.5,12 L29,15 C21.6666667,14.6666667 17.5,14.6666667 16.5,15 C15.5,15.3333333 14.6666667,16 14,17 L29,17 L29,20.5 L14,21 C14.6666667,21.6666667 15.6666667,22.1666667 17,22.5 C18.3333333,22.8333333 22.3333333,22.8333333 29,22.5 L28,26.5 C21,26.8333333 16.6666667,26.8333333 15,26.5 C12.5,26 10,22.5 10,19 C10,15.5 13.5,11 18,11 C21,11 24.5,11.3333333 28.5,12 Z" fill="url(#linearGradient-2)"></path>
        <path d="M18,12 C18,9 12,11 12,13 C12,15 18,15 18,12 Z" fill="#FFFFFF"></path>
    </g>
</svg>