<?xml version="1.0" encoding="UTF-8"?>
<svg width="40px" height="40px" viewBox="0 0 40 40" version="1.1" xmlns="http://www.w3.org/2000/svg" xmlns:xlink="http://www.w3.org/1999/xlink">
	<path fill="#0277BD" fill-rule="nonzero" class="fill" d="M8,11.5 C8,9.5 9.5,8 11.5,8 C13.5,8 13,8 20,8 C27,8 32,13 32,20 C32,27 32,26.5 32,28.5 C32,30.5 30.5,32 28.5,32 C26.5,32 27,32 20,32 C13,32 8,27 8,20 C8,13 8,13.5 8,11.5 Z M20,29 C24.9705627,29 29,24.9705627 29,20 C29,15.0294373 24.9705627,11 20,11 C15.0294373,11 11,15.0294373 11,20 C11,24.9705627 15.0294373,29 20,29 Z M20,26 C23.3137085,26 26,23.3137085 26,20 C26,16.6862915 23.3137085,14 20,14 C16.6862915,14 14,16.6862915 14,20 C14,23.3137085 16.6862915,26 20,26 Z M11.5,13.5 C12.6045695,13.5 13.5,12.6045695 13.5,11.5 C13.5,10.3954305 12.6045695,9.5 11.5,9.5 C10.3954305,9.5 9.5,10.3954305 9.5,11.5 C9.5,12.6045695 10.3954305,13.5 11.5,13.5 Z M28.5,30.5 C29.6045695,30.5 30.5,29.6045695 30.5,28.5 C30.5,27.3954305 29.6045695,26.5 28.5,26.5 C27.3954305,26.5 26.5,27.3954305 26.5,28.5 C26.5,29.6045695 27.3954305,30.5 28.5,30.5 Z" />
</svg>