<?xml version="1.0" encoding="UTF-8"?>
<svg width="40px" height="40px" viewBox="0 0 40 40" version="1.1" xmlns="http://www.w3.org/2000/svg" xmlns:xlink="http://www.w3.org/1999/xlink">
    <g id="eur" stroke="none" fill="none" fill-rule="evenodd">
        <circle fill="#0033FF" cx="20" cy="20" r="13"></circle>
        <path d="M25.4176721,13.3293116 L24.8917091,15.4331636 C23.8440092,14.5394874 22.4850066,14 21,14 C18.7791529,14 16.8401214,15.2065959 15.8026932,17 L24.5,17 L24,19 L15.0829584,19 C15.0283988,19.3252085 15,19.6592878 15,20 C15,20.3407122 15.0283988,20.6747915 15.0829584,21 L23.5,21 L23,23 L15.8026932,23 C16.8401214,24.7934041 18.7791529,26 21,26 C22.7920388,26 24.4005833,25.2143677 25.5,23.9687366 L25.5,26.6153202 C24.2178926,27.4891513 22.6686039,28 21,28 C17.6426224,28 14.7682918,25.9318303 13.581517,23 L10.5,23 L11,21 L13.0618938,21 C13.0210433,20.6724058 13,20.3386603 13,20 C13,19.6613397 13.0210433,19.3275942 13.0618938,19 L11.5,19 L12,17 L13.581517,17 C14.7682918,14.0681697 17.6426224,12 21,12 C22.6330458,12 24.1518076,12.4893083 25.4176721,13.3293116 Z" fill="#F8E71C"></path>
    </g>
</svg>