<?xml version="1.0" encoding="UTF-8"?>
<svg width="40px" height="40px" viewBox="0 0 40 40" version="1.1" xmlns="http://www.w3.org/2000/svg" xmlns:xlink="http://www.w3.org/1999/xlink">
	<path d="M17.3,20 L12.6899495,20 C12.3033502,20 11.9899495,19.6865993 11.9899495,19.3 C11.9899495,19.1143485 12.0636993,18.9363007 12.1949747,18.8050253 L24.8050253,6.19497475 C25.0783923,5.92160774 25.5216077,5.92160774 25.7949747,6.19497475 C25.9262502,6.32625021 26,6.50429795 26,6.68994949 L26,34.3100505 C26,34.6966498 25.6865993,35.0100505 25.3,35.0100505 C25.1143485,35.0100505 24.9363007,34.9363007 24.8050253,34.8050253 L18.2050253,28.2050253 C18.0737498,28.0737498 18,27.895702 18,27.7100505 L18,20.7 C18,20.3134007 17.6865993,20 17.3,20 Z" fill="#DA0000" class="fill" />
</svg>