<?xml version="1.0" encoding="UTF-8"?>
<svg width="40px" height="40px" viewBox="0 0 40 40" version="1.1" xmlns="http://www.w3.org/2000/svg" xmlns:xlink="http://www.w3.org/1999/xlink">
	<circle class="fill" fill="#9700FF" cx="20" cy="20" r="13" />
	<path class="fill fill-bg" fill="white" d="M14,19.5 L14,20.5 C14,20.77 14.22,21 14.5,21 L17,21 L17,21 L17,27 C17,27.3147573 17.15,27.61 17.4,27.8 L18.36,28.52 C18.54,28.65 18.79,28.61 18.92,28.44 C18.97,28.37 19,28.28 19,28.2 L19,21 L19,21 L24,21 C24.2761424,21 24.5,20.77 24.5,20.5 L24.5,19.5 C24.5,19.22 24.2761424,19 24,19 L19,19 L19,19 L19,15.5 C19,15.22 19.22,15 19.5,15 L26,15 C26.2761424,15 26.5,14.77 26.5,14.5 L26.5,13.5 C26.5,13.22 26.2761424,13 26,13 L18,13 C17.4477153,13 17,13.4477153 17,14 L17,19 L17,19 L14.5,19 C14.22,19 14,19.22 14,19.5 Z" />
</svg>