<?xml version="1.0" encoding="UTF-8"?>
<svg width="40px" height="40px" viewBox="0 0 40 40" version="1.1" xmlns="http://www.w3.org/2000/svg" xmlns:xlink="http://www.w3.org/1999/xlink">
    <g id="gbp" stroke="none" stroke-width="1" fill="none" fill-rule="evenodd">
        <circle fill="#39A6B0" cx="20" cy="20" r="13"></circle>
        <path d="M16,21 L14,21 L14,18 L16,18 L16,17 C16.0673333,13 17.9006667,11 21.5,11 C25.0993333,11 26.9326667,12.6666667 27,16 L24,16 C24,14.6666667 23.1666667,14 21.5,14 C19.8333333,14 19,15 19,17 L19,18 L25,18 L25,21 L19,21 L19,24 L27,24 L27,27 L14,27 L14,25 L16,24 L16,21 Z" fill="#FFFFFF"></path>
    </g>
</svg>