<?xml version="1.0" encoding="UTF-8"?>
<svg width="40px" height="40px" viewBox="0 0 40 40" version="1.1" xmlns="http://www.w3.org/2000/svg" xmlns:xlink="http://www.w3.org/1999/xlink">
    <defs>
        <linearGradient x1="79.1826521%" y1="26.2634277%" x2="25.0584194%" y2="78.0447824%" id="linearGradient-1">
            <stop stop-color="#FBCC02" offset="0%"></stop>
            <stop stop-color="#FEAF0C" offset="100%"></stop>
        </linearGradient>
    </defs>
    <g id="goldcoin" stroke="none" stroke-width="1" fill="none" fill-rule="evenodd">
        <circle id="O" fill="url(#linearGradient-1)" fill-rule="nonzero" cx="20" cy="20" r="14"></circle>
        <circle id="o-shadow" stroke="#D8B05D" stroke-width="0.6" fill-rule="nonzero" cx="20" cy="20" r="11.5"></circle>
        <circle id="o" stroke="#FFFFFF" stroke-width="0.6" fill-rule="nonzero" cx="20" cy="20" r="12"></circle>
        <path d="M12.1403958,21.5 C12.0482284,21.0141239 12,20.5126941 12,20 C12,19.6613397 12.0210433,19.3275942 12.0618938,19 L10.4,19 C10.1790861,19 10,18.8209139 10,18.6 L10,17.9 C10,17.6790861 10.1790861,17.5 10.4,17.5 L12.3983785,17.5 C13.4481711,14.3060684 16.45478,12 20,12 C22.6171823,12 24.9408317,13.2567641 26.4003748,15.1997189 L24.4002577,16.6998068 C23.3968218,15.3640253 21.7993128,14.5 20,14.5 C17.8626573,14.5 16.0100651,15.719162 15.0997096,17.5 L16.6,17.5 C16.8209139,17.5 17,17.6790861 17,17.9 L17,18.6 C17,18.8209139 16.8209139,19 16.6,19 L14.5906881,19 C14.5311233,19.3242762 14.5,19.6585035 14.5,20 C14.5,20.5200119 14.5721672,21.0231682 14.7070325,21.5 L16.6,21.5 C16.8209139,21.5 17,21.6790861 17,21.9 L17,22.6 C17,22.8209139 16.8209139,23 16.6,23 L15.3894654,23 C16.3708159,24.5051046 18.0692228,25.5 20,25.5 C22.3319824,25.5 24.3249906,24.0486784 25.1250597,22 L21.9,22 C21.6790861,22 21.5,21.8209139 21.5,21.6 L21.5,19.9 C21.5,19.6790861 21.6790861,19.5 21.9,19.5 L27.6,19.5 C27.8209139,19.5 28,19.6790861 28,19.9 L28,20.5 L27.9808886,20.5573343 C27.6947381,24.7155955 24.2309259,28 20,28 C16.6426224,28 13.7682918,25.9318303 12.581517,23 L10.4,23 C10.1790861,23 10,22.8209139 10,22.6 L10,21.9 C10,21.6790861 10.1790861,21.5 10.4,21.5 L12.1403958,21.5 Z" id="Gold" fill="#FFFFFF" fill-rule="nonzero"></path>
    </g>
</svg>