<?xml version="1.0" encoding="UTF-8"?>
<svg width="40px" height="40px" viewBox="0 0 40 40" version="1.1" xmlns="http://www.w3.org/2000/svg" xmlns:xlink="http://www.w3.org/1999/xlink">
	<circle fill="black" class="fill" cx="20" cy="20" r="14" />
	<circle fill="#FEF102" class="fill" cx="20" cy="20" r="12" />
	<path fill="black" fill-rule="nonzero" class="fill" d="M24.56,13.02 C23.9,12.77 23.27,13.67 22.67,15.75 C22.42,14.68 22.08,13.15 20.9,12.82 C20.37,15.1 21.48,17.58 22.52,19.56 C23.63,19.03 24.18,17.36 24.28,16.19 L25.6,19.7 C26.54,19.44 26.87,18.5 27.21,17.65 C27.94,15.83 28.56,13.59 28.09,11.64 C26.68,12.04 26.26,14.06 25.89,15.3 C25.6,14.63 25.32,13.31 24.56,13.02 Z M14.02,16.19 C14.16,16.82 14.56,18.45 15.35,18.55 C16.017452,18.64 16.6,17.7033159 17.0973822,15.75 C17.42,16.8481675 17.76,18.28 18.8565445,18.8272251 C19.27,17.11 18.5,12 17.1,12.17 C16.18,12.28 15.65,14.62 15.48,15.3 L14.165445,11.8 C12.1,12.77 10.98,18.02 11.82,20 C12.66,19.6 13.39,18.33 14.02,16.19 Z M24.57,29.4 C26.89,28.37 28.7225131,26.54 29.78,24.25 C30.06,23.66 30.58,22.58 30.28,21.8031414 C29.97,21.03 26,22.5 25.99,22.89 C25.9371728,23.2104712 26.16,23.52 26.48,23.56 C26.5,23.56 26.5,23.56 26.52,23.56 L27.8,23.66 C25.5,28.12 19.28,30.08 14.9,26.52 C13.92,25.73 13.04,24.79 12.45,23.66 C12.17,23.12 11,21 9.62,21.76 C11.14,28.44 18.21,32.23 24.57,29.4 Z" />
</svg>