<?xml version="1.0" encoding="UTF-8"?>
<svg width="40px" height="40px" viewBox="0 0 40 40" version="1.1" xmlns="http://www.w3.org/2000/svg" xmlns:xlink="http://www.w3.org/1999/xlink">
    <g id="gxc" stroke="none" stroke-width="1" fill="none" fill-rule="evenodd">
        <path d="M20,14 L26,8 C28,6.66666667 29.8333333,6.83333333 31.5,8.5 C33.1666667,10.1666667 33.3333333,12 32,14 L26,20 L32,26 C33.3333333,28 33.1666667,29.8333333 31.5,31.5 C29.8333333,33.1666667 28,33.3333333 26,32 L20,26 L14,32 C12,33.3333333 10.1666667,33.1666667 8.5,31.5 C6.83333333,29.8333333 6.66666667,28 8,26 L13,21 L14.5,22.5 L10,27 C9,28 9,29 10,30 C11,31 12,31 13,30 L18.5,24.5 L8,14 C6.66658667,12 6.83325333,10.1666667 8.5,8.5 C10.1667467,6.83333333 12.00008,6.66666667 14,8 L20,14 Z M20,23 L17,20 L27,10 C28,9 29,9 30,10 C31,11 31,12 30,13 L24.449512,18.5 L22.5,16.5 L21,18 L30,27 C31,28 31,29 30,30 C29,31 28,31 27,30 L21.5,24.5 L23.5,22.5 L22,21 L20,23 Z M15.5,18.5 L10,13 C8.98008855,12 8.97511068,11 9.98506641,10 C10.9950221,9 12,9 13,10 L18.5,15.5 L15.5,18.5 Z" fill="#6699FF"></path>
    </g>
</svg>