<?xml version="1.0" encoding="UTF-8"?>
<svg width="40px" height="40px" viewBox="0 0 40 40" version="1.1" xmlns="http://www.w3.org/2000/svg" xmlns:xlink="http://www.w3.org/1999/xlink">
    <path class="fill fill-black" d="M34,17 L24.5,35 L21,35 L26.11,25.23 C26.25,24.98 26.15,24.68 25.9,24.56 C25.83,24.52 25.75,24.5 25.67,24.5 L17,24.5 L15,21.5 L27.52,21.5 C28.12,21.5 28.65,21.15 28.9,20.6 L30.5,17 L34,17 Z M25,25.5 L20,34.5 L18,31.5 L21.5,25.5 L25,25.5 Z M11,26 L13,29 L9.5,29 L7.5,26 L11,26 Z M14,22 L16,25 L14,28.5 L12,25.5 L14,22 Z M21,7 L15.88,16.77 C15.84,16.84 15.83,16.92 15.83,17 C15.83,17.2761424 16.05,17.5 16.33,17.5 L16.33,17.5 L25,17.5 L27,20.5 L14.38,20.5 C13.84,20.5 13.33,20.8 13.07,21.27 L13.07,21.27 L11,25 L7.5,25 L17.5,7 L21,7 Z M28,13.5 L29.5,16.5 L28,20 L26,17 L28,13.5 Z M22,7.5 L24,10.5 L20.5,16.5 L17,16.5 L22,7.5 Z M32.5,13 L34,16 L30.5,16 L29,13 L32.5,13 Z"/>
</svg>