<?xml version="1.0" encoding="UTF-8"?>
<svg width="40px" height="40px" viewBox="0 0 40 40" version="1.1" xmlns="http://www.w3.org/2000/svg" xmlns:xlink="http://www.w3.org/1999/xlink">
	<path d="M20,33 C27.18,33 33,27.18 33,20 C33,12.82 27.18,7 20,7 C12.82,7 7,12.82 7,20 C7,27.18 12.82,33 20,33 Z M14,14 L16,14 L16,17.5 L24,17.5 L24,14 L26,14 L26,26 L24,26 L24,22.5 L16,22.5 L16,26 L14,26 L14,14 Z M16,19 L24,19 L24,21 L16,21 L16,19 Z" fill="#464646" class="fill fill-black" fill-rule="nonzero" />
</svg>