<?xml version="1.0" encoding="UTF-8"?>
<svg width="40px" height="40px" viewBox="0 0 40 40" version="1.1" xmlns="http://www.w3.org/2000/svg" xmlns:xlink="http://www.w3.org/1999/xlink">
	<defs>
		<linearGradient x1="24%" y1="93%" x2="77%" y2="6%" id="hexGradient">
			<stop stop-color="#FFF200" offset="0%"/>
			<stop stop-color="#FF4300" offset="50%"/>
			<stop stop-color="#FF00BA" offset="100%"/>
		</linearGradient>
	</defs>
	<path class="fill" fill="url(#hexGradient)" d="M18,24.5 L20.5,29 L18,34 L13.236068,34 C12.4785239,34 11.7859976,33.5719952 11.4472136,32.8944272 L9.5,29 L12,24.5 L18,24.5 Z M23,16.5 L27.5,25 L23,34 L19.5,34 L22,29 L19,23 L11,23 L8.75,27.5 L7.513,25.026 L12,16.5 L23,16.5 Z M26.763932,6 C27.5214761,6 28.2140024,6.42800475 28.5527864,7.10557281 L34.5527864,19.1055728 C34.8343139,19.6686278 34.8343139,20.3313722 34.5527864,20.8944272 L28.5527864,32.8944272 C28.2140024,33.5719952 27.5214761,34 26.763932,34 L24.5,34 L29,25 L24,15 L11,15 L6.75,23.5 L5.4472136,20.8944272 C5.1656861,20.3313722 5.1656861,19.6686278 5.4472136,19.1055728 L11.4472136,7.10557281 C11.7859976,6.42800475 12.4785239,6 13.236068,6 L26.763932,6 Z" />
</svg>