<?xml version="1.0" encoding="UTF-8"?>
<svg width="40px" height="40px" viewBox="0 0 40 40" version="1.1" xmlns="http://www.w3.org/2000/svg" xmlns:xlink="http://www.w3.org/1999/xlink">
    <!-- Generator: Sketch 52.4 (67378) - http://www.bohemiancoding.com/sketch -->
    <title>coin/hot</title>
    <desc>Created with Sketch.</desc>
    <g id="coin/hot" stroke="none" stroke-width="1" fill="none" fill-rule="evenodd">
        <path d="M8,26 C8,26 6.5,29 6.5,29 C12,29 18,26 18,21 C18,21 21,21 21,21 C21,24.5 25.2,29 32.6,29 C32.6,29 31.5,26 31.5,26 C27.5,26 24,23.5 24,21 C24,21 24.6666667,21 26,21 L27,18 C25,18 24,18 24,18 C24,16 26.5,13 31.5,13 C31.5,13 32.6,10 32.6,10 C25,10 21,14 21,18 C21,18 18,18 18,18 C18,14 15,10 6.5,10 C6.5,10 7.47372056,13 7.5,13 C11.5,13 15,15.5 15,18 C15,18 14.3333333,18 13,18 L11.5,21 C13.8333333,21 15,21 15,21 C15,23.5 11,26 8,26 Z" id="Path-28" fill="#00838D"></path>
    </g>
</svg>