<?xml version="1.0" encoding="UTF-8"?>
<svg width="40px" height="40px" viewBox="0 0 40 40" version="1.1" xmlns="http://www.w3.org/2000/svg" xmlns:xlink="http://www.w3.org/1999/xlink">
    <!-- Generator: Sketch 52.4 (67378) - http://www.bohemiancoding.com/sketch -->
    <title>hypercash</title>
    <desc>Created with Sketch.</desc>
    <g id="hypercash" stroke="none" stroke-width="1" fill="none" fill-rule="evenodd">
        <path d="M6,20 L10,12.5 L14.5,12.5 C14.5,12.1666667 14.5,11.6666667 14.5,11 C14.5,10.3333333 14.1666667,10 13.5,10 L13.5,9 L19,9 L19,10 C18.3333333,10 18,10.3333333 18,11 C18,11.6666667 18,12.1666667 18,12.5 L23,12.5 C23,12.1666667 23,11.6666667 23,11 C23,10.3333333 22.6666667,10 22,10 L22,9 L27.5,9 L27.5,10 C26.8333333,10 26.5,10.3333333 26.5,11 C26.5,11.6666667 26.5,16.1666667 26.5,24.5 L28.5,24.5 L29.5,23 L29.5,22 L34.5,22 L34.5,23 C33.8927138,23 33.3927138,23.3333333 33,24 C32.6072862,24.6666667 31.9406195,25.8333333 31,27.5 L18,27.5 C18,27.8333333 18,28.3333333 18,29 C18,29.6666667 18.5,30 19.5,30 L19.5,31 L13,31 L13,30 C14,30 14.5,29.6666667 14.5,29 C14.5,28.3333333 14.5,24 14.5,16 L18,16 L18,18.5 L23,18.5 L23,15.5 L13,15.5 L10,20 L13,24.5 L14,24.5 L14,27.5 L10,27.5 L6,20 Z M18,21.5 L18,24.5 L23,24.5 L23,21.5 L18,21.5 Z M27,15.5 L27,12.5 L31,12.5 C31.9406195,14.1666667 32.6072862,15.3333333 33,16 C33.3927138,16.6666667 33.8927138,17 34.5,17 L34.5,18 L29.5,18 L29.5,17 L28.5,15.5 L27,15.5 Z M23,28 L26.5,28 C26.5,28 26.5,28.3333333 26.5,29 C26.5,29.6666667 27,30 28,30 L28,31 L21.5,31 L21.5,30 C22.5,30 23,29.6666667 23,29 C23,28.3333333 23,28 23,28 Z" id="HC" fill="#5C4C93" fill-rule="nonzero"></path>
    </g>
</svg>