<?xml version="1.0" encoding="UTF-8"?>
<svg width="40px" height="40px" viewBox="0 0 40 40" version="1.1" xmlns="http://www.w3.org/2000/svg" xmlns:xlink="http://www.w3.org/1999/xlink">
    <g id="coin/icx" stroke="none" stroke-width="1" fill="none" fill-rule="evenodd">
        <circle id="sat" fill="#00C0C4" cx="31" cy="9" r="3"></circle>
        <circle id="sat" fill="#00C0C4" cx="9" cy="31" r="3"></circle>
        <path d="M13.5723393,28.9276607 L16.4598684,26.0401316 C17.4984927,26.6501858 18.7083946,27 20,27 C23.8659932,27 27,23.8659932 27,20 C27,18.7083946 26.6501858,17.4984927 26.0401316,16.4598684 L28.9276607,13.5723393 C30.2316917,15.3803878 31,17.6004699 31,20 C31,26.0751322 26.0751322,31 20,31 C17.6004699,31 15.3803878,30.2316917 13.5723393,28.9276607 Z M11.0723393,26.4276607 C9.76830827,24.6196122 9,22.3995301 9,20 C9,13.9248678 13.9248678,9 20,9 C22.3995301,9 24.6196122,9.76830827 26.4276607,11.0723393 L23.5401316,13.9598684 C22.5015073,13.3498142 21.2916054,13 20,13 C16.1340068,13 13,16.1340068 13,20 C13,21.2916054 13.3498142,22.5015073 13.9598684,23.5401316 L11.0723393,26.4276607 Z" id="icon" fill="#00C0C4"></path>
    </g>
</svg>