<?xml version="1.0" encoding="UTF-8"?>
<svg width="40px" height="40px" viewBox="0 0 40 40" version="1.1" xmlns="http://www.w3.org/2000/svg" xmlns:xlink="http://www.w3.org/1999/xlink">
    <g stroke="none" stroke-width="1" fill="none" fill-rule="evenodd">
        <circle fill="#004B6A" cx="20" cy="20" r="12" class="fill" />
        <path d="M20,30.5 C25.7989899,30.5 30.5,25.7989899 30.5,20 C30.5,14.2010101 25.7989899,9.5 20,9.5 C14.2010101,9.5 9.5,14.2010101 9.5,20 C9.5,25.7989899 14.2010101,30.5 20,30.5 Z" stroke="#FFFFFF" stroke-dasharray="1,2" />
        <path d="M24,14 L27,14 L27,26 L26,26 L26,15 L25,15 L25,26 L19.05,26 L17,25 L24,25 L24,14 Z M20,16 L23,16 L23,24.5 L22,24.5 L22,17 L21,17 L21,24.5 L16.15,24.5 L14.1,23.5 L20,23.5 L20,16 Z M16,18 L19,18 L19,23 L18,23 L18,19 L17,19 L17,23 L13.05,23 L11,22 L16,22 L16,18 Z" fill="#FFFFFF" />
    </g>
</svg>