<?xml version="1.0" encoding="UTF-8"?>
<svg width="40px" height="40px" viewBox="0 0 40 40" version="1.1" xmlns="http://www.w3.org/2000/svg" xmlns:xlink="http://www.w3.org/1999/xlink">
	<circle class="fill" fill="#0084B6" cx="15.5" cy="14" r="1.5" />
	<circle class="fill" fill="#0084B6" cx="9.5" cy="12.5" r="1.5" />
	<circle class="fill" fill="#0084B6" cx="9.5" cy="27" r="1.5" />
	<circle class="fill" fill="#0084B6" cx="30.5" cy="27" r="1.5" />
	<circle class="fill" fill="#0084B6" cx="30.5" cy="12.5" r="1.5" />
	<circle class="fill" fill="#0084B6" cx="30" cy="22" r="1.5" />
	<path class="outline" fill="none" stroke="#0084B6" stroke-width="2" d="M15,13.5 L9.5,8 L5,12.5 L11.5,19 L11.5,20 L12,20 L5,27 L9.5,31.5 L18,23 L22,23 L30.5,31.5 L35,27 L30,22 M9.5,27 L16.5,20 L23,20 L30.5,12.5 M9.5,12.5 L14,17 L21.5,17 L30.5,8 L35,12.5 L25.5,22 L30.5,27" />
</svg>