<?xml version="1.0" encoding="UTF-8"?>
<svg width="40px" height="40px" viewBox="0 0 40 40" version="1.1" xmlns="http://www.w3.org/2000/svg" xmlns:xlink="http://www.w3.org/1999/xlink">
    <!-- Generator: Sketch 52.4 (67378) - http://www.bohemiancoding.com/sketch -->
    <title>coin/miota</title>
    <desc>Created with Sketch.</desc>
    <g id="coin/miota" stroke="none" stroke-width="1" fill="none" fill-rule="evenodd">
        <g id="iota/3" transform="translate(7.000000, 10.000000)" fill="#000000">
            <path d="M2.3,11.7 C1.52680135,11.7 0.9,11.0731986 0.9,10.3 C0.9,9.52680135 1.52680135,8.9 2.3,8.9 C3.07319865,8.9 3.7,9.52680135 3.7,10.3 C3.7,11.0731986 3.07319865,11.7 2.3,11.7 Z M5.3,9.3 C4.6372583,9.3 4.1,8.7627417 4.1,8.1 C4.1,7.4372583 4.6372583,6.9 5.3,6.9 C5.9627417,6.9 6.5,7.4372583 6.5,8.1 C6.5,8.7627417 5.9627417,9.3 5.3,9.3 Z M4.1,6.4 C3.4372583,6.4 2.9,5.8627417 2.9,5.2 C2.9,4.5372583 3.4372583,4 4.1,4 C4.7627417,4 5.3,4.5372583 5.3,5.2 C5.3,5.8627417 4.7627417,6.4 4.1,6.4 Z M8.15,7.9 C7.57010101,7.9 7.1,7.42989899 7.1,6.85 C7.1,6.27010101 7.57010101,5.8 8.15,5.8 C8.72989899,5.8 9.2,6.27010101 9.2,6.85 C9.2,7.42989899 8.72989899,7.9 8.15,7.9 Z M6.95,5 C6.37010101,5 5.9,4.52989899 5.9,3.95 C5.9,3.37010101 6.37010101,2.9 6.95,2.9 C7.52989899,2.9 8,3.37010101 8,3.95 C8,4.52989899 7.52989899,5 6.95,5 Z M6.55,2.4 C5.97010101,2.4 5.5,1.92989899 5.5,1.35 C5.5,0.770101013 5.97010101,0.3 6.55,0.3 C7.12989899,0.3 7.6,0.770101013 7.6,1.35 C7.6,1.92989899 7.12989899,2.4 6.55,2.4 Z M10.8,7.4 C10.3029437,7.4 9.9,6.99705627 9.9,6.5 C9.9,6.00294373 10.3029437,5.6 10.8,5.6 C11.2970563,5.6 11.7,6.00294373 11.7,6.5 C11.7,6.99705627 11.2970563,7.4 10.8,7.4 Z M9.6,4.4 C9.10294373,4.4 8.7,3.99705627 8.7,3.5 C8.7,3.00294373 9.10294373,2.6 9.6,2.6 C10.0970563,2.6 10.5,3.00294373 10.5,3.5 C10.5,3.99705627 10.0970563,4.4 9.6,4.4 Z M9.2,1.8 C8.70294373,1.8 8.3,1.39705627 8.3,0.9 C8.3,0.402943725 8.70294373,-4.49640325e-14 9.2,-4.49640325e-14 C9.69705627,-4.49640325e-14 10.1,0.402943725 10.1,0.9 C10.1,1.39705627 9.69705627,1.8 9.2,1.8 Z M13.05,7.3 C12.6357864,7.3 12.3,6.96421356 12.3,6.55 C12.3,6.13578644 12.6357864,5.8 13.05,5.8 C13.4642136,5.8 13.8,6.13578644 13.8,6.55 C13.8,6.96421356 13.4642136,7.3 13.05,7.3 Z M11.85,4.4 C11.4357864,4.4 11.1,4.06421356 11.1,3.65 C11.1,3.23578644 11.4357864,2.9 11.85,2.9 C12.2642136,2.9 12.6,3.23578644 12.6,3.65 C12.6,4.06421356 12.2642136,4.4 11.85,4.4 Z M11.45,1.8 C11.0357864,1.8 10.7,1.46421356 10.7,1.05 C10.7,0.635786438 11.0357864,0.3 11.45,0.3 C11.8642136,0.3 12.2,0.635786438 12.2,1.05 C12.2,1.46421356 11.8642136,1.8 11.45,1.8 Z M14.95,7.7 C14.5910149,7.7 14.3,7.40898509 14.3,7.05 C14.3,6.69101491 14.5910149,6.4 14.95,6.4 C15.3089851,6.4 15.6,6.69101491 15.6,7.05 C15.6,7.40898509 15.3089851,7.7 14.95,7.7 Z M13.7,4.8 C13.3410149,4.8 13.05,4.50898509 13.05,4.15 C13.05,3.79101491 13.3410149,3.5 13.7,3.5 C14.0589851,3.5 14.35,3.79101491 14.35,4.15 C14.35,4.50898509 14.0589851,4.8 13.7,4.8 Z M13.35,2.15 C12.9910149,2.15 12.7,1.85898509 12.7,1.5 C12.7,1.14101491 12.9910149,0.85 13.35,0.85 C13.7089851,0.85 14,1.14101491 14,1.5 C14,1.85898509 13.7089851,2.15 13.35,2.15 Z M15.8,3.8 C15.5238576,3.8 15.3,3.57614237 15.3,3.3 C15.3,3.02385763 15.5238576,2.8 15.8,2.8 C16.0761424,2.8 16.3,3.02385763 16.3,3.3 C16.3,3.57614237 16.0761424,3.8 15.8,3.8 Z M15.25,5.5 C14.9462434,5.5 14.7,5.25375661 14.7,4.95 C14.7,4.64624339 14.9462434,4.4 15.25,4.4 C15.5537566,4.4 15.8,4.64624339 15.8,4.95 C15.8,5.25375661 15.5537566,5.5 15.25,5.5 Z M14.75,2.85 C14.4462434,2.85 14.2,2.60375661 14.2,2.3 C14.2,1.99624339 14.4462434,1.75 14.75,1.75 C15.0537566,1.75 15.3,1.99624339 15.3,2.3 C15.3,2.60375661 15.0537566,2.85 14.75,2.85 Z" class="fill fill-black" />
        </g>
        <g id="iota/3" transform="translate(20.246152, 25.561216) rotate(-120.000000) translate(-20.246152, -25.561216) translate(11.746152, 19.561216)" fill="#000000">
            <path d="M2.3,11.7 C1.52680135,11.7 0.9,11.0731986 0.9,10.3 C0.9,9.52680135 1.52680135,8.9 2.3,8.9 C3.07319865,8.9 3.7,9.52680135 3.7,10.3 C3.7,11.0731986 3.07319865,11.7 2.3,11.7 Z M5.3,9.3 C4.6372583,9.3 4.1,8.7627417 4.1,8.1 C4.1,7.4372583 4.6372583,6.9 5.3,6.9 C5.9627417,6.9 6.5,7.4372583 6.5,8.1 C6.5,8.7627417 5.9627417,9.3 5.3,9.3 Z M4.1,6.4 C3.4372583,6.4 2.9,5.8627417 2.9,5.2 C2.9,4.5372583 3.4372583,4 4.1,4 C4.7627417,4 5.3,4.5372583 5.3,5.2 C5.3,5.8627417 4.7627417,6.4 4.1,6.4 Z M8.15,7.9 C7.57010101,7.9 7.1,7.42989899 7.1,6.85 C7.1,6.27010101 7.57010101,5.8 8.15,5.8 C8.72989899,5.8 9.2,6.27010101 9.2,6.85 C9.2,7.42989899 8.72989899,7.9 8.15,7.9 Z M6.95,5 C6.37010101,5 5.9,4.52989899 5.9,3.95 C5.9,3.37010101 6.37010101,2.9 6.95,2.9 C7.52989899,2.9 8,3.37010101 8,3.95 C8,4.52989899 7.52989899,5 6.95,5 Z M6.55,2.4 C5.97010101,2.4 5.5,1.92989899 5.5,1.35 C5.5,0.770101013 5.97010101,0.3 6.55,0.3 C7.12989899,0.3 7.6,0.770101013 7.6,1.35 C7.6,1.92989899 7.12989899,2.4 6.55,2.4 Z M10.8,7.4 C10.3029437,7.4 9.9,6.99705627 9.9,6.5 C9.9,6.00294373 10.3029437,5.6 10.8,5.6 C11.2970563,5.6 11.7,6.00294373 11.7,6.5 C11.7,6.99705627 11.2970563,7.4 10.8,7.4 Z M9.6,4.4 C9.10294373,4.4 8.7,3.99705627 8.7,3.5 C8.7,3.00294373 9.10294373,2.6 9.6,2.6 C10.0970563,2.6 10.5,3.00294373 10.5,3.5 C10.5,3.99705627 10.0970563,4.4 9.6,4.4 Z M9.2,1.8 C8.70294373,1.8 8.3,1.39705627 8.3,0.9 C8.3,0.402943725 8.70294373,-4.49640325e-14 9.2,-4.49640325e-14 C9.69705627,-4.49640325e-14 10.1,0.402943725 10.1,0.9 C10.1,1.39705627 9.69705627,1.8 9.2,1.8 Z M13.05,7.3 C12.6357864,7.3 12.3,6.96421356 12.3,6.55 C12.3,6.13578644 12.6357864,5.8 13.05,5.8 C13.4642136,5.8 13.8,6.13578644 13.8,6.55 C13.8,6.96421356 13.4642136,7.3 13.05,7.3 Z M11.85,4.4 C11.4357864,4.4 11.1,4.06421356 11.1,3.65 C11.1,3.23578644 11.4357864,2.9 11.85,2.9 C12.2642136,2.9 12.6,3.23578644 12.6,3.65 C12.6,4.06421356 12.2642136,4.4 11.85,4.4 Z M11.45,1.8 C11.0357864,1.8 10.7,1.46421356 10.7,1.05 C10.7,0.635786438 11.0357864,0.3 11.45,0.3 C11.8642136,0.3 12.2,0.635786438 12.2,1.05 C12.2,1.46421356 11.8642136,1.8 11.45,1.8 Z M14.95,7.7 C14.5910149,7.7 14.3,7.40898509 14.3,7.05 C14.3,6.69101491 14.5910149,6.4 14.95,6.4 C15.3089851,6.4 15.6,6.69101491 15.6,7.05 C15.6,7.40898509 15.3089851,7.7 14.95,7.7 Z M13.7,4.8 C13.3410149,4.8 13.05,4.50898509 13.05,4.15 C13.05,3.79101491 13.3410149,3.5 13.7,3.5 C14.0589851,3.5 14.35,3.79101491 14.35,4.15 C14.35,4.50898509 14.0589851,4.8 13.7,4.8 Z M13.35,2.15 C12.9910149,2.15 12.7,1.85898509 12.7,1.5 C12.7,1.14101491 12.9910149,0.85 13.35,0.85 C13.7089851,0.85 14,1.14101491 14,1.5 C14,1.85898509 13.7089851,2.15 13.35,2.15 Z M15.8,3.8 C15.5238576,3.8 15.3,3.57614237 15.3,3.3 C15.3,3.02385763 15.5238576,2.8 15.8,2.8 C16.0761424,2.8 16.3,3.02385763 16.3,3.3 C16.3,3.57614237 16.0761424,3.8 15.8,3.8 Z M15.25,5.5 C14.9462434,5.5 14.7,5.25375661 14.7,4.95 C14.7,4.64624339 14.9462434,4.4 15.25,4.4 C15.5537566,4.4 15.8,4.64624339 15.8,4.95 C15.8,5.25375661 15.5537566,5.5 15.25,5.5 Z M14.75,2.85 C14.4462434,2.85 14.2,2.60375661 14.2,2.3 C14.2,1.99624339 14.4462434,1.75 14.75,1.75 C15.0537566,1.75 15.3,1.99624339 15.3,2.3 C15.3,2.60375661 15.0537566,2.85 14.75,2.85 Z" class="fill fill-black" />
        </g>
        <g id="iota/3" transform="translate(26.146152, 16.661216) rotate(120.000000) translate(-26.146152, -16.661216) translate(17.646152, 10.661216)" fill="#000000">
            <path d="M2.3,11.7 C1.52680135,11.7 0.9,11.0731986 0.9,10.3 C0.9,9.52680135 1.52680135,8.9 2.3,8.9 C3.07319865,8.9 3.7,9.52680135 3.7,10.3 C3.7,11.0731986 3.07319865,11.7 2.3,11.7 Z M5.3,9.3 C4.6372583,9.3 4.1,8.7627417 4.1,8.1 C4.1,7.4372583 4.6372583,6.9 5.3,6.9 C5.9627417,6.9 6.5,7.4372583 6.5,8.1 C6.5,8.7627417 5.9627417,9.3 5.3,9.3 Z M4.1,6.4 C3.4372583,6.4 2.9,5.8627417 2.9,5.2 C2.9,4.5372583 3.4372583,4 4.1,4 C4.7627417,4 5.3,4.5372583 5.3,5.2 C5.3,5.8627417 4.7627417,6.4 4.1,6.4 Z M8.15,7.9 C7.57010101,7.9 7.1,7.42989899 7.1,6.85 C7.1,6.27010101 7.57010101,5.8 8.15,5.8 C8.72989899,5.8 9.2,6.27010101 9.2,6.85 C9.2,7.42989899 8.72989899,7.9 8.15,7.9 Z M6.95,5 C6.37010101,5 5.9,4.52989899 5.9,3.95 C5.9,3.37010101 6.37010101,2.9 6.95,2.9 C7.52989899,2.9 8,3.37010101 8,3.95 C8,4.52989899 7.52989899,5 6.95,5 Z M6.55,2.4 C5.97010101,2.4 5.5,1.92989899 5.5,1.35 C5.5,0.770101013 5.97010101,0.3 6.55,0.3 C7.12989899,0.3 7.6,0.770101013 7.6,1.35 C7.6,1.92989899 7.12989899,2.4 6.55,2.4 Z M10.8,7.4 C10.3029437,7.4 9.9,6.99705627 9.9,6.5 C9.9,6.00294373 10.3029437,5.6 10.8,5.6 C11.2970563,5.6 11.7,6.00294373 11.7,6.5 C11.7,6.99705627 11.2970563,7.4 10.8,7.4 Z M9.6,4.4 C9.10294373,4.4 8.7,3.99705627 8.7,3.5 C8.7,3.00294373 9.10294373,2.6 9.6,2.6 C10.0970563,2.6 10.5,3.00294373 10.5,3.5 C10.5,3.99705627 10.0970563,4.4 9.6,4.4 Z M9.2,1.8 C8.70294373,1.8 8.3,1.39705627 8.3,0.9 C8.3,0.402943725 8.70294373,-4.49640325e-14 9.2,-4.49640325e-14 C9.69705627,-4.49640325e-14 10.1,0.402943725 10.1,0.9 C10.1,1.39705627 9.69705627,1.8 9.2,1.8 Z M13.05,7.3 C12.6357864,7.3 12.3,6.96421356 12.3,6.55 C12.3,6.13578644 12.6357864,5.8 13.05,5.8 C13.4642136,5.8 13.8,6.13578644 13.8,6.55 C13.8,6.96421356 13.4642136,7.3 13.05,7.3 Z M11.85,4.4 C11.4357864,4.4 11.1,4.06421356 11.1,3.65 C11.1,3.23578644 11.4357864,2.9 11.85,2.9 C12.2642136,2.9 12.6,3.23578644 12.6,3.65 C12.6,4.06421356 12.2642136,4.4 11.85,4.4 Z M11.45,1.8 C11.0357864,1.8 10.7,1.46421356 10.7,1.05 C10.7,0.635786438 11.0357864,0.3 11.45,0.3 C11.8642136,0.3 12.2,0.635786438 12.2,1.05 C12.2,1.46421356 11.8642136,1.8 11.45,1.8 Z M14.95,7.7 C14.5910149,7.7 14.3,7.40898509 14.3,7.05 C14.3,6.69101491 14.5910149,6.4 14.95,6.4 C15.3089851,6.4 15.6,6.69101491 15.6,7.05 C15.6,7.40898509 15.3089851,7.7 14.95,7.7 Z M13.7,4.8 C13.3410149,4.8 13.05,4.50898509 13.05,4.15 C13.05,3.79101491 13.3410149,3.5 13.7,3.5 C14.0589851,3.5 14.35,3.79101491 14.35,4.15 C14.35,4.50898509 14.0589851,4.8 13.7,4.8 Z M13.35,2.15 C12.9910149,2.15 12.7,1.85898509 12.7,1.5 C12.7,1.14101491 12.9910149,0.85 13.35,0.85 C13.7089851,0.85 14,1.14101491 14,1.5 C14,1.85898509 13.7089851,2.15 13.35,2.15 Z M15.8,3.8 C15.5238576,3.8 15.3,3.57614237 15.3,3.3 C15.3,3.02385763 15.5238576,2.8 15.8,2.8 C16.0761424,2.8 16.3,3.02385763 16.3,3.3 C16.3,3.57614237 16.0761424,3.8 15.8,3.8 Z M15.25,5.5 C14.9462434,5.5 14.7,5.25375661 14.7,4.95 C14.7,4.64624339 14.9462434,4.4 15.25,4.4 C15.5537566,4.4 15.8,4.64624339 15.8,4.95 C15.8,5.25375661 15.5537566,5.5 15.25,5.5 Z M14.75,2.85 C14.4462434,2.85 14.2,2.60375661 14.2,2.3 C14.2,1.99624339 14.4462434,1.75 14.75,1.75 C15.0537566,1.75 15.3,1.99624339 15.3,2.3 C15.3,2.60375661 15.0537566,2.85 14.75,2.85 Z" class="fill fill-black" />
        </g>
    </g>
</svg>