<?xml version="1.0" encoding="UTF-8"?>
<svg width="40px" height="40px" viewBox="0 0 40 40" version="1.1" xmlns="http://www.w3.org/2000/svg" xmlns:xlink="http://www.w3.org/1999/xlink">
    <!-- Generator: Sketch 52.4 (67378) - http://www.bohemiancoding.com/sketch -->
    <title>coin/kmd</title>
    <desc>Created with Sketch.</desc>
    <g id="coin/kmd" stroke="none" stroke-width="1" fill="none" fill-rule="evenodd">
        <polygon id="Path-29" fill="#FABB31" points="20 12 14 14 10 10.5 10.5 10 20 6"></polygon>
        <polygon id="Path-29" fill="#598282" points="14 14 11.5 20 14 26 20 28 20 34 10.5 30 10 29.5 6 20 10 10.5"></polygon>
        <polygon id="Path-29" fill="#598282" points="20 14 20 26 15.5 24.5 14 20 15.5 15.5"></polygon>
        <polygon id="Path-29" fill="#326464" points="20 14 20 26 24.5 24.5 26 20 24.5 15.5"></polygon>
        <polygon id="Path-29" fill="#326464" points="30 29.5 29.5 30 20 34 20 28 26 26 28.5 20 26 14 29.9650255 10.5 34 20"></polygon>
        <polygon id="Path-29" fill="#F9A900" points="20 12 26 14 29.9650255 10.5 29.5 10 20 6"></polygon>
    </g>
</svg>