<?xml version="1.0" encoding="UTF-8"?>
<svg width="40px" height="40px" viewBox="0 0 40 40" version="1.1" xmlns="http://www.w3.org/2000/svg" xmlns:xlink="http://www.w3.org/1999/xlink">
    <path d="M8,31 L8,31 C9.1045695,31 10,30.1045695 10,29 L10,23 C10,21.8954305 10.8954305,21 12,21 L12,21 C13.1045695,21 14,21.8954305 14,23 L14,29 C14,30.1045695 14.8954305,31 16,31 L16,31 C17.1045695,31 18,30.1045695 18,29 L18,23 C18,21.8954305 18.8954305,21 20,21 L20,21 C21.1045695,21 22,21.8954305 22,23 L22,29 C22,30.1045695 22.8954305,31 24,31 L24,31 C25.1045695,31 26,30.1045695 26,29 L26,23 C26,21.8954305 26.8954305,21 28,21 L28,21 C29.1045695,21 30,21.8954305 30,23 L30,29 C30,30.1045695 30.8954305,31 32,31 L32,31 C33.1045695,31 34,30.1045695 34,29 C34,27 34,25 34,23 C34,15.2680135 27.7319865,9 20,9 C12.2680135,9 6,15.2680135 6,23 C6,25 6,27 6,29 L6,29 C6,30.1045695 6.8954305,31 8,31 Z" fill="#5841d8" class="fill" />
</svg>