<?xml version="1.0" encoding="UTF-8"?>
<svg width="40px" height="40px" viewBox="0 0 40 40" version="1.1" xmlns="http://www.w3.org/2000/svg" xmlns:xlink="http://www.w3.org/1999/xlink">
	<path d="M18.5074627,22.0149254 L29.8499711,28.2875228 C30.1910347,28.4796993 30.2469711,28.9236602 29.984881,29.1915481 L29.9127139,29.2546042 L22.2511179,34.8824807 C21.9274446,35.119454 21.4595055,34.9800318 21.3273279,34.6255263 L21.3030041,34.5399727 L18.5074627,22.0149254 Z M18.9540063,6.06776612 L18.9411524,6.16056266 L16.0434946,19.7795072 L18.9411524,33.3916761 C19.048473,33.8954615 18.5200395,34.2672049 18.0996037,34.0324022 L18.0222192,33.9811529 L10.6036787,28.2625513 C10.26383,28.003573 10.0511761,27.6107558 10.0081153,27.1887915 L10,27.0293931 L10,12.5228457 C10,12.0952304 10.1748929,11.6836758 10.4822805,11.3928736 L10.6036787,11.2896875 L18.0222192,5.57108596 C18.4262499,5.25861149 18.984763,5.58233954 18.9540063,6.06776612 Z M30.1623271,13.5862411 C30.5560351,13.362844 31.0447761,13.640398 31.0447761,14.0939619 L31.0447761,14.0939619 L31.0447761,25.9069317 C31.0447761,26.353726 30.5560351,26.6380496 30.1623271,26.4146525 L30.1623271,26.4146525 L18.9552239,20.0038316 Z M22.1799831,5.07116231 L22.2583147,5.12046987 L29.9133994,10.7470559 C30.2287412,10.982573 30.2232958,11.4297694 29.9244807,11.6608857 L29.8436809,11.7139155 L18.5074627,17.9850746 L21.3031721,5.46289932 C21.3873322,5.0763473 21.8321786,4.88663398 22.1799831,5.07116231 Z" fill="#31CB9E" class="fill" stroke="none" />
</svg>