<?xml version="1.0" encoding="UTF-8"?>
<svg width="40px" height="40px" viewBox="0 0 40 40" version="1.1" xmlns="http://www.w3.org/2000/svg" xmlns:xlink="http://www.w3.org/1999/xlink">
	<path fill="#345D9D" fill-rule="nonzero" class="fill" d="M15.9690043,21.9139868 L14,28 L25.1402138,28 C25.3551414,28 25.5460231,27.8626468 25.6143077,27.6588551 L26.3286023,25.5270841 C26.3423282,25.4861199 26.3493272,25.4432026 26.3493272,25.4 C26.3493272,25.1790861 26.1702411,25 25.9493272,25 L19,25 L20.2453532,20.6412639 L22.4,20 L23,18 L20.8038433,18.6865486 L22.8543176,11.5098885 C22.864528,11.4741519 22.869708,11.4371666 22.869708,11.4 C22.869708,11.1790861 22.6906219,11 22.469708,11 L19.863752,11 C19.646907,11 19.454779,11.1397739 19.3880298,11.3460899 L16.5866497,20.0049008 L14.5,20.657216 L14,22.5 L15.9690043,21.9139868 Z M19.9999365,7 C27.2081337,7 33.0313498,12.8232161 32.999873,19.9999365 C32.999873,27.1766569 27.1766569,32.999873 19.9999365,32.999873 C12.8232161,32.999873 7,27.1766569 7,19.9999365 C7,12.8232161 12.8232161,7 19.9999365,7 Z" />
</svg>