<?xml version="1.0" encoding="UTF-8"?>
<svg width="40px" height="40px" viewBox="0 0 40 40" version="1.1" xmlns="http://www.w3.org/2000/svg" xmlns:xlink="http://www.w3.org/1999/xlink">
    <g id="loom" stroke="none" stroke-width="1" fill="none" fill-rule="evenodd">
        <path d="M26.9883411,32.2098394 L8.2503202,19.1748674 C7.73574662,18.8169079 7.29307061,18.3653821 6.94536563,17.8438246 C5.41360333,15.5461812 6.03447267,12.4418345 8.33211612,10.9100722 L13.0119774,7.79016465 L31.7498192,20.825185 C32.2643603,21.1831267 32.707012,21.6346235 33.0547048,22.1561449 C34.586503,24.4537643 33.9656823,27.5581208 31.6680628,29.0899191 L26.9883411,32.2098394 Z M30.5586364,27.4258358 C31.9372081,26.5067569 32.3097005,24.644143 31.3906215,23.2655713 C31.1820059,22.9526585 30.9164149,22.6817604 30.6076902,22.4669954 L12.9880226,10.2098354 L9.44151651,12.5741728 C8.06293044,13.4932301 7.69040884,15.3558382 8.60946621,16.7344242 C8.8180892,17.0473587 9.08369481,17.3182742 9.39243896,17.5330499 L27.0122695,29.7901606 L30.5586364,27.4258358 Z" id="1" fill="#4BC0C8" fill-rule="nonzero"></path>
        <path d="M21.3228304,16.0079625 L23.0081147,14.7439993 L31.7498192,20.825185 C32.2643603,21.1831267 32.707012,21.6346235 33.0547048,22.1561449 C34.586503,24.4537643 33.9656823,27.5581208 31.6680628,29.0899191 L26.9883411,32.2098394 L21.6612927,28.5041158 L23.3465805,27.2401499 L27.0122695,29.7901606 L30.5586364,27.4258358 C31.9372081,26.5067569 32.3097005,24.644143 31.3906215,23.2655713 C31.1820059,22.9526585 30.9164149,22.6817604 30.6076902,22.4669954 L21.3228304,16.0079625 Z M16.6362406,12.7477262 L12.9880226,10.2098354 L9.44151651,12.5741728 C8.06293044,13.4932301 7.69040884,15.3558382 8.60946621,16.7344242 C8.8180892,17.0473587 9.08369481,17.3182742 9.39243896,17.5330499 L18.6686124,23.9859545 L16.9721568,25.2421514 L8.2503202,19.1748674 C7.73574662,18.8169079 7.29307061,18.3653821 6.94536563,17.8438246 C5.41360333,15.5461812 6.03447267,12.4418345 8.33211612,10.9100722 L13.0119774,7.79016465 L18.3340341,11.492465 L16.6362406,12.7477262 Z" id="2" fill="#02819B" fill-rule="nonzero" transform="translate(20.000057, 20.000002) scale(-1, 1) translate(-20.000057, -20.000002) "></path>
    </g>
</svg>