<?xml version="1.0" encoding="UTF-8"?>
<svg width="40px" height="40px" viewBox="0 0 40 40" version="1.1" xmlns="http://www.w3.org/2000/svg" xmlns:xlink="http://www.w3.org/1999/xlink">
    <!-- Generator: Sketch 52.4 (67378) - http://www.bohemiancoding.com/sketch -->
    <title>coin/maid</title>
    <desc>Created with Sketch.</desc>
    <g id="coin/maid" stroke="none" stroke-width="1" fill="none" fill-rule="evenodd">
        <path d="M23.5,26 L8,17 C19.3333333,10.6666667 25,7.5 25,7.5 C26.3333333,6.83333333 27.6666667,6.83333333 29,7.5 L32,9 L16.5,17.5 L23.5,21.5 L23.5,26 Z" id="l" fill="#5592D7"></path>
        <path d="M23.5,17.5 L27,15.5 L27,33 C16.3333333,27 11,24 11,24 C9,22.6666667 8,21.3333333 8,20 L8,17 L23.5,26 L23.5,17.5 Z" id="v" fill="#99BEE7"></path>
        <path d="M16.5,17.5 L32,9 C32,19.962963 32,26.2962963 32,28 C32,29.7037037 31.3333333,30.8703704 30,31.5 L27,33 L27,15.5 L20,19.5 L16.5,17.5 Z" id="1" fill="#29578A"></path>
    </g>
</svg>