<?xml version="1.0" encoding="UTF-8"?>
<svg width="40px" height="40px" viewBox="0 0 40 40" version="1.1" xmlns="http://www.w3.org/2000/svg" xmlns:xlink="http://www.w3.org/1999/xlink">
	<path fill="#006CF7" class="fill" d="M12,10 L24,17 L20,19 L8,12 L12,10 Z M28,10 L32,12 L28,14 L24,12 L28,10 Z" />
	<path fill="#0092FF" class="fill" d="M24,12 L28,14 L28,30 L24,28 L24,12 Z M8,12 L20,19 L20,25 L12,20 L12,30 L8,28 L8,12 Z" />
	<path fill="#01C0FC" class="fill" d="M32,12 L32,28 L28,30 L28,14 L32,12 Z M24,17 L24,23 L20,25 L20,19 L24,17 Z M12,20 L16,22.5 L16,28 L12,30 L12,20 Z" />
</svg>