<?xml version="1.0" encoding="UTF-8"?>
<svg width="40px" height="40px" viewBox="0 0 40 40" version="1.1" xmlns="http://www.w3.org/2000/svg" xmlns:xlink="http://www.w3.org/1999/xlink">
    <defs>
        <linearGradient x1="50%" y1="0%" x2="50%" y2="100%" id="linearGradient-1">
            <stop stop-color="#1EC3FD" offset="0%"></stop>
            <stop stop-color="#386BE8" offset="100%"></stop>
        </linearGradient>
    </defs>
    <g id="mixin" stroke="none" stroke-width="1" fill="none" fill-rule="evenodd">
        <path d="M14.2480645,16.3552957 L19.7480645,13.1469624 C19.9037457,13.0561483 20.0962543,13.0561483 20.2519355,13.1469624 L25.7519355,16.3552957 C25.9055444,16.4449009 26,16.6093516 26,16.7871852 L26,23.2133929 C26,23.3909159 25.9058712,23.5551281 25.7526864,23.6448434 L20.2755917,26.8525978 C20.1200671,26.9436835 19.9275566,26.9440174 19.771717,26.8534717 L14.2488117,23.6445641 C14.0947812,23.5550696 14,23.3903819 14,23.2122396 L14,16.7871852 C14,16.6093516 14.0944556,16.4449009 14.2480645,16.3552957 Z M29.2763932,10.8618034 L34.2763932,8.3618034 C34.5233825,8.23830877 34.823719,8.33842095 34.9472136,8.5854102 C34.9819275,8.65483791 35,8.73139445 35,8.80901699 L35,31.190983 C35,31.4671254 34.7761424,31.690983 34.5,31.690983 C34.4223775,31.690983 34.3458209,31.6729105 34.2763932,31.6381966 L29.2763932,29.1381966 C29.1070012,29.0535006 29,28.880369 29,28.690983 L29,11.309017 C29,11.119631 29.1070012,10.9464994 29.2763932,10.8618034 Z M5.7236068,8.3618034 L10.7236068,10.8618034 C10.8929988,10.9464994 11,11.119631 11,11.309017 L11,28.690983 C11,28.880369 10.8929988,29.0535006 10.7236068,29.1381966 L5.7236068,31.6381966 C5.47661755,31.7616912 5.17628103,31.6615791 5.0527864,31.4145898 C5.01807255,31.3451621 5,31.2686056 5,31.190983 L5,8.80901699 C5,8.53287462 5.22385763,8.30901699 5.5,8.30901699 C5.57762255,8.30901699 5.65417908,8.32708954 5.7236068,8.3618034 Z" id="mixin" fill="url(#linearGradient-1)"></path>
    </g>
</svg>