<?xml version="1.0" encoding="UTF-8"?>
<svg width="40px" height="40px" viewBox="0 0 40 40" version="1.1" xmlns="http://www.w3.org/2000/svg" xmlns:xlink="http://www.w3.org/1999/xlink">
	<circle fill="#DEC799" class="fill" cx="20" cy="20" r="14" />
	<path fill="white" class="fill fill-bg" d="M26.105,11 L23.5,15 C21.5,14.5 18.5,14.5 16.5,15 L13.902,11 L12.5,17 C10.83,18.33 10,20.003 10,22.009 C10,26 14,29 20,29 C26,29 30,26 30,22 C30,20 29.17,18.33 27.5,17 L26.105,11 Z M14.5,20.5 L13.5,20.5 L15,18.5 L16.5,18.5 L14.5,20.5 Z M17,20 L17.863,19.672 L18.48,20.757 L21.501,20.757 L22.145,19.667 L23,20 L20,25 L17,20 Z M25.5,20.5 L23.5,18.5 L25,18.5 L26.5,20.5 L25.5,20.5 Z M18.926,21.545 L21.034,21.545 L20,23.5 L18.926,21.545 Z" />
</svg>