<?xml version="1.0" encoding="UTF-8"?>
<svg width="40px" height="40px" viewBox="0 0 40 40" version="1.1" xmlns="http://www.w3.org/2000/svg" xmlns:xlink="http://www.w3.org/1999/xlink">
    <!-- Generator: Sketch 52.4 (67378) - http://www.bohemiancoding.com/sketch -->
    <title>coin/nano</title>
    <desc>Created with Sketch.</desc>
    <g id="coin/nano" stroke="none" stroke-width="1" fill="none" fill-rule="evenodd">
        <circle id="Oval" fill="#4A90E2" cx="6.5" cy="26.5" r="2.5"></circle>
        <path d="M32,16.5 C32,18.5 31.5,19 29.5,19 C28,19 27,20 27,21.5 C27,23.5 26.5,24 24.5,24 C23,24 22,25 22,26.5 C22,28 23,29 24.5,29 C26,29 27,28 27,26.5 C27,24.5 27.5,24 29.5,24 C31,24 32,23 32,21.5 C32,19.5 32.5,19 34.5,19 C36,19 37,18 37,16.5 C37,15 36,14 34.45,14 C33,14 32,15 32,16.5 Z" id="Path" fill="#4A90E2" fill-rule="nonzero"></path>
        <path d="M20.5,19 C18.5,19 18,18.4 18,16.5 C18,15 17,14 15.5,14 C14,14 13,15 13,16.5 C13,19 12.5,19 10.5,19 C9,19 8,20 8,21.5 C8,23 9.15,24 10.5,24 C12,24 13,23 13,21.5 C13,19.5 13.5,19 15.5,19 C17.5,19 18,19.5 18,21.5 C18,23 19,24 20.5,24 C22,24 23,23 23,21.5 C23,20 22,19 20.5,19 Z" id="Path" fill="#4A90E2" fill-rule="nonzero"></path>
    </g>
</svg>