<?xml version="1.0" encoding="UTF-8"?>
<svg width="40px" height="40px" viewBox="0 0 40 40" version="1.1" xmlns="http://www.w3.org/2000/svg" xmlns:xlink="http://www.w3.org/1999/xlink">
    <g id="coin/xem" stroke="none">
        <path d="M14,20 C17.5,20 20.5,17.5 20.5,14 C20.5,10 23,8 25.5,7 C25.5,7 23.5,6.5 21,6.5 C16,6.5 11.3398816,7.99607104 8,10 C8,11 8,10.6862915 8,14 C8,17.3137085 10.5,20 14,20 Z" id="o" fill="#FFA400"></path>
        <path d="M24.5,23.5 C30.5,23.5 28.5,16.5 37,16.5 C32.5,13 27.5,11 20.5,11 C20.5,11 18.5,14.1862915 18.5,17.5 C18.5,20.8137085 21.1862918,23.5 24.5,23.5 Z" id="b" fill="#4AB3EC" transform="translate(27.750000, 17.250000) rotate(90.000000) translate(-27.750000, -17.250000) "></path>
        <path d="M18.5,35 C22,35 25,32.9227691 25,29 C25,25 21,23 25,17.5 C18.5,20 13.5,25 11.5,29 C12.5,31 15,35 18.5,35 Z" id="g" fill="#00C8B3" transform="translate(18.250000, 26.250000) rotate(270.000000) translate(-18.250000, -26.250000) "></path>
    </g>
</svg>