<?xml version="1.0" encoding="UTF-8"?>
<svg width="40px" height="40px" viewBox="0 0 40 40" version="1.1" xmlns="http://www.w3.org/2000/svg" xmlns:xlink="http://www.w3.org/1999/xlink">
	<circle class="fill fill-black" fill="black" cx="20" cy="21" r="2" />
	<circle class="fill fill-black" fill="black" cx="20" cy="15" r="2" />
	<circle class="fill fill-black" fill="black" cx="20" cy="9" r="2" />
	<circle class="fill fill-black" fill="black" cx="20" cy="26.5" r="1.5" />
	<circle class="fill fill-black" fill="black" cx="20" cy="31" r="1" />
	<circle class="fill fill-black" fill="black" cx="20" cy="34.5" r="1" />
	<circle class="fill fill-black" fill="black" cx="25" cy="18" r="2" />
	<circle class="fill fill-black" fill="black" cx="25" cy="12" r="2" />
	<circle class="fill fill-black" fill="black" cx="25" cy="23.5" r="1.5" />
	<circle class="fill fill-black" fill="black" cx="25" cy="28" r="1" />
	<circle class="fill fill-black" fill="black" cx="25" cy="31.5" r="1" />
	<circle class="fill fill-black" fill="black" cx="15" cy="18" r="2" />
	<circle class="fill fill-black" fill="black" cx="15" cy="12" r="2" />
	<circle class="fill fill-black" fill="black" cx="15" cy="23.5" r="1.5" />
	<circle class="fill fill-black" fill="black" cx="15" cy="28" r="1" />
	<circle class="fill fill-black" fill="black" cx="15" cy="31.5" r="1" />
	<circle class="fill fill-black" fill="black" cx="30" cy="15" r="2" />
	<circle class="fill fill-black" fill="black" cx="30" cy="20.5" r="1.5" />
	<circle class="fill fill-black" fill="black" cx="30" cy="25" r="1" />
	<circle class="fill fill-black" fill="black" cx="30" cy="28.5" r="1" />
	<circle class="fill fill-black" fill="black" cx="10" cy="15" r="2" />
	<circle class="fill fill-black" fill="black" cx="10" cy="20.5" r="1.5" />
	<circle class="fill fill-black" fill="black" cx="10" cy="25" r="1" />
	<circle class="fill fill-black" fill="black" cx="10" cy="28.5" r="1" />
</svg>