<?xml version="1.0" encoding="UTF-8"?>
<svg width="40px" height="40px" viewBox="0 0 40 40" version="1.1" xmlns="http://www.w3.org/2000/svg" xmlns:xlink="http://www.w3.org/1999/xlink">
	<path fill="#0082FF" class="fill" d="M20,12 C16,12 13.5,15.58 13.5,20 C13.5,20.94 13.61,21.84 13.83,22.67 L9.88,26.61 C8.98,24.7 8.5,22.46 8.5,20 C8.5,12.5 13,7 20,7 C24.382516,7 28,9.5 29.5,12.5 L16,26.4763486 C17.06,27.4347478 18.4,28 20,28 C24,28 26.5,24.42 26.5,20 C26.5,19.06 26.38,18.16 26.17,17.33 L30.11,13.38 C31.01,15.29 31.5,17.54 31.5,20 C31.5,27.5 27,33 20,33 C15.62,33 12.43,30.95 10.5,27.5 L24,13.53 C22.95,12.57 21.6,12 20,12 Z" />
</svg>