<?xml version="1.0" encoding="UTF-8"?>
<svg width="40px" height="40px" viewBox="0 0 40 40" version="1.1" xmlns="http://www.w3.org/2000/svg" xmlns:xlink="http://www.w3.org/1999/xlink">
	<path fill="#EDE70A" class="fill" d="M11.8423102,29.9595576 C9.79750164,29.4220907 6,27.9230769 6,25 C6,21 8,19 8.5,17 C9,15 8,12 10,10 C11.8666667,8.13333333 12.8622222,8 15.4257778,8 L16,8 C17.3333333,6.66666667 18.8333333,6 20.5,6 C23,6 25.9300509,9 30.9650255,9.5 C35.8263802,9.98275862 35.0617896,13.7282996 34.1032008,16.6862725 L34,17 L34,17 L34.1816406,17.3085938 C35.0605469,18.8320313 35.5,20.0625 35.5,21 C35.5,25 31,26 28,28 C25,30 23.9227691,34 19,34 C16.3333333,34 14,32.6666667 12,30 L12,30 Z" />
	<path fill="#DEC21C" class="fill" d="M25,10 C29,10 32.5,14 34,17 C33.0333333,19.9 31.0995405,23.7344444 27.3901022,26.6967407 L12,30 L12,30 C5,19 12,12 16,8 C17.9259259,8 22.0437433,8.62622568 25,10 L25,10 Z" />
	<path fill="#CCA727" class="fill" d="M25,10 C14,10 10,17 10,22 C10,26 11,28 12,30 C17,31 23,31 27,27 C31,23 32,14 25,10 Z" />
	<circle fill="white" class="fill-bg" cx="20" cy="20" r="8" />
</svg>