<?xml version="1.0" encoding="UTF-8"?>
<svg width="40px" height="40px" viewBox="0 0 40 40" version="1.1" xmlns="http://www.w3.org/2000/svg" xmlns:xlink="http://www.w3.org/1999/xlink">
	<path d="M6,25 C6,28 10,29.5 12,30 C12,30 16,8 16,8 C13,8 12,8 10,10 C8,12 9,15 8.5,17 C8,19 6,21 6,25 Z" fill="#B2D234" class="fill" />
	<path d="M34,17 C35,14 36,10 30.9650255,9.5 C25.9300509,9 23,6 20.5,6 C18.8333333,6 17.3333333,6.66666667 16,8 C28,14 34,17 34,17 Z" fill="#ECE810" class="fill" />
	<path d="M19,34 C23.9227691,34 25,30 28,28 C31,26 35.5,25 35.5,21 C35.5,20 35,18.6666667 34,17 L12,30 C14,32.6666667 16.3333333,34 19,34 Z" fill="#0095DA" class="fill" />
	<path d="M25,10 C29,10 32.5,14 34,17 C33,20 30.9650255,24 27,27 C27,27 25,10 25,10 Z" fill="#00845D" class="fill" />
	<path d="M25,10 C25,10 12,30 12,30 C5,19 12,12 16,8 C18,8 22,8.5 25,10 Z" fill="#4DB848" class="fill" />
	<path d="M25,10 C14,10 10,17 10,22 C10,26 11,28 12,30 C17,31 23,31 27,27 C31,23 32,14 25,10 Z" fill="#005120" class="fill" />
	<circle fill="white" cx="20" cy="20" r="8" class="fill-bg" />
</svg>