<?xml version="1.0" encoding="UTF-8"?>
<svg width="40px" height="40px" viewBox="0 0 40 40" version="1.1" xmlns="http://www.w3.org/2000/svg" xmlns:xlink="http://www.w3.org/1999/xlink">
	<path fill="#E0B951" class="fill" d="M8,23 L14,23 L14,33 L11,33 L11,26 L8,26 L8,23 Z M22.7551603,24.9962434 L22.5,25 L19,25 L19,33 L16,33 L16,23 L27.9759961,23.0012825 C26.5573769,24.1974067 24.7418197,24.9376723 22.7551603,25 Z M11,8 L22.5,8 C27.1944204,8 31,11.8055796 31,16.5 C31,18.1529768 30.5281647,19.7 29.7118304,21 L16,21 L16,8 L22.5,8 Z M21.5,14 L19,14 L19,19 L21.5,19 C23,19 24,18 24,16.5 C24,15 23,14 21.5,14 Z M14,21 L8,21 L8,18 L11,18 L11,8 L14,8 L14,21 Z" />
</svg>