<?xml version="1.0" encoding="UTF-8"?>
<svg width="40px" height="40px" viewBox="0 0 40 40" version="1.1" xmlns="http://www.w3.org/2000/svg" xmlns:xlink="http://www.w3.org/1999/xlink">
    <!-- Generator: Sketch 52.4 (67378) - http://www.bohemiancoding.com/sketch -->
    <title>coin/ppt</title>
    <desc>Created with Sketch.</desc>
    <g id="coin/ppt" stroke="none" stroke-width="1" fill="none" fill-rule="evenodd">
        <circle id="Oval" fill="#293D5D" cx="20" cy="20" r="13"></circle>
        <path d="M19,16 C21,16 22.3333333,16 23,16 C24,16 25,17 25,18 C25,19 25,22 25,23 C25,24 24,25 23,25 C22.3333333,25 21.6666667,25 21,25 L21,29 L19,29 L19,16 Z M21,18 L21,23 L22.5,23 C22.7761424,23 23,22.7761424 23,22.5 L23,18.5 C23,18.2238576 22.7761424,18 22.5,18 L21,18 Z" id="p-2" fill="#FFFFFF"></path>
        <path d="M18,16 L18,25 L16,25 L16,18 C16,16.8954305 16.8954305,16 18,16 Z" id="i" fill="#5CA0F6"></path>
        <circle id="Oval" fill="#5CA0F6" cx="19.8" cy="13.1" r="1.6"></circle>
    </g>
</svg>