<?xml version="1.0" encoding="UTF-8"?>
<svg width="40px" height="40px" viewBox="0 0 40 40" version="1.1" xmlns="http://www.w3.org/2000/svg" xmlns:xlink="http://www.w3.org/1999/xlink">
	<path fill="#FFCC00" fill-rule="nonzero" class="fill" d="M21,22 L21,13 L19,13 L19,22 L18,22 C15,22 14,20 14,17 C14,15 14,13.66 14,13 L12,13 C12,12.33 12,13.66 12,17 C12,22 14,24 18,24 L19,24 L19,25.5 L16,25.5 L16,27 L19,27 L19,29 L21,29 L21,27 L24,27 L24,25.5 L21,25.5 L21,24 L22,24 C26,24 28,22 28,17 C28,13.66 28,12.33 28,13 L26,13 C26,13.66 26,15 26,17 C26,20 24.9227691,22 22,22 L21,22 Z M20,34 C12.27,34 6,27.73 6,20 C6,12.27 12.27,6 20,6 C27.73,6 34,12.27 34,20 C34,27.73 27.73,34 20,34 Z" />
</svg>