<?xml version="1.0" encoding="UTF-8"?>
<svg width="40px" height="40px" viewBox="0 0 40 40" version="1.1" xmlns="http://www.w3.org/2000/svg" xmlns:xlink="http://www.w3.org/1999/xlink">
    <!-- Generator: Sketch 52.4 (67378) - http://www.bohemiancoding.com/sketch -->
    <title>coin/qtum</title>
    <desc>Created with Sketch.</desc>
    <g id="coin/qtum" stroke="none" stroke-width="1" fill="none" fill-rule="evenodd">
        <circle id="o" fill="#29A7E1" cx="7" cy="20" r="1"></circle>
        <circle id="o" fill="#29A7E1" cx="10" cy="20" r="1"></circle>
        <circle id="o" fill="#29A7E1" cx="13" cy="26" r="1"></circle>
        <circle id="o" fill="#29A7E1" cx="20" cy="27" r="1"></circle>
        <circle id="o" fill="#29A7E1" cx="27" cy="26" r="1"></circle>
        <circle id="O" fill="#29A7E1" cx="34" cy="31" r="1.5"></circle>
        <polygon id="Rectangle" stroke="#29A7E1" stroke-linecap="round" points="16 8 24 8 30.5 12.5 33 20 30.5 27.5 24 32 16 32 9.5 27.5 7 20 9.5 12.5"></polygon>
        <polyline id="mesh" stroke="#29A7E1" stroke-linecap="round" points="27 14 24 20 20 27 16 20 20 13 24 20 27 26 30 20 27 14 20 13 13 14 10 20 13 26 20 27 27 26 24 32 20 27 16 32 13 26 9.5 27.5 10 20 9.5 12.5 13 14 16 8 20 13 24 8 27 14 30.5 12.5 30 20 30.5 27.5 27 26"></polyline>
        <circle id="o" fill="#29A7E1" cx="16" cy="20" r="1"></circle>
        <circle id="o" fill="#29A7E1" cx="24" cy="20" r="1"></circle>
        <circle id="o" fill="#29A7E1" cx="30" cy="20" r="1"></circle>
        <circle id="o" fill="#29A7E1" cx="33" cy="20" r="1"></circle>
        <circle id="o" fill="#29A7E1" cx="13" cy="14" r="1"></circle>
        <circle id="o" fill="#29A7E1" cx="16" cy="8" r="1"></circle>
        <circle id="o" fill="#29A7E1" cx="16" cy="32" r="1"></circle>
        <circle id="o" fill="#29A7E1" cx="24" cy="8" r="1"></circle>
        <circle id="o" fill="#29A7E1" cx="24" cy="32" r="1"></circle>
        <circle id="o" fill="#29A7E1" cx="27" cy="14" r="1"></circle>
        <circle id="o" fill="#29A7E1" cx="20" cy="13" r="1"></circle>
        <circle id="o" fill="#29A7E1" cx="9.5" cy="12.5" r="1"></circle>
        <circle id="o" fill="#29A7E1" cx="30.5" cy="12.5" r="1"></circle>
        <circle id="o" fill="#29A7E1" cx="9.5" cy="27.5" r="1"></circle>
        <circle id="o" fill="#29A7E1" cx="30.5" cy="27.5" r="1"></circle>
        <path d="M30.5,27.5 L34,31" id="Rectangle" stroke="#29A7E1" stroke-linecap="round"></path>
        <polyline id="Rectangle" stroke="#29A7E1" stroke-linecap="round" points="13 14 16 20 13 26"></polyline>
        <path d="M7,20 L33,20" id="Rectangle" stroke="#29A7E1" stroke-linecap="round"></path>
    </g>
</svg>