<?xml version="1.0" encoding="UTF-8"?>
<svg width="40px" height="40px" viewBox="0 0 40 40" version="1.1" xmlns="http://www.w3.org/2000/svg" xmlns:xlink="http://www.w3.org/1999/xlink">
	<path d="M7,13 L13.5,16 L13.5,24 L7,27 L7,13 Z M33,13 L33,21 L26.5,24 L26.5,16 L33,13 Z" fill="#938FBE" class="fill" />
	<polygon fill="#87F1E3" fill-rule="nonzero" points="33 27.5 33 35 26.5 31 26.5 24" class="fill" />
	<path d="M26.5,24 L26.5,31 L20,35 L20,27.5 L26.5,24 Z M20,5 L20,12.5 L13.5,16 L7,13 L20,5 Z" fill="#00E1C8" class="fill" />
	<path d="M13.5,24 L20,27.5 L20,35 L7,27 L13.5,24 Z M20,5 L33,13 L26.5,16 L20,12.5 L20,5 Z" fill="#281F7D" class="fill" />
</svg>