<?xml version="1.0" encoding="UTF-8"?>
<svg width="40px" height="40px" viewBox="0 0 40 40" version="1.1" xmlns="http://www.w3.org/2000/svg" xmlns:xlink="http://www.w3.org/1999/xlink">
    <path d="M10,15 L14,15 C14.5522847,15 15,15.4477153 15,16 L15,24 C15,24.5522847 15.4477153,25 16,25 L24,25 C24.5522847,25 25,25.4477153 25,26 L25,30 C25,30.5522847 24.5522847,31 24,31 L10,31 C9.44771525,31 9,30.5522847 9,30 L9,16 C9,15.4477153 9.44771525,15 10,15 Z M16,9 L30,9 C30.5522847,9 31,9.44771525 31,10 L31,24 C31,24.5522847 30.5522847,25 30,25 L27,25 C26.4477153,25 26,24.5522847 26,24 L26,21 C26,20.4477153 25.5522847,20 25,20 L21,20 C20.4477153,20 20,19.5522847 20,19 L20,15 C20,14.4477153 19.5522847,14 19,14 L16,14 C15.4477153,14 15,13.5522847 15,13 L15,10 C15,9.44771525 15.4477153,9 16,9 Z" fill="#0290FF" class="fill" />
</svg>