<?xml version="1.0" encoding="UTF-8"?>
<svg width="40px" height="40px" viewBox="0 0 40 40" version="1.1" xmlns="http://www.w3.org/2000/svg" xmlns:xlink="http://www.w3.org/1999/xlink">
    <g stroke="none" stroke-width="1" fill="none" fill-rule="evenodd">
        <polygon fill="#384182" points="29.5 15.5 25 30 27.5 13"></polygon>
        <polygon fill="#384182" points="26.5 9 17 12 23.5 7.5"></polygon>
        <polygon fill="#384182" points="19 7.5 18.5 9 23.5 7.5"></polygon>
        <polygon fill="#384182" opacity="0.8" points="20 29.5 25 30 17 12"></polygon>
        <polygon fill="#384182" points="20 29.5 12 35 17 12"></polygon>
        <polygon fill="#F05239" points="17 12 25 30 27.5 13"></polygon>
        <polygon fill="#F05239" points="17 12 23.5 7.5 18.5 9"></polygon>
        <polygon fill="#F05239" opacity="0.8" points="20 6 23.5 7.5 19 7.5"></polygon>
        <polygon fill="#F05239" points="23.5 7.5 26.5 9 26 6 25 5 22.5 5 20 6"></polygon>
        <polygon fill="#F79534" points="26 6 26.5 9 30.5 7.5"></polygon>
        <polygon fill="#F79534" points="26 6 25 8 22.5 5"></polygon>
        <polygon fill="#F79534" points="17 12 26.5 9 27.5 13"></polygon>
    </g>
</svg>