<?xml version="1.0" encoding="UTF-8"?>
<svg width="40px" height="40px" viewBox="0 0 40 40" version="1.1" xmlns="http://www.w3.org/2000/svg" xmlns:xlink="http://www.w3.org/1999/xlink">
	<path fill="#001C3A" class="fill fill-black" d="M33.5,26.23 L33.5,27.9570093 L24.027,33.42 L23.73,32.9 L21.52,34.18 L21.22,33.66 L19.06,34.92 L18.7616822,34.7504673 L33.5,26.23 Z M33.5,23.8242991 L33.5,25.5457944 L24.027,31.0158879 L23.73,30.4971963 L19.4401869,32.9785047 L19.1485981,32.4598131 L16.9757009,33.7130841 L16.6785047,33.5420561 L33.5,23.8242991 Z M33.5,21.42 L33.5,23.1373832 L24.027,28.6074766 L23.73,28.0943925 L17.3570093,31.7728972 L17.057,31.2598131 L14.8897196,32.5102804 L14.5925234,32.3392523 L33.5,21.42 Z M33.5,19.0130841 L33.5,20.7317757 L24.027,26.2018692 L23.73,25.6831776 L15.271028,30.5700935 L14.9738318,30.0514019 L12.8065421,31.3074766 L12.5037383,31.1308411 L33.5,19.0130841 Z M33.5,16.6074766 L33.5,18.328972 L24.027,23.7990654 L23.73,23.2803738 L13.1878505,29.3672897 L12.8878505,28.8485981 L10.7233645,30.1 L10.4233645,29.9308411 L33.5,16.6074766 Z M33.5,14.1962617 L33.5,15.917757 L24.027,21.3878505 L23.73,20.8691589 L11.0626168,28.18 L10.7654206,27.6682243 L8.6317757,28.8990654 L8.34018692,28.7280374 L33.5,14.1962617 Z M32.7579439,12.2196262 L33.5,12.82 L33.5,13.5149533 L24.09,18.9457944 L23.8,18.4327103 L11.1,25.7560748 L10.8,25.2429907 L7,27.4383178 L7,27.0962617 L32.7579439,12.2196262 Z M30.67,11.0168224 L32.1607477,11.8747664 L24.09,16.5401869 L23.8,16.0214953 L11.1,23.3448598 L10.8,22.8317757 L7,25.027 L7,24.6850467 L30.67,11.0168224 Z M28.588785,9.81 L30.0775701,10.6747664 L22,15.3345794 L21.7056075,14.8214953 L11.1,20.9420561 L10.8,20.4233645 L7,22.6242991 L7,22.282243 L28.588785,9.81 Z M26.5028037,8.61 L28,9.46635514 L19.8607477,14.1654206 L19.5607477,13.6523364 L11.1,18.5364486 L10.8,18.0205607 L7,20.2186916 L7,19.871028 L26.5028037,8.61 Z M24.4196262,7.41 L25.9084112,8.26915888 L17.7747664,12.9626168 L17.4775701,12.4439252 L11.1,16.1280374 L10.8,15.6093458 L7,17.8102804 L7,17.4682243 L24.4196262,7.41 Z M22.34,6.2 L23.82,7.0635514 L15.6971963,11.7598131 L15.3915888,11.2411215 L11.1,13.7168224 L10.8,13.2065421 L7,15.3990654 L7,15.057 L22.34,6.2 Z M20.2504673,5 L21.7392523,5.86074766 L13.6056075,10.5514019 L13.3,10.0411215 L11.1,11.3 L10.8,10.7953271 L7,12.9962617 L7,12.6542056 L20.2504673,5 Z" />
</svg>