<?xml version="1.0" encoding="UTF-8"?>
<svg width="40px" height="40px" viewBox="0 0 40 40" version="1.1" xmlns="http://www.w3.org/2000/svg" xmlns:xlink="http://www.w3.org/1999/xlink">
	<path class="fill fill-black" fill="black" d="M20,6 C27.73,6 34,12.27 34,20 C34,27.73 27.73,34 20,34 C12.27,34 6,27.73 6,20 C6,12.27 12.27,6 20,6 Z M18.5,12 L16,12 L16,15.5 L13.5,15.5 L13.5,18 L16,18 L16,22 L13.5,22 L13.5,24.5 L16,24.5 L16,28 L18.5,28 L18.5,24.5 L21.5,24.5 L21.5,28 L24,28 L24,24.5 L26.5,24.5 L26.5,22 L24,22 L24,18 L26.5,18 L26.5,15.5 L24,15.5 L24,12 L21.5,12 L21.5,15.5 L18.5,15.5 L18.5,12 Z M21.5,18 L21.5,22 L18.5,22 L18.5,18 L21.5,18 Z"/>
</svg>