<?xml version="1.0" encoding="UTF-8"?>
<svg width="40px" height="40px" viewBox="0 0 40 40" version="1.1" xmlns="http://www.w3.org/2000/svg" xmlns:xlink="http://www.w3.org/1999/xlink">
    <g id="xrp" stroke="none" stroke-width="1" fill="none" fill-rule="evenodd">
        <path d="M7,31 L15,23 C16.3333333,21.6666667 18,21 20,21 C22,21 23.6666667,21.6666667 25,23 L33,31 L29,31 L23,25 C22,24 21,23.5 20,23.5 C19,23.5 18,24 17,25 L11,31 L7,31 Z M7,9 L11,9 L17,15 C18,16 19,16.5 20,16.5 C21,16.5 22,16 23,15 L29,9 L33,9 L25,17 C23.6666667,18.3333333 22,19 20,19 C18,19 16.3333333,18.3333333 15,17 L7,9 Z" id="top-2" fill="#232930" fill-rule="nonzero" class="fill fill-black" />
    </g>
</svg>