<?xml version="1.0" encoding="UTF-8"?>
<svg width="40px" height="40px" viewBox="0 0 40 40" version="1.1" xmlns="http://www.w3.org/2000/svg" xmlns:xlink="http://www.w3.org/1999/xlink">
	<circle fill="#1B7BE8" class="fill" cx="20" cy="20" r="13" />
	<path fill="white" class="fill fill-bg" d="M16,12 C18.66,12 21,12 23,12 C26,12 28,13 28,17 C28,21 26,22 23,22 C21,22 19.33,22 18,22 L18,24 L26,24 L26,26 L18,26 L18,29 L16,29 L16,26 L14,26 L14,24 L16,24 L16,22 L14,22 L14,20 L16,20 L16,12 Z M18,20 C20,20 21.66,20 23,20 C25,20 26,19 26,17 C26,15 25,14 23,14 C21.66,14 20,14 18,14 L18,20 Z"/>
</svg>