<?xml version="1.0" encoding="UTF-8"?>
<svg width="40px" height="40px" viewBox="0 0 40 40" version="1.1" xmlns="http://www.w3.org/2000/svg" xmlns:xlink="http://www.w3.org/1999/xlink">
    <!-- Generator: Sketch 52.2 (67145) - http://www.bohemiancoding.com/sketch -->
    <title>coin/sia</title>
    <desc>Created with Sketch.</desc>
    <g id="coin/sia" stroke="none" stroke-width="1" fill="none" fill-rule="evenodd">
        <circle id="sat" fill="#00F375" cx="10.5" cy="10.5" r="1.5"></circle>
        <path d="M13,31 C15,32.5 17.4312607,33 20,33 C27.1797017,33 33,27.1797017 33,20 C33,12.8202983 27.1797017,7 20,7 C17.4340755,7 15.0150391,7.71683464 13,9 C11.3809733,10.0309869 10.0108299,11.4157344 8.99041798,13.0438829 C7.72724196,15.0593808 7,17.4478703 7,20 C7,22.5593709 7.5,25 9,27" id="orbit" stroke="#7F8C8D" stroke-linejoin="round" transform="translate(20.000000, 20.000000) scale(1, -1) translate(-20.000000, -20.000000) "></path>
        <path d="M20,13 C23.8659932,13 27,16.1340068 27,20 L27,27 L20,27 C16.1340068,27 13,23.8659932 13,20 C13,16.1340068 16.1340068,13 20,13 Z M20,16 C17.790861,16 16,17.790861 16,20 C16,22.209139 17.790861,24 20,24 L24,24 L24,20 C24,17.790861 22.209139,16 20,16 Z" id="a" fill="#00F375"></path>
    </g>
</svg>