<?xml version="1.0" encoding="UTF-8"?>
<svg width="40px" height="40px" viewBox="0 0 40 40" version="1.1" xmlns="http://www.w3.org/2000/svg" xmlns:xlink="http://www.w3.org/1999/xlink">
	<circle class="fill" fill="#D81D3C" cx="20" cy="20" r="14" />
	<path class="fill fill-bg" fill="white" d="M20.5,27.5 C16,27.5 14.5,25 14.5,23 C14.5,20.33 16.66,18.66 21,18 C22.33,17.66 23,17.17 23,16.5 C23,15.5 22,15 20.5,15 C18.5,15 18.03,16.57 18,17 C16,17 15,17 15,17 C15,15 16.2,12.5 20.5,12.5 C25,12.5 26,15.5 26,17 C26,19.33 24,20.83 20,21.5 C18.33,21.83 17.5,22.33 17.5,23 C17.5,24 18.5,25 20.5,25 C22.5,25 23.5,24 23.5,22.5 L26.5,22.5 C26.5,25 25,27.5 20.5,27.5 Z"  />
</svg>