<?xml version="1.0" encoding="UTF-8"?>
<svg width="40px" height="40px" viewBox="0 0 40 40" version="1.1" xmlns="http://www.w3.org/2000/svg" xmlns:xlink="http://www.w3.org/1999/xlink">
	<polygon fill="none" stroke="#F56223" class="outline" points="20 37 4 21 20 5 36 21" />
	<polygon fill="#42256E" class="fill fill-black" points="20 33 8 21 20 9 32 21" />
	<circle fill="#42256E" class="fill fill-black" cx="11.5" cy="28.5" r="2" />
	<circle fill="#42256E" class="fill fill-black" cx="11.5" cy="13.5" r="2" />
	<circle fill="#42256E" class="fill fill-black" cx="28.5" cy="13.5" r="2" />
	<circle fill="#42256E" class="fill fill-black" cx="28.5" cy="28.5" r="2" />
	<path fill="white" class="fill fill-bg" d="M15.5,19 C15.5,16.5 17,15 20,15 C21.33,15 22.66,15.33 24,16 L23.5,18.5 C22.5,17.83 21.5,17.5 20.5,17.5 C19,17.5 18.5,18 18.5,18.5 C18.5,20 24.5,19 24.5,23 C24.5,25.5 22.5,26.5 20,26.5 C18.33,26.5 16.66,26.16 15,25.5 L16,23 C17.33,23.66 18.5,24 19.5,24 C20.5,24 21.5,24 21.5,23 C21.5,21.5 15.5,22.5 15.5,19 Z" />
</svg>