<?xml version="1.0" encoding="UTF-8"?>
<svg width="40px" height="40px" viewBox="0 0 40 40" version="1.1" xmlns="http://www.w3.org/2000/svg" xmlns:xlink="http://www.w3.org/1999/xlink">
	<defs>
		<linearGradient x1="85%" y1="15%" x2="30%" y2="60%" id="eurs-gradient">
			<stop stop-color="#B030EC"/>
			<stop stop-color="#15BCFF" offset="100%"/>
		</linearGradient>
	</defs>
	<circle fill="url(#eurs-gradient)" class="fill" cx="20" cy="20" r="14" />
	<path fill="white" d="M17.14,18 C17.045795,18.6376364 17,19.3045073 17,20 C17,20.7018539 17.0757845,21.3687304 17.2191703,22 L28,22 L26.4237932,25 L18.5607016,25 C20.8753628,28.2757011 25.4376814,30 30,30 C30,30 28,32 25.5,33 C22.6707564,32.5958223 16.247602,30.9514188 13.89,25 L9.5,25 L11,22 L13.1259954,22 C13.0436299,21.369374 13,20.7033606 13,20 C13,19.3 13.0385004,18.6330667 13.111161,18 L9.5,18 L11,15 L13.7735173,15 C15.8526984,8.89 21.5685531,6.90524115 24,6.5 C26,7 28,8.5 28,8.5 C23.0243854,9.21080208 19.5644896,11.437323 17.979438,15 L31,15 L29.4237932,18 L17.14,18 Z" />
</svg>