<?xml version="1.0" encoding="UTF-8"?>
<svg width="40px" height="40px" viewBox="0 0 40 40" version="1.1" xmlns="http://www.w3.org/2000/svg" xmlns:xlink="http://www.w3.org/1999/xlink">
    <!-- Generator: Sketch 52.4 (67378) - http://www.bohemiancoding.com/sketch -->
    <title>coin/steem</title>
    <desc>Created with Sketch.</desc>
    <g id="coin/steem" stroke="none" stroke-width="1" fill="none" fill-rule="evenodd">
        <path d="M24.5,14.5 C24.5,12.9523112 25.506043,11.4046224 27.5181291,9.85693364 L27.51807,9.85685683 C27.6056648,9.78947931 27.7312946,9.80586859 27.7986721,9.89346331 C27.836201,9.94225302 27.849186,10.0056004 27.833879,10.0652204 C27.611293,10.9321873 27.5,11.9104471 27.5,13 C27.5,15 32,22 32,25 C32,26.2576823 30.8136765,27.9602359 28.4410294,30.1076608 L28.4411674,30.1078133 C28.3591882,30.1820107 28.232582,30.1757023 28.1583846,30.0937231 C28.1166992,30.0476656 28.098755,29.9848671 28.1098129,29.9237387 C28.3699376,28.4857634 28.5,27.1778505 28.5,26 C28.5,23 24.5,18.5 24.5,14.5 Z" id="3" fill="#165098"></path>
        <path d="M15,13 C15,11.2189019 16.1896164,9.17344465 18.5688491,6.86362819 L18.5687811,6.86355815 C18.7273247,6.70964026 18.9806247,6.71339009 19.1345426,6.87193363 C19.2237735,6.96384618 19.263598,7.09292833 19.2416623,7.21913806 C19.0805541,8.14609204 19,9.07304602 19,10 C19,15 25,23 25,26 C25,27.8124023 23.4944657,30.0354049 20.483397,32.6690078 L20.4833402,32.6689428 C20.3170918,32.8143504 20.0644447,32.7974556 19.9190371,32.6312072 C19.8325056,32.5322733 19.8001122,32.397136 19.8323869,32.2697234 C20.2774623,30.5126757 20.5,29.0894346 20.5,28 C20.5,25 15,17 15,13 Z" id="2" fill="#5C9DD5"></path>
        <path d="M8.5,14.5 C8.5,12.9523112 9.50604304,11.4046224 11.5181291,9.85693364 L11.51807,9.85685683 C11.6056648,9.78947931 11.7312946,9.80586859 11.7986721,9.89346331 C11.836201,9.94225302 11.849186,10.0056004 11.833879,10.0652204 C11.611293,10.9321873 11.5,11.9104471 11.5,13 C11.5,15 16,22 16,25 C16,26.2576823 14.8136765,27.9602359 12.4410294,30.1076608 L12.4411674,30.1078133 C12.3591882,30.1820107 12.232582,30.1757023 12.1583846,30.0937231 C12.1166992,30.0476656 12.098755,29.9848671 12.1098129,29.9237387 C12.3699376,28.4857634 12.5,27.1778505 12.5,26 C12.5,23 8.5,18.5 8.5,14.5 Z" id="1" fill="#165098"></path>
    </g>
</svg>