<?xml version="1.0" encoding="UTF-8"?>
<svg width="40px" height="40px" viewBox="0 0 40 40" version="1.1" xmlns="http://www.w3.org/2000/svg" xmlns:xlink="http://www.w3.org/1999/xlink">
    <!-- Generator: Sketch 52.4 (67378) - http://www.bohemiancoding.com/sketch -->
    <title>coin/xlm</title>
    <desc>Created with Sketch.</desc>
    <g id="coin/xlm" stroke="none" stroke-width="1" fill="none" fill-rule="evenodd">
        <path d="M6,28.5 L6,31.0566847 L29.7341113,18.7088665 C29.7895511,19.1336643 29.8183509,19.5647022 29.8183509,20.00018 C29.8183509,22.6226469 28.796916,25.0881546 26.9425653,26.9425053 C25.1160544,28.7690162 22.6528267,29.800171 20.0699597,29.8181709 C18.3316483,29.8300508 16.6606567,29.393373 15.1885041,28.5630972 L15.0631047,28.6270569 L12.9433153,29.7069315 C13.6822716,30.2453688 14.4795476,30.6975265 15.3289034,31.0566847 C16.808976,31.6826016 18.3804881,32 20.00012,32 C21.6195119,32 23.191264,31.6826016 24.6713366,31.0566847 C26.1002895,30.4521277 27.3836831,29.5869321 28.4853976,28.4854576 C29.5869921,27.3837431 30.4521877,26.1003495 31.0567447,24.6712766 C31.6826616,23.191204 31.9998752,21.6195719 31.99994,20.00018 C32,18.5 32.5,17 34,16.5 C34,16.5 34,15.6666667 34,14 L6,28.5 Z" id="2" fill="#000000" class="fill fill-black" />
        <path d="M10.2651687,21.2828536 C10.2102089,20.8609357 10.1818891,20.4325378 10.1818891,20.0003 C10.1818891,17.3775931 11.203204,14.9118454 13.0576747,13.0574947 C14.8827456,11.2326638 17.3429733,10.201509 19.9239204,10.1821891 C21.6609117,10.1692292 23.3304633,10.603987 24.802256,11.4317428 L27.0486448,10.2873086 C26.3123284,9.75163124 25.5175724,9.30139349 24.6712166,8.94367528 C23.191144,8.31739841 21.6197519,8 20,8 C18.3806081,8 16.808976,8.31739841 15.3287834,8.94367528 C13.8998305,9.54799226 12.6164369,10.4131879 11.5147224,11.5149024 C10.4131279,12.6166169 9.54805226,13.8997705 8.94349528,15.3288434 C8.31757841,16.808916 8.00018,18.3805481 8.00018,20.0003 C8.00018,21.0485056 8.00018,22.9204854 6,23.5 C6,23.5 5.99996,24.3333333 5.99988,26 L34,11.5 L34,8.94367528 L10.2651687,21.2828536 Z" id="1" fill="#000000" class="fill fill-black" />
    </g>
</svg>