<?xml version="1.0" encoding="UTF-8"?>
<svg width="41px" height="40px" viewBox="0 0 41 40" version="1.1" xmlns="http://www.w3.org/2000/svg" xmlns:xlink="http://www.w3.org/1999/xlink">
    <!-- Generator: Sketch 52.4 (67378) - http://www.bohemiancoding.com/sketch -->
    <title>coin/strat</title>
    <desc>Created with Sketch.</desc>
    <g id="coin/strat" stroke="none" stroke-width="1" fill="none" fill-rule="evenodd" stroke-linecap="round" stroke-linejoin="round">
        <path d="M9.5,22.5 L20.7445985,28.8556426 C20.9022954,28.9447757 21.095868,28.9416456 21.2506006,28.8474605 L32.2599735,22.1461031 C32.4090283,22.0553741 32.5,21.8935005 32.5,21.7190038 L32.5,19.0338151 C32.5,18.8681297 32.3656854,18.7338151 32.2,18.7338151 C32.144978,18.7338151 32.0910156,18.748947 32.0440159,18.7775555 L21,25.5 L9.75397137,19.143549 C9.59703689,19.0548469 9.5,18.8885355 9.5,18.7082676 L9.5,15.2917324 C9.5,15.1114645 9.59703689,14.9451531 9.75397137,14.856451 L21,8.5 L31.7581487,14.5806928 C31.998548,14.7165706 32.0832794,15.0216035 31.9474015,15.2620028 C31.9053855,15.3363388 31.8450323,15.398676 31.7720936,15.4430735 L21,22 L9.5,15.5" id="Path-33" stroke="#1382C6" stroke-width="1.2"></path>
    </g>
</svg>