<?xml version="1.0" encoding="UTF-8"?>
<svg width="40px" height="40px" viewBox="0 0 40 40" version="1.1" xmlns="http://www.w3.org/2000/svg" xmlns:xlink="http://www.w3.org/1999/xlink">
	<path fill="none" stroke="#FF5C00" class="outline" stroke-width="2" d="M24,7 C19,7 15,11 15,16 M24,10 C20.5,10 18,12.5 18,16 M24,13 C22.5,13 21,14.5 21,16 M24,15 C29,15 33,19 33,24 M24,18 C27.5,18 30,20.5 30,24 M24,21 C25.5,21 27,22.5 27,24 M25,24 C25,29 21,33 16,33 M22,24 C22,27.5 19.5,30 16,30 M19,24 C19,25.5 17.5,27 16,27 M16,25 C11,25 7,21 7,16 M16,22 C12.5,22 10,19.5 10,16 M16,19 C14.5,19 13,17.5 13,16" />
</svg>