<?xml version="1.0" encoding="UTF-8"?>
<svg width="40px" height="40px" viewBox="0 0 40 40" version="1.1" xmlns="http://www.w3.org/2000/svg" xmlns:xlink="http://www.w3.org/1999/xlink">
	<path fill="#CCD6DD" d="M16,25 C15.66,27.33 15.66,29.5 16,31.5 C19.5,30 35,25 32.5,15 C31.3346667,14.312 25.8346667,17.6453333 16,25 Z" />
	<path fill="#EEEEEE" d="M16,24 C10.23,18.6911285 7.23,17.1911285 7,19.5 C6.33,26.17 9.33,30.17 16,31.5 L16,24 Z" />
	<path fill="#A0041E" d="M7,15 L7,18.4296325 C7,19.09 7.33420227,19.72 7.9,20.09 L14.9824827,24.82 C15.6,25.24 16.41,25.27 17.07,24.9 L31.97,16.57 C32.6,16.21 33,15.55 33,14.82 L33,11 L33,11 L7,15 Z" />
	<path class="fill fill-black" fill="#292F33" d="M27,18 C31.5,18 35,20.5 35,24 L35,28.1 C35,31.35 32,34 27,34 C22,34 19.13,31.45 19,28.28 L19,28.1 L19,24 C19,20.5 22.5,18 27,18 Z" />
	<path fill="#E1E8ED" d="M34,24 C34,26.762 30.87,29 27,29 C23.13,29 20,26.762 20,24 C20,21.238 23.13,19 27,19 C30.87,19 34,21.238 34,24 Z" />
	<path fill="#77B255" d="M22,24 C22,22.5 32,22.5 32,24 C32,25.91 30,27.5 27,27.5 C24,27.5 22,26 22,24 Z" />
	<path fill="#F4900C" d="M32,24 C32,24 30.33,23 27,24 C24.38,24.786 22,25.775 22,24 C22,22.225 24,20.5 27,20.5 C30,20.5 32,22.5 32,24 Z" />
	<path fill="#DD2E44" d="M24,5.5 C20.5,5.5 7,12 7,15 C7,16 15,22 16,22 C17,22 26,13.5 33,11 C33,9.5 26.5,5.5 24,5.5 Z" />
	<path class="outline" fill="none" stroke="#EA596E" stroke-width="2" stroke-linecap="round" d="M12,12.5 C13,14.83 13.66,16.83 14,18.5 M17,9.5 C18.33,11.33 19,14.5 19,17.5 M22,7.5 C23,9.5 23.5,12 23.5,15 M27,8 C27.66,9.33 28,10.66 28,12" />
</svg>