<?xml version="1.0" encoding="UTF-8"?>
<svg width="40px" height="40px" viewBox="0 0 40 40" version="1.1" xmlns="http://www.w3.org/2000/svg" xmlns:xlink="http://www.w3.org/1999/xlink">
	<path class="outline" fill="none" stroke="#01C38D" d="M21.5,18 L21.5,8.5 L23,7.5 L29.5,11 L29.5,14.5 L32.5,16.5 L32.5,23.5 L22,29.5 M21.5,21.5 L21.5,31.5 L23,32.5 L29.5,29 L29.5,25.5 L10.5,14.5 L10.5,11 L16.5,7.5 L18.5,8.5 L18.5,18.5 M18,10.5 L7.5,16.5 L7.5,23.5 L10.5,25.5 L10.5,29 L16.5,32.5 L18.5,31.5 L18.5,21.5 M10.5,25.5 L14.5,23 M18,29.5 L13,26.5 M22,10.5 L26.5,13 M29.5,14.5 L25.5,17"/>
	<circle class="fill" fill="#01C38D" cx="14.5" cy="23" r="1.5" />
	<circle class="fill" fill="#01C38D" cx="25.5" cy="17" r="1.5" />
</svg>