<?xml version="1.0" encoding="UTF-8"?>
<svg width="40px" height="40px" viewBox="0 0 40 40" version="1.1" xmlns="http://www.w3.org/2000/svg" xmlns:xlink="http://www.w3.org/1999/xlink">
	<path class="fill" fill="#2845AD" fill-rule="nonzero" d="M33,19 C33,29.5 25,33 23,33 C21,33 18,30 18,27 C18,24.66 21,22 27,19 C19.66,17.66 15,16 13,14 C10,11 12.5,6 20,6 C29,6 33,13 33,19 Z"/>
	<path class="fill" fill="#5494F8" fill-rule="nonzero" d="M14.4,32.6 L14.33,32.8 C9.43,30.63 6,25.72 6,20 C6,18.4 6.27,16.85 6.77,15.4 C11.6,21.11 15.79,26.14 14.4,32.6 Z M32.5,26.5 C29.5,32 24,34 24,32 C24,30 29.5,27.5 32.5,26.5 Z M26,9 C27.03,9 28,9.06 28.9,9.19 C32.0137824,11.76 34,15.65 34,20 C34,22.05 33.56,24 32.77,25.74 C32.27,25.91 31.67,26 31,26 C28,26 13.5,22 13.5,16.5 C13.5,11.5 24,9 26,9 Z M15,7.5 C17.5,7.5 17,13 7.5,14 C10.5,8 14,7.5 15,7.5 Z" />
</svg>