<?xml version="1.0" encoding="UTF-8"?>
<svg width="40px" height="40px" viewBox="0 0 40 40" version="1.1" xmlns="http://www.w3.org/2000/svg" xmlns:xlink="http://www.w3.org/1999/xlink">
	<path fill="#07B294" fill-rule="nonzero" class="fill" d="M18,16.561949 C13.9920226,16.8145763 11,17.8102292 11,19 C11,20.1897708 13.9920226,21.1854237 18,21.438051 L18,28 L22,28 L22,21.438051 C26.0079774,21.1854237 29,20.1897708 29,19 C29,17.8102292 26.0079774,16.8145763 22,16.561949 L22,14.5801012 L27,14.5801012 L27,10.5801012 L13,10.5801012 L13,14.5801012 L18,14.5801012 L18,16.561949 Z M18,17.0539233 L18,19 L22,19 L22,17.0539233 C25.171187,17.2289723 27.5,17.8100938 27.5,18.5 C27.5,19.3284271 24.1421356,20 20,20 C15.8578644,20 12.5,19.3284271 12.5,18.5 C12.5,17.8100938 14.828813,17.2289723 18,17.0539233 Z M11,7 L29,7 L35,19 L20,34 L5,19 L11,7 Z"/>
</svg>