<?xml version="1.0" encoding="UTF-8"?>
<svg width="40px" height="40px" viewBox="0 0 40 40" version="1.1" xmlns="http://www.w3.org/2000/svg" xmlns:xlink="http://www.w3.org/1999/xlink">
	<path fill="#2C7DF7" class="fill" d="M22.1130732,32.375 C20.2880903,32.375 18.9588611,31.9389704 18.123781,31.0669112 C17.2895031,30.1952525 16.871963,29.2551262 16.871963,28.2477337 C16.871963,27.8793708 16.9445613,27.5694655 17.0901588,27.3176174 C17.2322109,27.0691229 17.4384601,26.863234 17.6873895,26.72143 C17.9396783,26.5760868 18.2501259,26.5036154 18.6191335,26.5036154 C18.988141,26.5036154 19.2981875,26.5760868 19.5508775,26.72143 C19.8031663,26.8667732 20.0021095,27.0657692 20.147707,27.3176174 C20.2933046,27.5694655 20.3659028,27.8793708 20.3659028,28.2477337 C20.3659028,28.6933728 20.2592115,29.0565306 20.0458289,29.3376075 C19.8320452,29.6186844 19.5797563,29.8024655 19.2885613,29.8901519 C19.5412512,30.2384951 19.9391376,30.4855385 20.4826215,30.6308817 C21.0261054,30.7862347 21.5695893,30.8635108 22.1130732,30.8635108 C22.8699398,30.8635108 23.5542081,30.6601105 24.1658782,30.2533097 C24.7771472,29.8461085 25.2287803,29.2455168 25.5199754,28.4511341 C25.8111704,27.6567515 25.956768,26.7554635 25.956768,25.7476706 C25.956768,24.6529921 25.7963299,23.7176706 25.476256,22.9429073 C25.1654073,22.1581341 24.7045489,21.5767613 24.0928789,21.198789 C23.5000917,20.8263974 22.8134677,20.6299071 22.1130732,20.6322308 C21.6470007,20.6322308 21.0650116,20.8260217 20.3659028,21.2136036 L19.0848049,21.8530335 L19.0848049,21.2136036 L24.8501465,13.5400434 L16.871963,13.5400434 L16.871963,21.5038895 C16.871963,22.1629389 17.0175606,22.7054734 17.3087556,23.1318935 C17.5999507,23.5583136 18.0463696,23.7713235 18.6484134,23.7713235 C19.1136838,23.7713235 19.5605038,23.6163708 19.9876701,23.3060651 C20.4175786,22.9931005 20.791559,22.6100274 21.0938905,22.1729487 C21.1327967,22.0852623 21.1813292,22.0224004 21.239488,21.9835621 C21.2918022,21.9374516 21.3590195,21.9117206 21.4288049,21.9110907 C21.5354962,21.9110907 21.6614401,21.9643432 21.8074387,22.0712485 C21.94341,22.2258008 22.0111951,22.4051775 22.0111951,22.6085779 C21.9944862,22.7455641 21.970115,22.8815102 21.9381958,23.0157791 C21.6084956,23.7521045 21.1520493,24.313858 20.5696591,24.7014398 C20.0026774,25.0843076 19.3329221,25.2869769 18.6484134,25.2828126 C16.9204956,25.2828126 15.7264353,24.9436785 15.0666338,24.2658107 C14.4068323,23.587142 14.076731,22.6666351 14.076731,21.5042899 L14.076731,13.5400434 L10,13.5400434 L10,12.0573826 L14.076731,12.0573826 L14.076731,8.68606114 L13.144987,7.75514398 L13.144987,7 L15.8527803,7 L16.8715619,7.52291519 L16.8715619,12.0573826 L27.4123422,12.0285542 L28.4608049,13.074785 L21.9967556,19.5275424 C22.388086,19.3718388 22.800064,19.2739137 23.2196947,19.236856 C23.9184025,19.236856 24.7045489,19.4598757 25.5781342,19.9055148 C26.4613457,20.3415444 27.1408008,20.9425365 27.6160986,21.7072899 C28.0917974,22.4632347 28.3974319,23.1899507 28.5334031,23.8874379 C28.6790007,24.5853254 28.752,25.2051361 28.752,25.7476706 C28.752,26.9880927 28.4896838,28.1408284 27.9658535,29.2070789 C27.4416222,30.2725286 26.6458494,31.0669112 25.5781342,31.5902268 C24.5104189,32.1135424 23.3552649,32.375 22.1130732,32.375 Z" />
</svg>