<?xml version="1.0" encoding="UTF-8"?>
<svg width="40px" height="40px" viewBox="0 0 40 40" version="1.1" xmlns="http://www.w3.org/2000/svg" xmlns:xlink="http://www.w3.org/1999/xlink">
	<path stroke="none" d="M22.5,27 L22,32 L17,32 L17,32 C17,32 16.5619294,28.9140519 16.5,27 C18.9242497,26.8844224 20.0757503,26.8844224 22.5,27 Z M26,18 L25.5,23 C21.2853082,22.7020545 17.7147426,22.7027737 13.5,23 L13,18 C17.4461957,17.6863917 21.5538043,17.6863917 26,18 Z M34,9 C34,9 33.1024931,15.2825485 33.0080187,15.9438694 L33,16 C32.6480977,15.2235407 31.8722566,14.2669089 31.5,13.5 C24,12 15,12 7.5,13.5 C7.02881818,14.2809219 6.44690373,15.204935 6,16 C6,16 5.10249307,9.71745152 5.00801866,9.05613063 L5,9 C14.8561431,7.34734797 24.1438569,7.34734797 34,9 Z" fill="#F94081" class="fill" />
</svg>