<?xml version="1.0" encoding="UTF-8"?>
<svg width="40px" height="40px" viewBox="0 0 40 40" version="1.1" xmlns="http://www.w3.org/2000/svg" xmlns:xlink="http://www.w3.org/1999/xlink">
    <!-- Generator: Sketch 52.4 (67378) - http://www.bohemiancoding.com/sketch -->
    <title>coin/tusd</title>
    <desc>Created with Sketch.</desc>
    <g id="coin/tusd" stroke="none" stroke-width="1" fill="none" fill-rule="evenodd">
        <path d="M8,26 C11.3333333,29 14.6666667,30.5 18,30.5 C24,30.5 30,26 30,20 C30,17.3333333 28.6666667,14.8333333 26,12.5 C30,14.5666667 32,17.7333333 32,22 C32,28 26.5,33 20,33 C15,33 11,30.6666667 8,26 Z" id="2" fill="#2B2E7C"></path>
        <path d="M16.9999999,14.5008066 L25.5,14.5030918 L25.5,14.5030918 C25.5,16.1582385 24.1582385,17.5 22.5030918,17.5 L21,17.5 L21,24.5 C21,26.1568542 19.6568542,27.5 18,27.5 L18,17.5 L14,17.5 L14,17.5 C14,15.8435911 15.3427847,14.5008064 16.9991936,14.5008064 C16.9994623,14.5008064 16.9997311,14.5008065 16.9999999,14.5008066 Z" id="T" fill="#68AEFD"></path>
        <path d="M14,28 C10,26.0136837 8,22.6803503 8,18 C8,12.4 13,7 20,7 C24.6666667,7 28.6666667,9.33333333 32,14 C28.6666667,11 25.3075897,9.5 21.9227691,9.5 C17,9.5 10.5,12.9 10.5,20 C10.5,23.347017 11.6666667,26.0136837 14,28 Z" id="1" fill="#68AEFD"></path>
    </g>
</svg>