<?xml version="1.0" encoding="UTF-8"?>
<svg width="40px" height="40px" viewBox="0 0 40 40" version="1.1" xmlns="http://www.w3.org/2000/svg" xmlns:xlink="http://www.w3.org/1999/xlink">
	<path class="fill" fill="#FF007A" d="M17.5,19.5 C18.5,19.5 19.5,18.5 19.5,18 C19.5,17.5 18.55,17 18,17 C17.45,17 16.5,17.45 16.5,18 C16.5,18.55 16.5,19.5 17.5,19.5 Z M14,29.5 C16,27.5 18.78,26.1672146 21,27 C25,28.5 22.5,34 27,33 C22,36 23.5,29 20,29 C16.5,29 20,33.5 21,30 C21,32.5 19,32.5 18,31.5 C17,30.5 16.5,29.5 14,29.5 Z M26.5,21 C31,22.5 35.5,27 29,31.5 C31.5,26.5 26,27 26.5,21 Z M6.5,3 C13.5,10.33 17,14 17,14 C17.33,15.66 16.33,16.66 14,17 C12.66,20 12,22 12,23 C12,24.5 15,25 15,26.5 C15,27.5 13.5,28.5 10.5,29.5 C9.5,28.16 9,26.66 9,25 C9,23.68 10.47,21.37 11.5,20 C13,18 11.5,17.5 13.5,15.5 C13.5,15.5 12,12.83 9,7.5 C13,12.5 15,15 15,15 C15.66,15.33 16,15.16 16,14.5 L6.5,3 Z M25.5,20.5 C27.5,27.5 20,24.5 18.5,26 C20,23.5 25.5,26 25.5,20.5 Z M23,15.5 C26.5,18 36,16 32.5,24.5 C32,20 23,21.5 23,15.5 Z M16,8.5 C18.5,8.5 20,9.5 21.5,11 C29,10.5 30.7,15.72 31.5,17 C28,15 26.5,16.5 24,15 C20.44,12.86 20,9.5 16,8.5 Z M16,9 C20,10.5 17.5,12.5 19.5,14.5 C17,14.5 15.5,12 16,9 Z" />
</svg>
