<?xml version="1.0" encoding="UTF-8"?>
<svg width="40px" height="40px" viewBox="0 0 40 40" version="1.1" xmlns="http://www.w3.org/2000/svg" xmlns:xlink="http://www.w3.org/1999/xlink">
	<defs>
		<linearGradient x1="38%" y1="8%" x2="13%" y2="110%" id="unusGradient">
			<stop stop-color="#F7EC12" offset="0%" />
			<stop stop-color="#F15C22" offset="100%" />
		</linearGradient>
	</defs>
	<path class="fill" fill="url(#unusGradient)" fill-rule="nonzero" d="M14.5,24 L14.5,30 L20,33 L21.5,32.5 L23,33.5 L20,35 L13,31 L13,24 L14.5,24 Z M25,21 L21,25 L21,28.5 L24.5,31 L31,27 L31,24 L32.5,24 L32.5,28 L24.5,33 L19,29 L19,25 L15,21 L25,21 Z M18,16 L13,18 L8.5,20.5 L8.5,26.5 L11.5,28.5 L10.5,30 L7,27.5 L7,19.5 L13.02,16.07 L18,16 Z M30.5,10.5 L34,13 L34,21 L27.5,25 L26.5,23.5 L32.5,20 L32.5,14 L29.5,12 L30.5,10.5 Z M20,5 L28,9.5 L28,18 L22,16 L26.5,16 L26.5,10.5 L20,7 L18.5,8 L17,7 L20,5 Z M15,7 L21,10.5 L20,12 L15,9 L8.5,13 L8.5,17 L7,17 L7,12 L15,7 Z" />
	<path class="fill" fill="#F39D1A" d="M18,16 L18,20 L13,18 L18,16 Z M22,16 L28,18 L22,20 L22,16 Z" />
</svg>