<?xml version="1.0" encoding="UTF-8"?>
<svg width="40px" height="40px" viewBox="0 0 40 40" version="1.1" xmlns="http://www.w3.org/2000/svg" xmlns:xlink="http://www.w3.org/1999/xlink">
    <!-- Generator: Sketch 52.4 (67378) - http://www.bohemiancoding.com/sketch -->
    <title>coin/usdc</title>
    <desc>Created with Sketch.</desc>
    <g id="coin/usdc" stroke="none" stroke-width="1" fill="none" fill-rule="evenodd">
        <circle id="Oval" fill="#2775CA" cx="20" cy="20" r="13"></circle>
        <path d="M10,20 C10,16.7268997 11.5692409,13.8242616 14,12 C15.3369527,10.9966297 16.3649947,10.4807313 17.0841259,10.4523047 L17.084123,10.45223 C17.3049058,10.4435027 17.4909605,10.6154076 17.4996878,10.8361903 C17.4998959,10.8414552 17.5,10.8467236 17.5,10.8519926 L17.4999814,12.1090488 C17.4999814,12.2805429 17.3906566,12.4329533 17.2282116,12.4879247 C16.6792487,12.6736938 16.2698448,12.8443856 16,13 C13.6036801,14.3819126 12,17.0350433 12,20 C12,22.9719558 13.5943208,25.6429705 16,27.0224319 C16.2610865,27.1721437 16.6579648,27.3088912 17.1906348,27.4326742 L17.1906134,27.4327662 C17.3717757,27.4748651 17.5,27.636303 17.5,27.8222925 L17.5000294,29.1477214 C17.5000294,29.3686515 17.3209302,29.5477508 17.1,29.5477508 C17.0944339,29.5477508 17.0888684,29.5476346 17.0833072,29.5474023 C16.3668958,29.5174811 15.3391268,29.0016803 14,28 C11.5619855,26.1763406 10,23.278832 10,20 Z M21,15.559943 C22.5315982,15.760381 23.3594585,16.463489 23.4835809,17.6692669 C23.4846319,17.6794775 23.4851585,17.6897354 23.4851585,17.7 C23.4851585,17.8657586 23.3507846,18.0001325 23.185026,18.0001325 L21.7693337,18 C21.6281725,18 21.5061237,17.9015512 21.4762488,17.7635876 L21.4761292,17.7636135 C21.3658929,17.2545378 20.8738498,17 20,17 C19.5,17 18.5,17 18.5,18 C18.5,20 23.5,18.5 23.5,22 C23.5,23.3149314 23.1157679,24.6456359 21,24.9539816 L21,26 C21,26.2761424 20.7761424,26.5 20.5,26.5 L19.5,26.5 C19.2238576,26.5 19,26.2761424 19,26 L19,24.9663095 C17.126983,24.7475051 16.1310142,23.8664141 16.0120935,22.3230366 C16.0115029,22.315372 16.0112073,22.3076874 16.0112073,22.3 C16.0112073,22.1343917 16.1454594,22.0001396 16.3110677,22.0001396 L17.7191551,22 C17.8694875,22 17.996598,22.1112897 18.0164635,22.2603037 L18.0165243,22.2602956 C18.1267031,23.0867652 18.7878617,23.5 20,23.5 C21.3700138,23.5 21.5,23 21.5,22.5 C21.5,19.5 16.5,22.0001695 16.5,18 C16.5,16.7188471 17.2294902,15.8024392 19,15.5623059 L19,14.5 C19,14.2238576 19.2238576,14 19.5,14 L20.5,14 C20.7761424,14 21,14.2238576 21,14.5 L21,15.559943 Z M22.9140271,10.4517596 C23.6385627,10.4771764 24.6672204,10.9932565 26,12 C28.4165457,13.8253893 30,16.7381187 30,20 C30,23.2756471 28.4339778,26.1760038 26,28 C24.6620693,29.0026305 23.6341426,29.5184864 22.9162199,29.5475675 L22.9162211,29.5475977 C22.6954715,29.5565397 22.5092698,29.3848357 22.5003278,29.1640861 C22.5001093,29.1586919 22.5,29.1532939 22.5,29.1478953 L22.50004,27.8963274 C22.50004,27.7223673 22.6124845,27.5683564 22.7781791,27.5153712 C23.3254643,27.3403622 23.7327379,27.1760491 24,27.0224319 C26.4017661,25.6419415 28,22.9690303 28,20 C28,17.0373403 26.3932501,14.3827092 24,13 C23.7293398,12.8436251 23.3200425,12.6728991 22.7721079,12.487822 L22.7720721,12.4879281 C22.6094646,12.4330038 22.5,12.2804893 22.5,12.1088563 L22.4998934,10.8516202 C22.4998934,10.6306475 22.6790272,10.4515136 22.9,10.4515136 C22.9046768,10.4515136 22.9093532,10.4515956 22.9140271,10.4517596 Z" id="S" fill="#FFFFFF"></path>
    </g>
</svg>