<?xml version="1.0" encoding="UTF-8"?>
<svg width="40px" height="40px" viewBox="0 0 40 40" version="1.1" xmlns="http://www.w3.org/2000/svg" xmlns:xlink="http://www.w3.org/1999/xlink">
    <g id="coin/wtc" stroke="none" stroke-width="1" fill="none" fill-rule="evenodd">
        <path d="M28.7252789,11.7927775 L33.7252789,10.364206 C34.2563139,10.2124817 34.8097997,10.5199738 34.9615239,11.0510089 C34.9870501,11.1403503 35,11.2328135 35,11.32573 L35,23.2456986 C35,23.6921789 34.7040227,24.0845649 34.2747211,24.2072225 L29.2747211,25.635794 C28.7436861,25.7875183 28.1902003,25.4800262 28.0384761,24.9489911 C28.0129499,24.8596497 28,24.7671865 28,24.67427 L28,12.7543014 C28,12.3078211 28.2959773,11.9154351 28.7252789,11.7927775 Z" id="5" fill="#8200FE"></path>
        <path d="M22.7126521,16.7862044 L25.7126521,15.8862044 C26.241645,15.7275065 26.7991284,16.0276899 26.9578263,16.5566828 C26.9857923,16.6499028 27,16.7467061 27,16.8440307 L27,24.9384472 C27,25.8274112 27.7206477,26.548059 28.6096118,26.548059 C28.7412166,26.548059 28.8723246,26.5319188 29,26.5 L29,28.2456986 C29,28.6921789 28.7040227,29.0845649 28.2747211,29.2072225 L23.2747211,30.635794 C22.7436861,30.7875183 22.1902003,30.4800262 22.0384761,29.9489911 C22.0129499,29.8596497 22,29.7671865 22,29.67427 L22,17.7440307 C22,17.3024224 22.2896682,16.9130996 22.7126521,16.7862044 Z" id="4" fill="#00FFDB"></path>
        <path d="M17.7252789,11.7927775 L22.7252789,10.364206 C23.2563139,10.2124817 23.8097997,10.5199738 23.9615239,11.0510089 C23.9870501,11.1403503 24,11.2328135 24,11.32573 L24,15 L22.3675445,15.5441518 C21.5508602,15.8163799 21,16.5806576 21,17.4415184 L21,25 L18.2425356,25.6893661 C17.7067407,25.8233148 17.1638062,25.4975541 17.0298575,24.9617592 C17.0100273,24.8824386 17,24.8009854 17,24.7192236 L17,12.7543014 C17,12.3078211 17.2959773,11.9154351 17.7252789,11.7927775 Z" id="3" fill="#8300FF"></path>
        <path d="M11.7126521,16.7862044 L14.7126521,15.8862044 C15.241645,15.7275065 15.7991284,16.0276899 15.9578263,16.5566828 C15.9857923,16.6499028 16,16.7467061 16,16.8440307 L16,24.9384472 C16,25.8274112 16.7206477,26.548059 17.6096118,26.548059 C17.7412166,26.548059 17.8723246,26.5319188 18,26.5 L18,28.2456986 C18,28.6921789 17.7040227,29.0845649 17.2747211,29.2072225 L12.2747211,30.635794 C11.7436861,30.7875183 11.1902003,30.4800262 11.0384761,29.9489911 C11.0129499,29.8596497 11,29.7671865 11,29.67427 L11,17.7440307 C11,17.3024224 11.2896682,16.9130996 11.7126521,16.7862044 Z" id="2" fill="#00FFDB"></path>
        <path d="M6.72527887,11.7927775 L11.7252789,10.364206 C12.2563139,10.2124817 12.8097997,10.5199738 12.9615239,11.0510089 C12.9870501,11.1403503 13,11.2328135 13,11.32573 L13,15 L11.3675445,15.5441518 C10.5508602,15.8163799 10,16.5806576 10,17.4415184 L10,25 L7.24253563,25.6893661 C6.70674072,25.8233148 6.16380623,25.4975541 6.0298575,24.9617592 C6.01002735,24.8824386 6,24.8009854 6,24.7192236 L6,12.7543014 C6,12.3078211 6.29597731,11.9154351 6.72527887,11.7927775 Z" id="1" fill="#8300FF"></path>
    </g>
</svg>