<?xml version="1.0" encoding="UTF-8"?>
<svg width="40px" height="40px" viewBox="0 0 40 40" version="1.1" xmlns="http://www.w3.org/2000/svg" xmlns:xlink="http://www.w3.org/1999/xlink">
	<circle class="fill" fill="#0072FF" cx="20" cy="20" r="15" />
	<path class="outline" fill="none" stroke="white" stroke-width="2" d="M16,23 C15.38,23.83 15,24.88 15,26 C15,28.76 17.24,31 20,31 C22.76,31 25,29 25,26 C25,24 23.33,22 20,20 M24,17 C24.62,16.17 25,15.12 25,14 C25,11.24 22.76,9 20,9 C17.24,9 15,11 15,14 C15,16 16.67,18 20,20 M22,14 L23.5,18 L27.5,16.5 M18,26 L16.5,22 L12.5,23.5" />
	<line class="outline" stroke="white" stroke-width="2" x1="20" y1="13" x2="20" y2="28" />
</svg>