<?xml version="1.0" encoding="UTF-8"?>
<svg width="40px" height="40px" viewBox="0 0 40 40" version="1.1" xmlns="http://www.w3.org/2000/svg" xmlns:xlink="http://www.w3.org/1999/xlink">
    <path d="M20,14 L23,14 C24.6568542,14 26,15.3431458 26,17 L26,18 C26,19 25.5,19.6666667 24.5,20 C25.5,20.3333333 26,21 26,22 L26,23 C26,24.6568542 24.6568542,26 23,26 L20,26 L20,14 Z M31,15 L33,15 L33,17 L34.5,17 L34.5,19 L33,19 C33,21.3333333 33,22.6666667 33,23 C33,23.5 33.5,24 34,24 C34.3333333,24 34.5,24 34.5,24 L34.5,26 C34.0370871,26 33.7037538,26 33.5,26 C32,26 31,25 31,23.5 C31,22.153673 31,20.653673 31,19 L30,19 L30,17 L31,17 L31,15 Z M27,17 L29,17 L29,26 L27,26 L27,17 Z M22,21 L22,24 L23,24 C23.5522847,24 24,23.5522847 24,23 L24,22 C24,21.4477153 23.5522847,21 23,21 L22,21 Z M22,16 L22,19 L23,19 C23.5522847,19 24,18.5522847 24,18 L24,17 C24,16.4477153 23.5522847,16 23,16 L22,16 Z" fill="#00A9D2" class="fill" />
    <path d="M16,17 C17.6568542,17 19,18.3431458 19,20 L19,23 C19,24.6568542 17.6568542,26 16,26 C14.3431458,26 13,24.6568542 13,23 L13,20 C13,18.3431458 14.3431458,17 16,17 Z M16,19 C15.4477153,19 15,19.4477153 15,20 L15,23 C15,23.5522847 15.4477153,24 16,24 C16.5522847,24 17,23.5522847 17,23 L17,20 C17,19.4477153 16.5522847,19 16,19 Z M10,18 L11.5,14 L14,14 L11,21 L11,26 L9,26 L9,21 L6,14 L8.5,14 L10,18 Z" fill="#1C5A77" class="fill" />
</svg>