<?xml version="1.0" encoding="UTF-8"?>
<svg width="40px" height="40px" viewBox="0 0 40 40" version="1.1" xmlns="http://www.w3.org/2000/svg" xmlns:xlink="http://www.w3.org/1999/xlink">
	<defs>
		<linearGradient x1="38.8637228%" y1="0%" x2="38.8637228%" y2="100%" id="zen-gradient">
			<stop stop-color="#26DB8D" offset="0%" />
			<stop stop-color="#0E9DE5" offset="100%" />
		</linearGradient>
	</defs>
	<path d="M19.9273282,26.8674809 C17.5141985,26.8674809 15.3874809,25.6448855 14.1328244,23.7853435 C16.7554198,21.9065649 19.9636641,20.7972519 23.4348092,20.7972519 C24.5890076,20.7972519 25.711145,20.9233588 26.7948092,21.1541985 C26.1963359,24.4030534 23.3514504,26.8674809 19.9273282,26.8674809 Z M31.2299237,11.8116031 C32.8650382,14.0922137 33.831145,16.8858015 33.8332824,19.9038168 C33.8332824,27.581374 27.6091603,33.8076336 19.9294656,33.8076336 C16.9114504,33.8076336 14.1221374,32.8436641 11.8436641,31.210687 L15.3661069,28.9343511 C16.7361832,29.6290076 18.2858015,30.0222901 19.9273282,30.0222901 C25.5145038,30.0222901 30.0458015,25.4931298 30.0458015,19.9038168 C30.0458015,18.2601527 29.6525191,16.7083969 28.9557252,15.3361832 L31.2299237,11.8137405 L31.2299237,11.8116031 Z" fill="url(#zen-gradient)" class="fill" />
	<path d="M23.3685496,19.5276336 C24.5847328,19.5276336 25.768855,19.6601527 26.910229,19.9080916 C26.910229,19.9080916 26.910229,19.9059542 26.910229,19.9059542 C26.910229,16.0479389 23.7832061,12.9230534 19.9273282,12.9230534 C16.069313,12.9230534 12.9444275,16.0500763 12.9444275,19.9059542 C12.9444275,20.2222901 12.9679389,20.5343511 13.0085496,20.84 C13.0085496,20.84 13.0064122,20.84 13.0064122,20.8421374 C11.2473282,22.1780153 10.4137405,23.2360305 10.3880916,23.270229 C10.0161832,22.218626 9.80885496,21.0879389 9.80885496,19.9080916 C9.80885496,14.3187786 14.3401527,9.78961832 19.9273282,9.78961832 C21.5645802,9.78961832 23.1077863,10.1807634 24.4757252,10.871145 L28.0003053,8.59267176 C25.7239695,6.95969466 22.9389313,6 19.9273282,6 C12.2476336,6 6.02351145,12.2262595 6.02351145,19.9038168 C6.02351145,22.9945038 7.03450382,25.8479389 8.74015267,28.1563359 C9.39847328,26.9658015 10.2,25.8650382 11.1169466,24.8754198 C11.1169466,24.8754198 12.4891603,23.4433588 13.538626,22.7251908 C16.2980153,20.7160305 19.6943511,19.5276336 23.3685496,19.5276336 Z" fill="#4A4A4A" class="fill fill-black" />
</svg>